<?xml version="1.0" encoding="UTF-8" standalone="no"?>
<!-- Created with Inkscape (http://www.inkscape.org/) -->

<svg
   xmlns:dc="http://purl.org/dc/elements/1.1/"
   xmlns:cc="http://creativecommons.org/ns#"
   xmlns:rdf="http://www.w3.org/1999/02/22-rdf-syntax-ns#"
   xmlns:svg="http://www.w3.org/2000/svg"
   xmlns="http://www.w3.org/2000/svg"
   xmlns:sodipodi="http://sodipodi.sourceforge.net/DTD/sodipodi-0.dtd"
   xmlns:inkscape="http://www.inkscape.org/namespaces/inkscape"
   width="63.923332mm"
   height="60.272083mm"
   viewBox="0 0 63.923332 60.272083"
   version="1.1"
   id="svg6762"
   inkscape:version="0.92.3 (unknown)"
   sodipodi:docname="alfalfadog.svg">
  <defs
     id="defs6756" />
  <sodipodi:namedview
     id="base"
     pagecolor="#ffffff"
     bordercolor="#666666"
     borderopacity="1.0"
     inkscape:pageopacity="0.0"
     inkscape:pageshadow="2"
     inkscape:zoom="0.35"
     inkscape:cx="382.22859"
     inkscape:cy="236.75714"
     inkscape:document-units="mm"
     inkscape:current-layer="layer1"
     showgrid="false"
     inkscape:window-width="1366"
     inkscape:window-height="705"
     inkscape:window-x="0"
     inkscape:window-y="30"
     inkscape:window-maximized="1" />
  <metadata
     id="metadata6759">
    <rdf:RDF>
      <cc:Work
         rdf:about="">
        <dc:format>image/svg+xml</dc:format>
        <dc:type
           rdf:resource="http://purl.org/dc/dcmitype/StillImage" />
        <dc:title></dc:title>
      </cc:Work>
    </rdf:RDF>
  </metadata>
  <g
     inkscape:label="Layer 1"
     inkscape:groupmode="layer"
     id="layer1"
     transform="translate(115.87239,-151.20324)">
    <g
       transform="matrix(0.26458333,0,0,0.26458333,-261.81655,54.206996)"
       id="g5346"
       style="display:inline">
      <path
         d="m 717.5,552.5 h -6.9 c 4.6,6.5 7.7,13.8 9.2,21.9 l 0.4,1.8 -1.8,0.7 c -13,5.6 -26.9,8.4 -41,8.4 -14.2,0 -28.1,-2.8 -41.1,-8.4 l -1.7,-0.7 0.4,-1.9 c 1.5,-7.9 4.5,-15.2 9.1,-21.7 h -6.9 c -3.4,5.6 -5.8,11.7 -7.2,18.2 l -0.6,2.8 -2.7,-1.4 c -6,-3.3 -11.8,-7.3 -17.1,-11.8 l -0.9,-0.9 0.2,-1.3 c 3.5,-17.6 11.2,-33.5 26.9,-43.3 l 1.1,-0.7 1.2,0.7 c 11.8,6.5 26,8.5 39.3,8.5 13.2,0 27.5,-2 39.2,-8.5 l 1.2,-0.7 1.2,0.7 c 15.7,9.8 23.3,25.7 26.8,43.5 l 0.4,1.3 -1.1,0.8 c -5.3,4.5 -11,8.5 -17.1,11.8 l -2.6,1.5 -0.7,-3 c -1.4,-6.6 -3.8,-12.7 -7.2,-18.3 z m -84.6,-121 h -6.4 c -4.3,8.5 -10,22.6 -21.7,15.8 -11.1,-6.5 -16.5,-20.7 -9.9,-32.2 8.6,-14.8 20.3,-29.3 39.2,-18.4 3,1.8 6.5,4.1 8.1,7.2 h 6.1 l -0.5,-1.4 1.4,-0.9 c 6,-4 12.8,-6.7 19.8,-8 l 2.7,-0.4 v 2.7 c -0.1,2.7 0.2,5.4 1.1,8 h 5.9 c -1.1,-2.8 -1.5,-5.8 -1.3,-8.9 l 0.1,-2.2 2.2,0.1 c 9.2,0.5 17.8,3.5 25.5,8.6 l 1.4,0.9 -0.5,1.4 h 6.1 c 1.8,-3.1 5.3,-5.4 8.2,-7.2 18.9,-10.9 30.6,3.7 39.2,18.4 6.6,11.6 1.3,25.7 -9.9,32.2 -11.7,6.7 -17.5,-7.3 -21.7,-15.8 h -6.4 c 0.9,1.5 1.8,3.2 2.6,4.8 2.6,5.3 5.6,11.3 10.3,15 l 0.7,0.6 0.1,0.8 c 0.6,4.1 0.8,8.4 0.8,12.5 0,35.3 -20.4,50.8 -53.9,52.2 l -2.2,0.1 v -23.3 l 1.3,-0.6 c 2.1,-0.8 4.1,-2.7 4.1,-5.2 0,-0.2 0,-1.4 -0.2,-1.7 -0.5,-0.7 -7.2,-0.5 -8,-0.5 -0.9,0 -7.6,-0.2 -8.2,0.5 -0.2,0.2 -0.2,1.4 -0.2,1.7 0,2.5 2,4.4 4.1,5.2 l 1.4,0.6 v 23.3 l -2.4,-0.1 C 638.5,515.9 618,500.4 618,465.1 c 0,-4.1 0.2,-8.4 0.8,-12.5 l 0.1,-0.8 0.7,-0.6 c 4.7,-3.7 7.8,-9.7 10.4,-15 1.3,-1.5 2.1,-3.2 2.9,-4.7 z"
         id="path5308"
         inkscape:connector-curvature="0"
         style="clip-rule:evenodd;fill:#cb6d38;fill-rule:evenodd" />
      <path
         d="m 617.6,566.4 c -2.7,-1.9 -5.3,-3.9 -7.9,-6 l -0.9,-0.9 0.2,-1.3 c 3.5,-17.6 11.2,-33.5 26.9,-43.3 l 1.1,-0.7 1.2,0.7 c 2.5,1.3 5,2.5 7.7,3.4 -0.1,-0.1 -20.9,5.3 -28.3,48.1 z m 11.2,-172.3 c -6.4,4.1 -27.3,19.7 -30,48.3 -6.9,-7.3 -9.2,-18.2 -3.9,-27.4 3.5,-6 7.6,-12 12.4,-16.3 6.4,-2.1 13,-3.9 19.7,-5.1 0.6,0.2 1.2,0.3 1.8,0.5 z m 1.6,42.2 c 0,0 -10.3,60.1 13.6,75.1 -16.3,-7.6 -25.6,-22.3 -25.6,-46.2 0,-4.1 0.2,-8.4 0.8,-12.5 l 0.1,-0.8 0.7,-0.6 c 4.8,-3.6 7.8,-9.7 10.4,-15 z"
         id="path5310"
         inkscape:connector-curvature="0"
         style="clip-rule:evenodd;fill:#ffffff;fill-rule:evenodd" />
      <path
         d="m 775.1,497.9 c 5.6,0 10.2,4.6 10.2,10.2 0,5.7 -4.6,10.2 -10.2,10.2 -5.7,0 -10.2,-4.5 -10.2,-10.2 0.1,-5.6 4.6,-10.2 10.2,-10.2 z m -193.7,-5.5 c 12.2,0 22,9.8 22,22 0,12 -9.8,21.9 -22,21.9 -12,0 -21.9,-9.8 -21.9,-21.9 0.1,-12.2 9.9,-22 21.9,-22 z"
         id="path5312"
         inkscape:connector-curvature="0"
         style="clip-rule:evenodd;fill:#55c5cf;fill-rule:evenodd" />
      <path
         d="m 771.2,434.2 c 8.6,17.5 12.3,37.1 10.4,56.5 l -0.2,2.6 -2.6,-0.6 c -1.2,-0.2 -2.5,-0.5 -3.7,-0.5 -8.7,0 -15.8,7.1 -15.8,15.8 0,6.9 4.5,13 11,15.1 l 2.5,0.7 -1.2,2.4 c -4.6,9.4 -10.6,18.2 -17.8,26 l -2.8,3 -0.9,-4 c -4,-15.4 -11.5,-29.4 -24.4,-38.9 l -2.4,-1.7 2.1,-1.9 c 12.6,-11.1 16.8,-27.2 16.8,-43.5 0,-2.7 -0.1,-5.4 -0.4,-8.1 l -0.2,-2.5 h 2.5 c 3.2,0.1 6.1,-0.9 8.9,-2.5 6.7,-3.9 11.9,-10.2 14.3,-17.6 l 1.7,-5.4 z m -189.8,52.6 c -2,0 -3.9,0.2 -5.9,0.7 l -2.6,0.6 -0.1,-2.7 c -0.7,-17.7 3,-35.3 10.7,-51.1 l 2.5,-5.1 1.7,5.3 c 2.4,7.6 7.6,13.8 14.3,17.7 2.7,1.5 5.8,2.6 8.9,2.5 h 2.5 l -0.2,2.5 c -0.2,2.7 -0.4,5.4 -0.4,8.1 0,16.3 4.1,32.4 16.8,43.5 l 2.1,1.9 -2.2,1.7 c -13.1,9.4 -20.4,23.5 -24.4,38.9 l -1.1,4 -2.8,-3.1 c -2.8,-3.1 -5.6,-6.4 -8,-9.8 l -1.7,-2.1 2.4,-1.2 c 9.3,-4.7 15.2,-14.2 15.2,-24.6 -0.2,-15.3 -12.5,-27.7 -27.7,-27.7 z m 95.8,-107.4 c -1.4,2.1 -2.6,4.3 -3.4,6.6 l -0.5,1.3 -1.4,0.1 c -9.2,0.9 -18,4.3 -25.6,9.3 l -1.5,0.9 -1.3,-1.2 c -2,-1.9 -4.3,-3.4 -6.5,-4.7 -1.3,-0.7 -2.6,-1.4 -3.9,-1.9 l -4.6,-2 4.6,-2.1 c 13.2,-6.3 27.6,-9.6 42.3,-9.9 h 4.5 z m 44.5,10.5 c -1.3,0.5 -2.6,1.2 -3.8,1.9 -2.4,1.3 -4.6,2.8 -6.6,4.7 l -1.3,1.2 -1.4,-0.9 c -7.8,-5.1 -16.7,-8.4 -26,-9.3 l -3.5,-0.4 1.9,-3.1 c 1.5,-2.7 3.8,-5.1 6.3,-7.1 l 0.7,-0.5 h 0.9 c 11.3,1.3 22.6,4.4 33,9.3 l 4.5,2.1 z"
         id="path5314"
         inkscape:connector-curvature="0"
         style="clip-rule:evenodd;fill:#f9a98f;fill-rule:evenodd" />
      <path
         d="m 677.4,386.2 c 13.3,0 25.9,4.7 36.3,12.6 -2.1,1.8 -3.5,4.3 -3.8,7 H 706 c -8.5,-6 -18.2,-9.4 -28.6,-9.4 -10.5,0 -20.2,3.4 -28.6,9.4 h -2.6 c -0.5,-3 -2.4,-5.6 -5.1,-7 10.5,-8 23.1,-12.6 36.3,-12.6 z m 65.9,66.7 c 0.6,4.6 0.9,9.2 0.9,13.7 0,42.6 -27.4,60.2 -66.9,60.2 -39.6,0 -67,-17.6 -67,-60.2 0,-4.5 0.4,-9.1 1.1,-13.7 h 10.2 c -0.7,4.5 -1.1,9 -1.1,13.7 0,38.9 25.4,50.1 56.8,50.1 31.3,0 56.7,-11.2 56.7,-50.1 0,-4.7 -0.4,-9.2 -1.1,-13.7 z"
         id="path5316"
         inkscape:connector-curvature="0"
         style="clip-rule:evenodd;fill:#3c2415;fill-rule:evenodd" />
      <path
         d="m 638,391.1 c 6.4,3.7 12.4,9 13.2,16.3 h -10.4 c -0.7,-2.2 -3.2,-4.7 -7.9,-7.4 -19.3,-11.2 -30.4,7.7 -36,17.6 -5.7,9.8 -1.7,22.9 9.1,29.1 9.8,5.7 14.2,-6.5 19.3,-16.2 h 12 c -0.7,0.8 -1.4,1.7 -1.8,2.4 -1.2,1.9 -2.1,3.9 -3.1,5.9 -3.8,7.6 -8.2,16.2 -16.9,18.8 -5.1,1.5 -10.2,0.6 -14.6,-2 -15,-8.6 -21.6,-27.8 -12.8,-43 3.1,-5.3 6.3,-10.5 10.4,-15 11,-12 25.2,-14.8 39.5,-6.5 z"
         id="path5318"
         inkscape:connector-curvature="0"
         style="clip-rule:evenodd;fill:#3c2415;fill-rule:evenodd" />
      <path
         d="m 716.8,391.1 c -6.3,3.7 -12.3,9 -13.2,16.3 H 714 c 0.8,-2.2 3.2,-4.7 7.9,-7.4 19.3,-11.2 30.4,7.7 36,17.6 5.8,9.8 1.7,22.9 -9,29.1 -9.8,5.7 -14.3,-6.5 -19.3,-16.2 h -12.2 c 0.7,0.8 1.4,1.7 1.9,2.4 1.1,1.9 2,3.9 3.1,5.9 3.7,7.6 8.2,16.2 16.8,18.8 5.1,1.5 10.2,0.6 14.6,-2 15,-8.6 21.7,-27.8 12.9,-43 -3.1,-5.3 -6.3,-10.5 -10.5,-15 -10.8,-12 -25.1,-14.8 -39.4,-6.5 z"
         id="path5320"
         inkscape:connector-curvature="0"
         style="clip-rule:evenodd;fill:#3c2415;fill-rule:evenodd" />
      <path
         d="m 688,489.8 c 0,4.6 -4.7,8.3 -10.5,8.3 -5.9,0 -10.6,-3.7 -10.6,-8.3 0,-4.6 2,-4.5 10.6,-4.5 8.6,0 10.5,-0.1 10.5,4.5 z"
         id="path5322"
         inkscape:connector-curvature="0"
         style="clip-rule:evenodd;fill:#3c2415;fill-rule:evenodd" />
      <path
         d="m 647.8,448.7 c 2.7,0 5.1,2.4 5.1,5.1 0,2.8 -2.4,5.1 -5.1,5.1 -2.8,0 -5.1,-2.2 -5.1,-5.1 0,-2.7 2.3,-5.1 5.1,-5.1 z"
         id="path5324"
         inkscape:connector-curvature="0"
         style="clip-rule:evenodd;fill:#3c2415;fill-rule:evenodd" />
      <path
         d="m 707.1,448.7 c 2.7,0 5.1,2.4 5.1,5.1 0,2.8 -2.4,5.1 -5.1,5.1 -2.8,0 -5.1,-2.2 -5.1,-5.1 0,-2.7 2.3,-5.1 5.1,-5.1 z"
         id="path5326"
         inkscape:connector-curvature="0"
         style="clip-rule:evenodd;fill:#3c2415;fill-rule:evenodd" />
      <rect
         x="672.40002"
         y="494.29999"
         width="10.2"
         height="28.9"
         id="rect5328"
         style="clip-rule:evenodd;fill:#3c2415;fill-rule:evenodd" />
      <path
         d="m 682.4,407.4 -0.1,-0.1 c -5.7,-9.9 -1.7,-22.9 9.1,-29.2 1.1,-0.6 2,-0.9 3,-1.2 v -10.3 c -2.7,0.2 -5.4,1.3 -8,2.7 -13.3,7.7 -20.1,23.7 -15,38 h 11 z"
         id="path5330"
         inkscape:connector-curvature="0"
         style="clip-rule:evenodd;fill:#3c2415;fill-rule:evenodd" />
      <path
         d="m 677.4,369.2 c 62.1,0 112.6,50.4 112.6,112.6 0,8.1 -0.9,16.1 -2.6,23.6 -1.7,-3.5 -4.8,-6.4 -9,-6.7 4,-23.9 -0.6,-48.4 -13.1,-69.3 l 0.1,-1.4 v 0 c 0,-2.8 -1.1,-4.8 -2.2,-7.2 -0.2,-0.6 -0.5,-1.3 -0.9,-1.9 -0.7,-2.5 -3.3,-6.9 -4.8,-8.4 -0.8,-0.8 -2.5,-2.6 -3.4,-3.3 -0.5,-0.8 -1.2,-1.5 -1.8,-2.4 -1.8,-3 -8,-8.3 -11.6,-9.2 -3.1,-2 -7.1,-2.8 -10.6,-1.7 -15.4,-9.2 -33.4,-14.5 -52.6,-14.5 -20,0 -38.6,5.7 -54.3,15.6 -2,-0.8 -4.8,-0.9 -7,-0.4 -3.8,0 -8.5,2.7 -10.5,5.7 -0.6,0.6 -1.2,1.2 -1.7,1.9 -1.5,1.1 -3.1,2.8 -3.9,4.6 -0.8,0.5 -1.4,1.1 -2,1.8 -3.7,3 -4.7,7.9 -2.8,12 -15.8,21.3 -22.7,47.7 -19.5,74.1 -2.7,-0.2 -5.9,0.9 -8,2.7 -0.6,0.4 -1.1,0.7 -1.7,1.1 C 556,430.6 608.3,369.2 677.4,369.2 Z m 105,153.1 c -16.2,42.2 -57.2,72.1 -105,72.1 -41.2,0 -77.4,-22.2 -96.9,-55.3 3.5,1.1 7.6,0.1 10.2,-2.7 18.2,28.8 50.2,47.8 86.7,47.8 43,0 79.7,-26.5 95,-64 2.7,2.5 6.6,3.3 10,2.1 z"
         id="path5332"
         inkscape:connector-curvature="0"
         style="clip-rule:evenodd;fill:#3c2415;fill-rule:evenodd" />
      <path
         d="m 721.7,508.4 c 17.5,10.3 27.2,27.5 31.7,49.3 -2.4,2.6 -5.3,5.4 -8.7,8.1 -3.4,-23.6 -13,-42.6 -34.4,-51.7 4.3,-1.8 8.2,-3.8 11.4,-5.7 z m -120.3,49 c 4.6,-21.9 14.4,-39.1 32.1,-49.3 2.7,2.2 5.9,4.5 9.8,6.5 -20.3,9.2 -29.5,27.6 -33.1,50.4 -3.2,-2.7 -6.2,-5.4 -8.8,-7.6 z"
         id="path5334"
         inkscape:connector-curvature="0"
         style="clip-rule:evenodd;fill:#3c2415;fill-rule:evenodd" />
      <path
         d="m 626.4,581.1 c 0.9,-10.9 4.1,-20.9 9.7,-29.6 h 12.8 c -7.3,8.5 -11.1,18.5 -12.4,29.6 z"
         id="path5336"
         inkscape:connector-curvature="0"
         style="clip-rule:evenodd;fill:#3c2415;fill-rule:evenodd" />
      <path
         d="m 728.5,581.1 c -1.1,-10.9 -4.1,-20.9 -9.7,-29.6 H 706 c 7.3,8.5 11.1,18.5 12.4,29.6 z"
         id="path5338"
         inkscape:connector-curvature="0"
         style="clip-rule:evenodd;fill:#3c2415;fill-rule:evenodd" />
      <path
         d="m 757.6,567.4 c 2.8,0 5.1,2.2 5.1,5.1 0,2.8 -2.2,5.1 -5.1,5.1 -2.8,0 -5.1,-2.2 -5.1,-5.1 0.1,-2.8 2.3,-5.1 5.1,-5.1 z"
         id="path5340"
         inkscape:connector-curvature="0"
         style="clip-rule:evenodd;fill:#3c2415;fill-rule:evenodd" />
      <path
         d="m 775.1,491.2 c 9.9,0 18.1,8.1 18.1,18.1 0,9.9 -8.2,18.1 -18.1,18.1 -10,0 -18.1,-8.1 -18.1,-18.1 0,-9.9 8.1,-18.1 18.1,-18.1 z m 0,10.2 c 4.4,0 7.9,3.5 7.9,7.9 0,4.4 -3.5,7.9 -7.9,7.9 -4.4,0 -7.9,-3.5 -7.9,-7.9 0,-4.4 3.6,-7.9 7.9,-7.9 z"
         id="path5342"
         inkscape:connector-curvature="0"
         style="clip-rule:evenodd;fill:#3c2415;fill-rule:evenodd" />
      <path
         d="m 581.4,485.8 c 16.4,0 29.8,13.3 29.8,29.8 0,16.5 -13.3,29.9 -29.8,29.9 -16.4,0 -29.8,-13.3 -29.8,-29.9 0,-16.4 13.4,-29.8 29.8,-29.8 z m 0,10.2 c 10.9,0 19.7,8.9 19.7,19.6 0,10.9 -8.9,19.7 -19.7,19.7 -10.9,0 -19.6,-8.9 -19.6,-19.7 0,-10.8 8.7,-19.6 19.6,-19.6 z"
         id="path5344"
         inkscape:connector-curvature="0"
         style="clip-rule:evenodd;fill:#3c2415;fill-rule:evenodd" />
    </g>
  </g>
</svg>
