<?xml version="1.0" encoding="UTF-8" standalone="no"?>
<!-- Created with Inkscape (http://www.inkscape.org/) -->

<svg
   xmlns:dc="http://purl.org/dc/elements/1.1/"
   xmlns:cc="http://creativecommons.org/ns#"
   xmlns:rdf="http://www.w3.org/1999/02/22-rdf-syntax-ns#"
   xmlns:svg="http://www.w3.org/2000/svg"
   xmlns="http://www.w3.org/2000/svg"
   xmlns:sodipodi="http://sodipodi.sourceforge.net/DTD/sodipodi-0.dtd"
   xmlns:inkscape="http://www.inkscape.org/namespaces/inkscape"
   width="69.988457mm"
   height="37.869541mm"
   viewBox="0 0 69.988457 37.869541"
   version="1.1"
   id="svg2268"
   sodipodi:docname="bone.svg"
   inkscape:version="0.92.3 (unknown)">
  <defs
     id="defs2262" />
  <sodipodi:namedview
     id="base"
     pagecolor="#ffffff"
     bordercolor="#666666"
     borderopacity="1.0"
     inkscape:pageopacity="0.0"
     inkscape:pageshadow="2"
     inkscape:zoom="2"
     inkscape:cx="199.40464"
     inkscape:cy="20.136058"
     inkscape:document-units="mm"
     inkscape:current-layer="layer1"
     showgrid="false"
     inkscape:window-width="1366"
     inkscape:window-height="705"
     inkscape:window-x="0"
     inkscape:window-y="30"
     inkscape:window-maximized="1" />
  <metadata
     id="metadata2265">
    <rdf:RDF>
      <cc:Work
         rdf:about="">
        <dc:format>image/svg+xml</dc:format>
        <dc:type
           rdf:resource="http://purl.org/dc/dcmitype/StillImage" />
      </cc:Work>
    </rdf:RDF>
  </metadata>
  <g
     inkscape:label="Layer 1"
     inkscape:groupmode="layer"
     id="layer1"
     transform="translate(-54.208117,-104.19622)">
    <path
       d="m 67.021496,130.94388 c -1.1871,-1.27883 -2.61514,-2.24755 -4.25873,-2.84093 -0.80292,-0.28963 -0.45438,-1.57762 0.35454,-1.28587 1.86055,0.67169 3.49991,1.73214 4.84717,3.18382 0.58349,0.62865 -0.35807,1.57339 -0.94298,0.94298 m -5.15761,7.43055 c -0.85972,0 -0.85831,-1.3335 0,-1.3335 0.85937,0 0.85796,1.3335 0,1.3335 m -0.81527,-12.40966 c 0.85972,0 0.85831,1.3335 0,1.3335 -0.85901,0 -0.8576,-1.3335 0,-1.3335 m -1.48167,9.89048 c -0.85936,0 -0.8576,-1.3335 0,-1.3335 0.85972,0 0.85831,1.3335 0,1.3335 m -0.22225,2.4451 c -0.85936,0 -0.85795,-1.3335 0,-1.3335 0.85972,0 0.85831,1.3335 0,1.3335 m 1.01495,-14.18449 c -0.0222,0.0113 -0.0402,0.0286 -0.0635,0.0384 -1.3328,0.56339 -4.41361,6.86329 -3.78672,11.64978 0.31044,2.37173 1.45803,3.6643 3.50837,3.95182 6.73982,0.94509 10.51278,-6.6234 11.21305,-8.18021 -3.85198,-5.60423 -9.12848,-7.1053 -10.8712,-7.45984"
       style="display:inline;fill:#985c3a;fill-opacity:1;fill-rule:nonzero;stroke:none;stroke-width:0.35277775"
       id="path1294"
       inkscape:connector-curvature="0" />
    <path
       d="m 58.826296,110.29484 c -0.85972,0 -0.85831,-1.3335 0,-1.3335 0.85972,0 0.85831,1.3335 0,1.3335 m 2.2225,-0.29634 c 0.85936,0 0.85795,1.3335 0,1.3335 -0.85937,0 -0.85796,-1.3335 0,-1.3335 m 0.889,-2.37102 c 0.85972,0 0.85831,1.33386 0,1.33386 -0.85937,0 -0.85796,-1.33386 0,-1.33386 m 1.83762,10.38578 c 1.35537,-0.66322 2.55164,-1.52999 3.59727,-2.61831 0.59549,-0.62054 1.53741,0.32385 0.94262,0.94297 -1.1176,1.16346 -2.41723,2.11773 -3.86644,2.82681 -0.76906,0.37606 -1.44392,-0.77435 -0.67345,-1.15147 m -1.83762,2.50578 c -0.85937,0 -0.85796,-1.3335 0,-1.3335 0.85972,0 0.85831,1.3335 0,1.3335 m -1.64183,1.58821 c 0.0233,0.01 0.0413,0.0275 0.0639,0.0388 1.74237,-0.3549 7.01852,-1.85597 10.87085,-7.45984 -0.69885,-1.55399 -4.47322,-9.12989 -11.21269,-8.18057 -2.0507,0.28787 -3.19793,1.58009 -3.50837,3.95182 -0.62724,4.78649 2.45392,11.08639 3.78636,11.64978"
       style="display:inline;fill:#985c3a;fill-opacity:1;fill-rule:nonzero;stroke:none;stroke-width:0.35277775"
       id="path1298"
       inkscape:connector-curvature="0" />
    <path
       d="m 119.06036,109.29471 c -0.85972,0 -0.85831,-1.3335 0,-1.3335 0.85972,0 0.85831,1.3335 0,1.3335 m -0.22225,2.44511 c -0.85937,0 -0.85831,-1.33386 0,-1.33386 0.85972,0 0.85831,1.33386 0,1.33386 m -1.48167,8.55697 c -0.85972,0 -0.8583,-1.3335 0,-1.3335 0.85937,0 0.85831,1.3335 0,1.3335 m -0.81527,-12.40966 c 0.85972,0 0.85831,1.3335 0,1.3335 -0.85936,0 -0.85795,-1.3335 0,-1.3335 m -1.25306,11.55735 c -1.86055,-0.67133 -3.49991,-1.73249 -4.84717,-3.18382 -0.58349,-0.62865 0.35772,-1.57339 0.94297,-0.94297 1.1871,1.27882 2.61479,2.24755 4.25874,2.84092 0.80257,0.28963 0.45438,1.57762 -0.35454,1.28587 m 3.09915,-12.93883 c -6.76063,-0.94897 -10.51772,6.62482 -11.21304,8.17986 3.86609,5.62822 9.12707,7.11341 10.86767,7.46231 0.024,-0.012 0.0423,-0.0303 0.067,-0.0406 1.33244,-0.56339 4.41325,-6.86329 3.78672,-11.64978 -0.31045,-2.37173 -1.45839,-3.66395 -3.50838,-3.95182"
       style="display:inline;fill:#985c3a;fill-opacity:1;fill-rule:nonzero;stroke:none;stroke-width:0.35277775"
       id="path1302"
       inkscape:connector-curvature="0" />
    <path
       d="m 119.57884,135.96665 c 0.85972,0 0.85831,1.33386 0,1.33386 -0.85937,0 -0.85796,-1.33386 0,-1.33386 m -2.2225,0.29634 c -0.85937,0 -0.85796,-1.3335 0,-1.3335 0.85972,0 0.85831,1.3335 0,1.3335 m -0.889,2.37102 c -0.85972,0 -0.85831,-1.3335 0,-1.3335 0.85937,0 0.85795,1.3335 0,1.3335 m -1.83762,-10.38543 c -1.35502,0.66287 -2.55164,1.52964 -3.59692,2.61797 -0.59584,0.62053 -1.53776,-0.32386 -0.94298,-0.94298 1.11795,-1.16346 2.41759,-2.11773 3.86645,-2.82681 0.76905,-0.37606 1.44427,0.77435 0.67345,1.15182 m 1.83762,-2.50613 c 0.85937,0 0.85795,1.3335 0,1.3335 -0.85972,0 -0.85831,-1.3335 0,-1.3335 m 1.64147,-1.58786 c -0.0233,-0.0102 -0.0409,-0.0275 -0.0635,-0.0388 -1.74272,0.35455 -7.01886,1.85562 -10.87049,7.45949 0.69815,1.55363 4.46934,9.12566 11.21234,8.18092 2.05034,-0.28787 3.19792,-1.58045 3.50837,-3.95217 0.62689,-4.78649 -2.45427,-11.0864 -3.78672,-11.64943"
       style="display:inline;fill:#985c3a;fill-opacity:1;fill-rule:nonzero;stroke:none;stroke-width:0.35277775"
       id="path1306"
       inkscape:connector-curvature="0" />
    <path
       d="m 105.74298,125.02003 c -1.04351,0 -1.88912,-0.84561 -1.88912,-1.88912 0,-1.04352 0.84561,-1.88913 1.88912,-1.88913 1.04316,0 1.88913,0.84561 1.88913,1.88913 0,1.04351 -0.84597,1.88912 -1.88913,1.88912 m -4.90855,1.14829 c 0,0.36865 -0.2988,0.6671 -0.66675,0.6671 -0.368304,0 -0.666754,-0.29845 -0.666754,-0.6671 v -6.07518 c 0,-0.3683 0.29845,-0.66675 0.666754,-0.66675 0.36795,0 0.66675,0.29845 0.66675,0.66675 z m -2.741444,0 c 0,0.36865 -0.29845,0.6671 -0.66675,0.6671 -0.36794,0 -0.66675,-0.29845 -0.66675,-0.6671 v -6.07518 c 0,-0.3683 0.29881,-0.66675 0.66675,-0.66675 0.3683,0 0.66675,0.29845 0.66675,0.66675 z m -2.74072,0 c 0,0.36865 -0.29881,0.6671 -0.66711,0.6671 -0.36794,0 -0.66639,-0.29845 -0.66639,-0.6671 v -6.07518 c 0,-0.3683 0.29845,-0.66675 0.66639,-0.66675 0.3683,0 0.66711,0.29845 0.66711,0.66675 z m -2.74179,0 c 0,0.36865 -0.29845,0.6671 -0.6664,0.6671 -0.3683,0 -0.6671,-0.29845 -0.6671,-0.6671 v -6.07518 c 0,-0.3683 0.2988,-0.66675 0.6671,-0.66675 0.36795,0 0.6664,0.29845 0.6664,0.66675 z m -2.74109,0 c 0,0.36865 -0.2988,0.6671 -0.6671,0.6671 -0.36795,0 -0.6664,-0.29845 -0.6664,-0.6671 v -6.07518 c 0,-0.3683 0.29845,-0.66675 0.6664,-0.66675 0.3683,0 0.6671,0.29845 0.6671,0.66675 z m -2.74108,0 c 0,0.36865 -0.29845,0.6671 -0.66675,0.6671 -0.3683,0 -0.6671,-0.29845 -0.6671,-0.6671 v -6.07518 c 0,-0.3683 0.2988,-0.66675 0.6671,-0.66675 0.3683,0 0.66675,0.29845 0.66675,0.66675 z m -2.74144,0 c 0,0.36865 -0.2988,0.6671 -0.66675,0.6671 -0.3683,0 -0.66675,-0.29845 -0.66675,-0.6671 v -6.07518 c 0,-0.3683 0.29845,-0.66675 0.66675,-0.66675 0.36795,0 0.66675,0.29845 0.66675,0.66675 z m -2.74143,0 c 0,0.36865 -0.29845,0.6671 -0.66675,0.6671 -0.36795,0 -0.66675,-0.29845 -0.66675,-0.6671 v -6.07518 c 0,-0.3683 0.2988,-0.66675 0.66675,-0.66675 0.3683,0 0.66675,0.29845 0.66675,0.66675 z m -2.74109,0 c 0,0.36865 -0.2988,0.6671 -0.66675,0.6671 -0.3683,0 -0.66675,-0.29845 -0.66675,-0.6671 v -6.07518 c 0,-0.3683 0.29845,-0.66675 0.66675,-0.66675 0.36795,0 0.66675,0.29845 0.66675,0.66675 z m -6.24205,-1.14829 c -1.04316,0 -1.88912,-0.84561 -1.88912,-1.88912 0,-1.04352 0.84596,-1.88913 1.88912,-1.88913 1.04352,0 1.88913,0.84561 1.88913,1.88913 0,1.04351 -0.84561,1.88912 -1.88913,1.88912 m 42.388374,-1.88912 c -2.65606,-1.00119 -6.37787,-3.1041 -9.35955,-7.46443 H 72.714156 c -2.98167,4.36033 -6.70383,6.46324 -9.3599,7.46443 2.65607,1.00083 6.37823,3.10409 9.3599,7.46407 h 32.976964 c 2.98168,-4.35998 6.70349,-6.46324 9.35955,-7.46407"
       style="display:inline;fill:#72452c;fill-opacity:1;fill-rule:nonzero;stroke:none;stroke-width:0.35277775"
       id="path1310"
       inkscape:connector-curvature="0" />
    <path
       d="M 99.306292,127.48828 H 79.363886 c -1.391804,0 -2.519972,-1.21738 -2.519972,-2.71924 v -3.27697 c 0,-1.50144 1.128168,-2.71882 2.519972,-2.71882 h 19.942406 c 1.391408,0 2.519578,1.21738 2.519578,2.71882 v 3.27697 c 0,1.50186 -1.12817,2.71924 -2.519578,2.71924"
       style="display:inline;fill:#72452c;fill-opacity:1;fill-rule:nonzero;stroke:none;stroke-width:0.40038356"
       id="path1314"
       inkscape:connector-curvature="0" />
    <path
       d="m 72.460936,131.44136 h 34.198634 c 1.07315,0 1.07526,-1.66828 0,-1.66828 H 72.460936 c -1.0735,0 -1.07527,1.66828 0,1.66828"
       style="display:inline;fill:#563421;fill-opacity:1;fill-rule:nonzero;stroke:none;stroke-width:0.35277775"
       id="path1322"
       inkscape:connector-curvature="0" />
    <path
       d="m 74.438086,128.1976 c 1.0735,0 1.07527,-1.66828 0,-1.66828 -1.0735,0 -1.07527,1.66828 0,1.66828"
       style="display:inline;fill:#563421;fill-opacity:1;fill-rule:nonzero;stroke:none;stroke-width:0.35277775"
       id="path1326"
       inkscape:connector-curvature="0" />
    <path
       d="m 75.859186,119.48565 c 1.07315,0 1.07527,-1.66829 0,-1.66829 -1.0735,0 -1.07526,1.66829 0,1.66829"
       style="display:inline;fill:#563421;fill-opacity:1;fill-rule:nonzero;stroke:none;stroke-width:0.35277775"
       id="path1330"
       inkscape:connector-curvature="0" />
    <path
       d="m 68.259326,123.81081 c 1.0735,0 1.07526,-1.66828 0,-1.66828 -1.0735,0 -1.07527,1.66828 0,1.66828"
       style="display:inline;fill:#563421;fill-opacity:1;fill-rule:nonzero;stroke:none;stroke-width:0.35277775"
       id="path1334"
       inkscape:connector-curvature="0" />
    <path
       d="m 84.601786,129.40238 c 1.07351,0 1.07527,-1.66829 0,-1.66829 -1.0735,0 -1.07526,1.66829 0,1.66829"
       style="display:inline;fill:#563421;fill-opacity:1;fill-rule:nonzero;stroke:none;stroke-width:0.35277775"
       id="path1338"
       inkscape:connector-curvature="0" />
    <path
       d="m 84.879816,118.83696 c 1.0735,0 1.07527,-1.66828 0,-1.66828 -1.07351,0 -1.07527,1.66828 0,1.66828"
       style="display:inline;fill:#563421;fill-opacity:1;fill-rule:nonzero;stroke:none;stroke-width:0.35277775"
       id="path1342"
       inkscape:connector-curvature="0" />
    <path
       d="m 96.093946,118.74429 c 1.0735,0 1.07526,-1.66829 0,-1.66829 -1.07315,0 -1.07492,1.66829 0,1.66829"
       style="display:inline;fill:#563421;fill-opacity:1;fill-rule:nonzero;stroke:none;stroke-width:0.35277775"
       id="path1346"
       inkscape:connector-curvature="0" />
    <path
       d="m 103.97186,128.5683 c 1.0735,0 1.07527,-1.66828 0,-1.66828 -1.0735,0 -1.07527,1.66828 0,1.66828"
       style="display:inline;fill:#563421;fill-opacity:1;fill-rule:nonzero;stroke:none;stroke-width:0.35277775"
       id="path1354"
       inkscape:connector-curvature="0" />
    <path
       d="m 110.18129,124.027 c 1.0735,0 1.07526,-1.66829 0,-1.66829 -1.07315,0 -1.07527,1.66829 0,1.66829"
       style="display:inline;fill:#563421;fill-opacity:1;fill-rule:nonzero;stroke:none;stroke-width:0.35277775"
       id="path1358"
       inkscape:connector-curvature="0" />
    <path
       d="m 102.48908,120.22705 c 1.07351,0 1.07527,-1.66829 0,-1.66829 -1.0735,0 -1.07526,1.66829 0,1.66829"
       style="display:inline;fill:#563421;fill-opacity:1;fill-rule:nonzero;stroke:none;stroke-width:0.35277775"
       id="path1362"
       inkscape:connector-curvature="0" />
    <path
       d="m 60.756586,105.83618 c -6.91585,0.67981 -3.02542,12.31512 -1.84538,16.02776 0.33867,-0.14288 0.67733,-0.28575 1.016,-0.42863 -2.17346,-4.306 -5.79755,-12.69718 0.51259,-15.38428 0.65652,-0.2794 0.0903,-1.2379 -0.56127,-0.96026 -6.96066,2.96403 -3.34575,12.08369 -0.91123,16.90581 0.28293,0.56092 1.20721,0.17145 1.01636,-0.42862 -0.69921,-2.19922 -1.40829,-4.41361 -1.77624,-6.69784 -0.38382,-2.38548 -0.91722,-7.5812 2.54917,-7.92198 0.70591,-0.0691 0.71297,-1.18216 0,-1.11196"
       style="display:inline;fill:#ffffff;fill-opacity:1;fill-rule:nonzero;stroke:none;stroke-width:0.35277775"
       id="path1402"
       inkscape:connector-curvature="0" />
    <path
       d="m 60.756586,139.31321 c -3.45158,-0.33902 -2.93405,-5.53544 -2.54917,-7.92198 0.36865,-2.28388 1.07703,-4.49827 1.77624,-6.69784 0.18873,-0.59372 -0.73025,-0.99518 -1.01636,-0.42827 -2.43487,4.82247 -6.04978,13.94178 0.91123,16.90582 0.65087,0.27728 1.21849,-0.68051 0.56127,-0.96062 -6.30238,-2.68323 -2.68499,-11.08004 -0.51259,-15.38393 -0.33867,-0.14288 -0.67733,-0.28575 -1.016,-0.42863 -1.18075,3.7144 -5.07083,15.34795 1.84538,16.02776 0.71191,0.0699 0.70697,-1.04282 0,-1.11231"
       style="display:inline;fill:#ffffff;fill-opacity:1;fill-rule:nonzero;stroke:none;stroke-width:0.35277775"
       id="path1406"
       inkscape:connector-curvature="0" />
    <path
       d="m 69.962576,112.64681 c -0.67909,4.28343 -4.63197,6.5278 -7.72477,9.04381 -0.83362,0.67804 0.35313,1.85173 1.17933,1.17969 3.33764,-2.71498 7.4228,-5.16749 8.15411,-9.78006 0.16616,-1.05022 -1.44074,-1.50248 -1.60867,-0.44344"
       style="display:inline;fill:#563421;fill-opacity:1;fill-rule:nonzero;stroke:none;stroke-width:0.35277775"
       id="path1410"
       inkscape:connector-curvature="0" />
    <path
       d="m 70.938916,113.36132 c -0.48401,0.5514 -0.83749,1.161 -1.07209,1.85632 -0.14393,0.42686 0.16581,0.91158 0.58244,1.02588 0.45579,0.12524 0.88159,-0.15416 1.02623,-0.58244 0.13088,-0.38841 0.36689,-0.80539 0.64311,-1.12007 0.29739,-0.33831 0.33302,-0.84666 0,-1.17969 -0.30303,-0.30303 -0.88088,-0.33972 -1.17969,0"
       style="display:inline;fill:#563421;fill-opacity:1;fill-rule:nonzero;stroke:none;stroke-width:0.35277775"
       id="path1414"
       inkscape:connector-curvature="0" />
    <path
       d="m 71.571056,133.17131 c -0.73095,-4.61221 -4.81682,-7.06578 -8.15375,-9.78005 -0.8262,-0.67169 -2.0133,0.50165 -1.17969,1.17968 3.09492,2.51778 7.04568,4.75721 7.72478,9.04382 0.16757,1.05727 1.77553,0.60854 1.60866,-0.44345"
       style="display:inline;fill:#563421;fill-opacity:1;fill-rule:nonzero;stroke:none;stroke-width:0.35277775"
       id="path1418"
       inkscape:connector-curvature="0" />
    <path
       d="m 117.51038,106.94828 c 3.45158,0.33937 2.93405,5.53544 2.54917,7.92198 -0.36865,2.28388 -1.07703,4.49862 -1.77624,6.69784 -0.18873,0.59372 0.73025,0.99518 1.01636,0.42862 2.43487,-4.82282 6.04978,-13.94177 -0.91123,-16.90617 -0.65087,-0.27693 -1.21849,0.68086 -0.56162,0.96062 6.30273,2.68358 2.68534,11.08004 0.51259,15.38393 0.33901,0.14288 0.67768,0.28575 1.016,0.42863 1.1811,-3.7144 5.07118,-15.3476 -1.84503,-16.0274 -0.71191,-0.0702 -0.70697,1.04245 0,1.11195"
       style="display:inline;fill:#ffffff;fill-opacity:1;fill-rule:nonzero;stroke:none;stroke-width:0.35277775"
       id="path1422"
       inkscape:connector-curvature="0" />
    <path
       d="m 117.51038,140.42548 c 6.91585,-0.6798 3.02542,-12.31512 1.84503,-16.02775 -0.33832,0.14287 -0.67699,0.28575 -1.016,0.42862 2.17381,4.30601 5.7979,12.69718 -0.51259,15.38429 -0.65617,0.2794 -0.09,1.23755 0.56162,0.96026 6.96066,-2.96404 3.34575,-12.08405 0.91123,-16.90581 -0.28293,-0.56092 -1.20721,-0.17145 -1.01636,0.42827 0.69921,2.19957 1.40829,4.41395 1.77624,6.69819 0.38382,2.38548 0.91722,7.58084 -2.54917,7.92163 -0.70591,0.0695 -0.71297,1.18251 0,1.1123"
       style="display:inline;fill:#ffffff;fill-opacity:1;fill-rule:nonzero;stroke:none;stroke-width:0.35277775"
       id="path1426"
       inkscape:connector-curvature="0" />
    <path
       d="m 106.69591,113.09018 c 0.73095,4.61222 4.81682,7.06579 8.15375,9.78006 0.82585,0.67204 2.0133,-0.5013 1.17969,-1.17969 -3.09492,-2.51742 -7.04568,-4.75686 -7.72478,-9.04381 -0.16757,-1.05728 -1.77553,-0.60854 -1.60866,0.44344"
       style="display:inline;fill:#563421;fill-opacity:1;fill-rule:nonzero;stroke:none;stroke-width:0.35277775"
       id="path1430"
       inkscape:connector-curvature="0" />
    <path
       d="m 108.30441,133.61486 c 0.6791,-4.28378 4.63162,-6.5278 7.72478,-9.04416 0.83361,-0.67769 -0.35313,-1.85173 -1.17934,-1.17934 -3.33763,2.71498 -7.42279,5.16749 -8.1541,9.78006 -0.16616,1.05022 1.44074,1.50248 1.60866,0.44344"
       style="display:inline;fill:#563421;fill-opacity:1;fill-rule:nonzero;stroke:none;stroke-width:0.35277775"
       id="path1434"
       inkscape:connector-curvature="0" />
    <path
       d="m 118.10881,122.10721 c -0.0243,0.0102 -0.043,0.0286 -0.0667,0.0406 -1.74095,-0.34889 -7.00193,-1.83373 -10.86802,-7.4623 0.69568,-1.55505 4.45241,-9.12883 11.21304,-8.17986 2.05034,0.28786 3.19793,1.58009 3.50838,3.95181 0.62688,4.78649 -2.45428,11.0864 -3.78672,11.64979 m 3.78672,13.69694 c -0.31045,2.37138 -1.45804,3.66395 -3.50838,3.95182 -6.743,0.94509 -10.51419,-6.62693 -11.21234,-8.18056 3.85163,-5.60388 9.12778,-7.10495 10.8705,-7.45984 0.0226,0.0116 0.0402,0.0289 0.0635,0.0388 1.33244,0.56338 4.4136,6.86329 3.78672,11.64978 m -49.181474,-5.20912 c -2.98167,-4.35998 -6.70383,-6.46324 -9.3599,-7.46443 2.65607,-1.00083 6.37823,-3.10374 9.3599,-7.46407 H 105.691 c 2.98168,4.36033 6.70384,6.46324 9.35955,7.46407 -2.65571,1.00119 -6.37787,3.10445 -9.35955,7.46443 z m -12.69611,9.16093 c -2.05035,-0.28787 -3.19793,-1.58044 -3.50838,-3.95182 -0.62724,-4.78648 2.45392,-11.08639 3.78636,-11.64978 0.0236,-0.01 0.0413,-0.0272 0.0639,-0.0388 1.74237,0.3549 7.01886,1.85597 10.87084,7.46019 -0.69991,1.55681 -4.47287,9.12531 -11.21268,8.18022 m -3.50839,-29.29855 c 0.31045,-2.37172 1.45803,-3.66395 3.50838,-3.95181 6.73981,-0.94933 10.51383,6.62657 11.21268,8.18056 -3.85233,5.60388 -9.12847,7.10495 -10.87084,7.45984 -0.0226,-0.0113 -0.0402,-0.0289 -0.0639,-0.0388 -1.33244,-0.56339 -4.4136,-6.86329 -3.78636,-11.64978 m 67.589754,-0.28857 c -0.43921,-3.35422 -2.35832,-5.43666 -5.40314,-5.86423 -7.94279,-1.11584 -12.25586,6.69008 -13.40097,9.13906 H 73.110196 c -1.14511,-2.44898 -5.44971,-10.25454 -13.40132,-9.13906 -3.04518,0.42757 -4.96429,2.51001 -5.40349,5.86423 -0.58103,4.43759 1.5367,10.4588 3.8047,12.96176 -2.268,2.50331 -4.38573,8.52452 -3.8047,12.96211 0.4392,3.35421 2.35831,5.43701 5.40349,5.86423 7.9435,1.1176 12.2555,-6.68973 13.40132,-9.13906 h 32.184984 c 1.06962,2.28741 4.89726,9.24842 11.87415,9.24771 0.49247,0 1.00259,-0.0349 1.52682,-0.10865 3.04482,-0.42722 4.96393,-2.51002 5.40314,-5.86423 0.58103,-4.43759 -1.53635,-10.4588 -3.80435,-12.96211 2.268,-2.50296 4.38538,-8.52417 3.80435,-12.96176"
       style="display:inline;fill:#2a190b;fill-opacity:1;fill-rule:nonzero;stroke:none;stroke-width:0.35277775"
       id="path1442"
       inkscape:connector-curvature="0" />
    <path
       d="m 105.74298,121.24164 c -1.04351,0 -1.88912,0.84561 -1.88912,1.88912 0,1.04352 0.84561,1.88913 1.88912,1.88913 1.04316,0 1.88913,-0.84561 1.88913,-1.88913 0,-1.04351 -0.84597,-1.88912 -1.88913,-1.88912"
       style="display:inline;fill:#2a190b;fill-opacity:1;fill-rule:nonzero;stroke:none;stroke-width:0.35277775"
       id="path1446"
       inkscape:connector-curvature="0" />
    <path
       d="m 115.64282,118.15861 c -1.64395,-0.59338 -3.07164,-1.5621 -4.25874,-2.84092 -0.58525,-0.63042 -1.52647,0.31432 -0.94297,0.94297 1.3469,1.45133 2.98662,2.51249 4.84681,3.18382 0.80892,0.29175 1.15711,-0.99624 0.3549,-1.28587"
       style="display:inline;fill:#2a190b;fill-opacity:1;fill-rule:nonzero;stroke:none;stroke-width:0.35277775"
       id="path1450"
       inkscape:connector-curvature="0" />
    <path
       d="m 116.46723,127.07605 c 0.85831,0 0.85972,-1.3335 0,-1.3335 -0.85831,0 -0.85972,1.3335 0,1.3335"
       style="display:inline;fill:#2a190b;fill-opacity:1;fill-rule:nonzero;stroke:none;stroke-width:0.35277775"
       id="path1458"
       inkscape:connector-curvature="0" />
    <path
       d="m 113.95644,127.0969 c -1.44886,0.70909 -2.74884,1.66335 -3.8668,2.82681 -0.59443,0.61913 0.34714,1.56316 0.94333,0.94298 1.04528,-1.08832 2.24155,-1.9551 3.59657,-2.61832 0.77117,-0.37712 0.096,-1.52753 -0.6731,-1.15147"
       style="display:inline;fill:#2a190b;fill-opacity:1;fill-rule:nonzero;stroke:none;stroke-width:0.35277775"
       id="path1462"
       inkscape:connector-curvature="0" />
    <path
       d="m 119.57884,137.30044 c 0.85831,0 0.85972,-1.33386 0,-1.33386 -0.85796,0 -0.85937,1.33386 0,1.33386"
       style="display:inline;fill:#2a190b;fill-opacity:1;fill-rule:nonzero;stroke:none;stroke-width:0.35277775"
       id="path1466"
       inkscape:connector-curvature="0" />
    <path
       d="m 116.46723,137.30044 c -0.85831,0 -0.85972,1.3335 0,1.3335 0.85831,0 0.85972,-1.3335 0,-1.3335"
       style="display:inline;fill:#2a190b;fill-opacity:1;fill-rule:nonzero;stroke:none;stroke-width:0.35277775"
       id="path1470"
       inkscape:connector-curvature="0" />
    <path
       d="m 119.06036,107.96114 c -0.85831,0 -0.85972,1.3335 0,1.3335 0.85831,0 0.85972,-1.3335 0,-1.3335"
       style="display:inline;fill:#2a190b;fill-opacity:1;fill-rule:nonzero;stroke:none;stroke-width:0.35277775"
       id="path1478"
       inkscape:connector-curvature="0" />
    <path
       d="m 116.54132,107.88706 c -0.85831,0 -0.85973,1.3335 0,1.3335 0.8583,0 0.85971,-1.3335 0,-1.3335"
       style="display:inline;fill:#2a190b;fill-opacity:1;fill-rule:nonzero;stroke:none;stroke-width:0.35277775"
       id="path1482"
       inkscape:connector-curvature="0" />
    <path
       d="m 118.83814,110.40611 c -0.85831,0 -0.85972,1.3335 0,1.3335 0.85831,0 0.85972,-1.3335 0,-1.3335"
       style="display:inline;fill:#2a190b;fill-opacity:1;fill-rule:nonzero;stroke:none;stroke-width:0.35277775"
       id="path1486"
       inkscape:connector-curvature="0" />
    <path
       d="m 72.662126,121.24164 c -1.04317,0 -1.88878,0.84561 -1.88878,1.88912 0,1.04352 0.84561,1.88913 1.88878,1.88913 1.04351,0 1.88912,-0.84561 1.88912,-1.88913 0,-1.04351 -0.84561,-1.88912 -1.88912,-1.88912"
       style="display:inline;fill:#2a190b;fill-opacity:1;fill-rule:nonzero;stroke:none;stroke-width:0.35277775"
       id="path1490"
       inkscape:connector-curvature="0" />
    <path
       d="m 63.117176,126.81715 c -0.80892,-0.2921 -1.15711,0.99624 -0.35454,1.28587 1.64359,0.59338 3.07163,1.56175 4.25873,2.84092 0.58526,0.63042 1.52682,-0.31432 0.94297,-0.94297 -1.34725,-1.45168 -2.98661,-2.51248 -4.84716,-3.18382"
       style="display:inline;fill:#2a190b;fill-opacity:1;fill-rule:nonzero;stroke:none;stroke-width:0.35277775"
       id="path1494"
       inkscape:connector-curvature="0" />
    <path
       d="m 61.048716,125.96466 c -0.85796,0 -0.85937,1.3335 0,1.3335 0.85831,0 0.85972,-1.3335 0,-1.3335"
       style="display:inline;fill:#2a190b;fill-opacity:1;fill-rule:nonzero;stroke:none;stroke-width:0.35277775"
       id="path1498"
       inkscape:connector-curvature="0" />
    <path
       d="m 61.937896,119.1854 c -0.85831,0 -0.85972,1.3335 0,1.3335 0.85831,0 0.85972,-1.3335 0,-1.3335"
       style="display:inline;fill:#2a190b;fill-opacity:1;fill-rule:nonzero;stroke:none;stroke-width:0.35277775"
       id="path1502"
       inkscape:connector-curvature="0" />
    <path
       d="m 64.448686,119.16476 c 1.44921,-0.70908 2.7492,-1.66334 3.8668,-2.8268 0.59443,-0.61913 -0.34713,-1.56352 -0.94297,-0.94298 -1.04564,1.08832 -2.24155,1.9551 -3.59693,2.61832 -0.77082,0.37712 -0.0959,1.52753 0.6731,1.15146"
       style="display:inline;fill:#2a190b;fill-opacity:1;fill-rule:nonzero;stroke:none;stroke-width:0.35277775"
       id="path1506"
       inkscape:connector-curvature="0" />
    <path
       d="m 58.826296,108.96123 c -0.85831,0 -0.85972,1.3335 0,1.3335 0.85831,0 0.85972,-1.3335 0,-1.3335"
       style="display:inline;fill:#2a190b;fill-opacity:1;fill-rule:nonzero;stroke:none;stroke-width:0.35277775"
       id="path1510"
       inkscape:connector-curvature="0" />
    <path
       d="m 61.937896,108.96123 c 0.85831,0 0.85972,-1.3335 0,-1.3335 -0.85831,0 -0.85972,1.3335 0,1.3335"
       style="display:inline;fill:#2a190b;fill-opacity:1;fill-rule:nonzero;stroke:none;stroke-width:0.35277775"
       id="path1514"
       inkscape:connector-curvature="0" />
    <path
       d="m 61.048716,111.33197 c 0.85831,0 0.85972,-1.3335 0,-1.3335 -0.85796,0 -0.85937,1.3335 0,1.3335"
       style="display:inline;fill:#2a190b;fill-opacity:1;fill-rule:nonzero;stroke:none;stroke-width:0.35277775"
       id="path1518"
       inkscape:connector-curvature="0" />
    <path
       d="m 59.344766,136.96678 c -0.8583,0 -0.85971,1.3335 0,1.3335 0.85831,0 0.85972,-1.3335 0,-1.3335"
       style="display:inline;fill:#2a190b;fill-opacity:1;fill-rule:nonzero;stroke:none;stroke-width:0.35277775"
       id="path1522"
       inkscape:connector-curvature="0" />
    <path
       d="m 61.863816,137.04083 c -0.85831,0 -0.85972,1.3335 0,1.3335 0.85831,0 0.85972,-1.3335 0,-1.3335"
       style="display:inline;fill:#2a190b;fill-opacity:1;fill-rule:nonzero;stroke:none;stroke-width:0.35277775"
       id="path1526"
       inkscape:connector-curvature="0" />
  </g>
  <text
     xml:space="preserve"
     style="font-style:normal;font-variant:normal;font-weight:800;font-stretch:normal;font-size:11.28888893px;line-height:1.25;font-family:Raleway;-inkscape-font-specification:'Raleway, Ultra-Bold';font-variant-ligatures:normal;font-variant-caps:normal;font-variant-numeric:normal;font-feature-settings:normal;text-align:start;letter-spacing:0px;word-spacing:0px;writing-mode:lr-tb;text-anchor:start;fill:#ffffff;fill-opacity:1;stroke:none;stroke-width:0.26458332"
     x="18.094404"
     y="23.113134"
     id="text2963"><tspan
       sodipodi:role="line"
       id="tspan2961"
       x="18.094404"
       y="23.113134"
       style="font-style:normal;font-variant:normal;font-weight:800;font-stretch:normal;font-size:11.28888893px;font-family:Raleway;-inkscape-font-specification:'Raleway, Ultra-Bold';font-variant-ligatures:normal;font-variant-caps:normal;font-variant-numeric:normal;font-feature-settings:normal;text-align:start;writing-mode:lr-tb;text-anchor:start;fill:#ffffff;stroke-width:0.26458332">MENU</tspan></text>
</svg>
