<?xml version="1.0" encoding="UTF-8" standalone="no"?>
<!-- Created with Inkscape (http://www.inkscape.org/) -->

<svg
   xmlns:dc="http://purl.org/dc/elements/1.1/"
   xmlns:cc="http://creativecommons.org/ns#"
   xmlns:rdf="http://www.w3.org/1999/02/22-rdf-syntax-ns#"
   xmlns:svg="http://www.w3.org/2000/svg"
   xmlns="http://www.w3.org/2000/svg"
   xmlns:sodipodi="http://sodipodi.sourceforge.net/DTD/sodipodi-0.dtd"
   xmlns:inkscape="http://www.inkscape.org/namespaces/inkscape"
   width="71.609482mm"
   height="61.423019mm"
   viewBox="0 0 71.609482 61.423019"
   version="1.1"
   id="svg8492"
   inkscape:version="0.92.3 (unknown)"
   sodipodi:docname="dogbrush.svg">
  <defs
     id="defs8486" />
  <sodipodi:namedview
     id="base"
     pagecolor="#ffffff"
     bordercolor="#666666"
     borderopacity="1.0"
     inkscape:pageopacity="0.0"
     inkscape:pageshadow="2"
     inkscape:zoom="0.35"
     inkscape:cx="402.46784"
     inkscape:cy="441.78928"
     inkscape:document-units="mm"
     inkscape:current-layer="layer1"
     showgrid="false"
     inkscape:window-width="1366"
     inkscape:window-height="705"
     inkscape:window-x="0"
     inkscape:window-y="30"
     inkscape:window-maximized="1" />
  <metadata
     id="metadata8489">
    <rdf:RDF>
      <cc:Work
         rdf:about="">
        <dc:format>image/svg+xml</dc:format>
        <dc:type
           rdf:resource="http://purl.org/dc/dcmitype/StillImage" />
        <dc:title></dc:title>
      </cc:Work>
    </rdf:RDF>
  </metadata>
  <g
     inkscape:label="Layer 1"
     inkscape:groupmode="layer"
     id="layer1"
     transform="translate(121.22735,-204.30039)">
    <g
       transform="matrix(0.26458333,0,0,0.26458333,-163.58053,24.846751)"
       id="g8445"
       style="display:inline">
      <path
         d="m 334.9,825.4 18.8,18.8 -0.6,1.4 c -0.4,0.9 -0.7,1.9 -0.9,3 l -0.5,1.7 h -12 l -19,-19 3.4,-1.2 c 3.2,-0.9 6.4,-2.2 9.3,-3.8 z M 209.6,720.1 187.7,698.2 c -2.8,-2.7 -2.8,-7.3 0,-10 2.7,-2.7 7.2,-2.7 10,0 l 20.2,20.3 -1.3,1.5 c -2.1,2.5 -3.9,5 -5.6,7.7 z m 162.9,-11.5 20.3,-20.3 c 2.7,-2.7 7.3,-2.7 10,0 2.7,2.7 2.7,7.3 0,10 l -21.8,21.8 -1.5,-2.4 c -1.7,-2.7 -3.5,-5.2 -5.6,-7.7 z m -102.6,122.6 -19.1,19 h -11.9 l -0.5,-1.7 c -0.2,-1.1 -0.6,-2 -0.9,-3 l -0.6,-1.4 18.8,-18.8 1.4,0.8 c 3.1,1.5 6.1,2.8 9.3,3.8 z"
         id="path8411"
         inkscape:connector-curvature="0"
         style="clip-rule:evenodd;fill:#55c5cf;fill-rule:evenodd" />
      <path
         d="m 194,686.4 c 0.4,8.1 2.4,20.4 11,26 1.5,1.1 3.4,3.3 5.4,6.6 l -0.8,1.2 -21.9,-21.9 c -2.8,-2.7 -2.8,-7.3 0,-10 1.7,-1.7 4.1,-2.4 6.3,-1.9 z m 64.4,140.4 -17.4,23.4 -2.4,-0.7 -0.2,-0.9 c -0.2,-1.1 -0.6,-2 -0.9,-3 l -0.6,-1.4 18.8,-18.8 1.4,0.8 c 0.4,0.3 0.8,0.4 1.3,0.6 z"
         id="path8413"
         inkscape:connector-curvature="0"
         style="clip-rule:evenodd;fill:#ffffff;fill-rule:evenodd" />
      <path
         d="m 250.8,742.2 h -6.4 c -4.3,8.5 -10,22.7 -21.7,15.9 -11.2,-6.5 -16.5,-20.7 -9.9,-32.2 8.5,-14.9 20.3,-29.3 39.1,-18.4 3,1.7 6.5,4.1 8.3,7.2 h 6.1 l -0.5,-1.4 1.4,-0.9 c 8.4,-5.6 18,-8.7 28,-8.7 10.2,0 19.7,3.2 28.1,8.7 l 1.3,0.9 -0.4,1.4 h 6 c 1.8,-3.1 5.3,-5.6 8.3,-7.2 18.9,-10.9 30.6,3.5 39.2,18.4 6.6,11.6 1.2,25.7 -9.9,32.2 -11.7,6.7 -17.5,-7.4 -21.7,-15.9 h -6.4 c 0.8,1.7 1.7,3.3 2.5,5 2.6,5.2 5.7,11.3 10.3,15 l 0.7,0.5 0.2,0.9 c 0.6,4.1 0.8,8.4 0.8,12.5 0,35.3 -20.6,50.8 -53.9,52.2 l -2.4,0.1 v -23.3 l 1.4,-0.6 c 2.1,-0.9 4.1,-2.8 4.1,-5.3 0,-0.2 0,-1.4 -0.2,-1.7 -0.6,-0.6 -7.2,-0.5 -8.2,-0.5 -0.8,0 -7.6,-0.1 -8.1,0.5 -0.1,0.2 -0.1,1.4 -0.1,1.7 0,2.5 2,4.4 4.1,5.3 l 1.3,0.6 v 23.3 l -2.2,-0.1 c -33.4,-1.4 -53.9,-16.9 -53.9,-52.2 0,-4.1 0.2,-8.4 0.8,-12.5 l 0.1,-0.9 0.7,-0.5 c 4.7,-3.7 7.7,-9.8 10.3,-15 1,-1.7 1.9,-3.3 2.8,-5 z"
         id="path8415"
         inkscape:connector-curvature="0"
         style="clip-rule:evenodd;fill:#cb6d38;fill-rule:evenodd" />
      <path
         d="m 216.6,753.2 c -3.3,-3.5 -5.6,-7.9 -6.4,-12.6 -0.1,-1.8 -0.2,-3.5 -0.2,-5.4 0.2,-3.1 1.1,-6.3 2.8,-9.2 8.5,-14.9 20.3,-29.3 39.1,-18.4 1.5,0.8 3.2,1.9 4.6,3.1 -4.8,-3.7 -18.2,-4.1 -27.9,6.4 -11.9,12.9 -14.4,22.5 -12,36.1 z m 38,64.9 c -11.8,-8.3 -18.3,-22 -18.3,-41.9 0,-4.1 0.2,-8.4 0.8,-12.5 l 0.1,-0.9 0.7,-0.5 c 2.5,-2 4.6,-4.7 6.3,-7.6 0,-0.1 -3.8,52.4 10.4,63.4 z"
         id="path8417"
         inkscape:connector-curvature="0"
         style="clip-rule:evenodd;fill:#ffffff;fill-rule:evenodd" />
      <path
         d="m 389.7,869 c 4.1,3.5 6.7,8.7 6.7,14.4 0,10.7 -9.1,19.1 -19.7,19.1 -10.7,0 -19.7,-8.4 -19.7,-19.1 0,-1.9 0.2,-3.7 0.8,-5.4 h -5.9 c -0.1,0.7 -0.2,1.4 -0.4,2.1 l -0.2,2 H 239.2 l -0.2,-2 c -0.1,-0.7 -0.2,-1.4 -0.5,-2.1 h -5.8 c 0.5,1.8 0.8,3.5 0.8,5.4 0,10.7 -9.1,19.1 -19.7,19.1 -10.6,0 -19.7,-8.4 -19.7,-19.1 0,-5.7 2.5,-10.9 6.6,-14.4 -4.1,-3.5 -6.6,-8.7 -6.6,-14.4 0,-10.7 9.1,-19.1 19.7,-19.1 10.6,0 19.7,8.4 19.7,19.1 0,1.9 -0.4,3.7 -0.8,5.4 h 5.8 c 0.2,-0.7 0.4,-1.4 0.5,-2.1 l 0.2,-2 h 112.1 l 0.2,2 c 0.1,0.7 0.2,1.4 0.4,2.1 h 5.9 c -0.6,-1.8 -0.8,-3.5 -0.8,-5.4 0,-10.7 9,-19.1 19.7,-19.1 10.6,0 19.7,8.4 19.7,19.1 0,5.6 -2.6,10.8 -6.7,14.4 z"
         id="path8419"
         inkscape:connector-curvature="0"
         style="clip-rule:evenodd;fill:#fefad7;fill-rule:evenodd" />
      <rect
         x="235.10001"
         y="847.90002"
         width="120.2"
         height="10.2"
         id="rect8421"
         style="clip-rule:evenodd;fill:#3c2415;fill-rule:evenodd" />
      <rect
         x="235.10001"
         y="879.79999"
         width="120.2"
         height="10.2"
         id="rect8423"
         style="clip-rule:evenodd;fill:#3c2415;fill-rule:evenodd" />
      <path
         d="m 190.5,869 c -2.7,-4.3 -4.3,-9.2 -4.3,-14.4 0,-15.1 12.6,-27 27.6,-27 15,0 27.5,11.9 27.5,27 0,2.6 -0.4,5.2 -1.1,7.7 h -10.9 c 1.2,-2.4 1.9,-5 1.9,-7.7 0,-9.3 -7.9,-16.9 -17.5,-16.9 -9.7,0 -17.5,7.6 -17.5,16.9 0,6.1 3.3,11.5 8.3,14.4 -5,3 -8.3,8.3 -8.3,14.4 0,9.3 7.8,16.9 17.5,16.9 9.6,0 17.5,-7.6 17.5,-16.9 0,-2.8 -0.7,-5.4 -1.9,-7.7 h 10.9 c 0.7,2.5 1.1,5 1.1,7.7 0,15.1 -12.5,27 -27.5,27 -15,0 -27.6,-11.9 -27.6,-27 0,-5.2 1.5,-10.2 4.3,-14.4 z"
         id="path8425"
         inkscape:connector-curvature="0"
         style="clip-rule:evenodd;fill:#3c2415;fill-rule:evenodd" />
      <path
         d="m 400.1,869 c 2.7,-4.3 4.1,-9.2 4.1,-14.4 0,-15.1 -12.5,-27 -27.5,-27 -15,0 -27.6,11.9 -27.6,27 0,2.6 0.4,5.2 1.2,7.7 h 10.9 c -1.2,-2.4 -1.9,-5 -1.9,-7.7 0,-9.3 7.8,-16.9 17.5,-16.9 9.6,0 17.4,7.6 17.4,16.9 0,6.1 -3.2,11.5 -8.1,14.4 5,3 8.1,8.3 8.1,14.4 0,9.3 -7.8,16.9 -17.4,16.9 -9.7,0 -17.5,-7.6 -17.5,-16.9 0,-2.8 0.7,-5.4 1.9,-7.7 h -10.9 c -0.8,2.5 -1.2,5 -1.2,7.7 0,15.1 12.6,27 27.6,27 15,0 27.5,-11.9 27.5,-27 0,-5.2 -1.4,-10.2 -4.1,-14.4 z"
         id="path8427"
         inkscape:connector-curvature="0"
         style="clip-rule:evenodd;fill:#3c2415;fill-rule:evenodd" />
      <path
         d="m 362.3,841.7 -23.6,-23.6 c -1.4,1.5 -2.8,2.5 -4.8,3.1 -0.9,0.6 -1.9,0.9 -3,1.2 -0.4,0.4 -0.8,0.7 -1.2,1.1 l 27,27 c 0.2,-3.9 2.4,-7.2 5.6,-8.8 z M 347.5,855 319.6,827 h -12.9 c -0.4,0.1 -0.8,0.2 -1.3,0.2 l 29.6,29.6 c 3.2,-2.4 7.1,-2.1 10.7,-1.4 0.8,-0.1 1.3,-0.2 1.8,-0.4 z m 17.8,-144.4 c 1.7,0.6 3,0.6 4.7,1.7 0.4,0.2 0.9,0.2 1.5,0.5 L 394.3,690 c 1.9,-1.9 5,-1.9 6.9,0 1.9,1.8 1.9,5 0,6.7 l -22,22.1 c 1.2,1.2 2.5,3.3 3,4.8 0.6,1.7 1.2,3.4 1.3,5.2 l 0.2,-0.1 19.8,19.8 c 1.9,1.9 5,1.9 6.9,0 1.9,-1.9 1.9,-5 0,-6.9 l -19.8,-19.8 2.4,-2.5 20,19.8 c 1.9,1.9 5,1.9 6.9,0 1.9,-1.9 1.9,-5 0,-6.9 l -20,-19.8 2.5,-2.5 20,20 c 1.9,1.9 5,1.9 6.9,0 1.9,-1.9 1.9,-5 0,-6.9 l -20,-20 c 5.1,-5.9 4.8,-14.9 -0.7,-20.4 -5.8,-5.8 -15.4,-5.8 -21.1,0 l -25.6,25.6 c 0.7,0.5 1.4,1.1 2.2,1.5 0.2,0.4 0.7,0.6 1.2,0.9 z m 17.1,29.9 c -0.2,0.8 -0.6,1.5 -0.9,2.2 -0.1,0.6 -0.4,1.2 -0.6,1.7 l 13.5,13.5 c 1.8,1.9 5,1.9 6.9,0 1.8,-1.9 1.8,-5 0,-6.9 l -17.7,-17.6 c -0.1,2.6 0.1,4.6 -1.2,7.1 z m -6.3,13.2 c -0.8,0.7 -1.5,1.5 -2.4,2.1 l 11.2,11.3 c 1.9,1.8 5,1.8 6.9,0 1.9,-1.9 1.9,-5 0,-6.9 L 379.6,748 c -0.5,2 -2.1,4.2 -3.5,5.7 z m -10.8,6.1 c -0.5,0.1 -0.9,0.2 -1.3,0.4 -0.7,0.4 -1.5,0.6 -2.2,0.7 -0.1,0 -0.7,0.5 -0.9,0.6 l 14.9,14.9 c 1.9,1.9 5,1.9 6.9,0 1.9,-1.9 1.9,-5 0,-6.9 L 371,757.8 c -2,1 -3.8,1.8 -5.7,2 z m -9.3,5.1 0.7,-0.4 c -0.5,0.5 -0.9,0.8 -1.4,1.3 1.1,2.2 1.4,5.6 0.8,7.9 l -0.4,1.3 10.5,10.6 c 1.9,1.9 5,1.9 6.9,0 1.9,-1.9 1.9,-5 0,-6.9 L 358,763.5 c -0.7,0.6 -1.4,1.1 -2,1.4 z m -83.9,61 -28.3,28.3 c 1.7,0.1 3.1,0.6 4.5,1.5 -0.8,-0.2 0.5,0.1 0.6,0.1 h -0.4 c 0.8,0 1.5,0.1 2.4,0.4 1.4,0 2.8,0.4 4,0.8 h 0.4 l 28.8,-28.8 h -3.3 c -3.5,0 -5.9,0 -8.7,-2.3 z m -37.1,23.3 26,-26 c -1.5,0 -3,0 -4.5,-0.4 -2.6,0 -5,-1.1 -6.9,-2.7 l -19.7,19.7 c 3.3,2 5.3,5.7 5.1,9.4 z m 0.6,-88.7 -18.3,18.3 c -1.9,1.9 -1.9,5 0,6.9 1.9,1.9 5,1.9 6.9,0 l 12.3,-12.3 c -0.5,-1.4 -0.8,-2.5 -0.8,-4 v -8.9 z m -5.1,-0.7 c -2,0 -4,0.2 -6,-0.4 -1.5,-0.1 -3.3,-0.8 -4.6,-1.8 L 208,769.4 c -1.8,1.9 -1.9,5 0,6.9 1.9,1.9 5,1.9 6.9,0 l 16.7,-16.5 c -0.5,0 -0.9,0 -1.1,0 z m -16,-6.7 c -1.4,-1.4 -2.4,-2.6 -3.1,-4.4 l -0.5,-0.8 -12.3,12.4 c -1.9,1.9 -1.9,5 0,6.9 1.9,1.8 5,1.8 6.9,0 L 217,755.6 c -0.8,-0.7 -1.6,-1.7 -2.5,-2.5 z m -4.7,-18.7 c 0,-0.9 0.1,-1.8 0.2,-2.5 0.1,-0.7 0.2,-1.3 0.4,-2 0.2,-1.7 0.9,-3.3 1.9,-4.6 v 0 c 0.4,-1.3 1.1,-2.5 1.9,-3.5 l 0.1,-0.1 -25,-25 c -1.9,-1.8 -1.9,-5 0,-6.7 1.9,-1.9 5,-1.9 6.9,0 l 23.4,23.3 c 0.1,-0.2 0.4,-0.5 0.5,-0.7 1.4,-2.6 4.4,-5.2 7.2,-5.9 l -23.9,-23.9 c -5.9,-5.9 -15.4,-5.8 -21.3,0 -5.6,5.6 -5.8,14.5 -0.6,20.4 l -20,20 c -1.9,1.9 -1.9,5 0,6.9 1.9,1.9 5,1.9 6.9,0 l 19.8,-20 2.5,2.5 -19.8,19.8 c -1.9,1.9 -1.9,5 0,6.9 1.9,1.9 5,1.9 6.9,0 l 19.8,-19.8 2.5,2.5 -20,19.8 c -1.9,1.9 -1.9,5 0,6.9 1.9,1.9 5,1.9 6.9,0 l 20,-19.8 2.5,2.4 -20,20 c -1.9,1.9 -1.9,5 0,6.9 1.9,1.9 5,1.9 6.9,0 l 13.5,-13.5 c -0.1,-0.6 -0.2,-1.3 -0.2,-2 v -5.6 c -0.2,-1.1 -0.1,-2 0.1,-2.7 z"
         id="path8429"
         inkscape:connector-curvature="0"
         style="clip-rule:evenodd;fill:#3c2415;fill-rule:evenodd" />
      <path
         d="m 295.2,695.7 c 13.3,0 26,4.7 36.4,12.8 -2.2,1.8 -3.5,4.3 -3.9,7 h -3.9 c -8.4,-6 -18.2,-9.6 -28.6,-9.6 -10.4,0 -20.2,3.5 -28.6,9.6 h -2.5 c -0.6,-3 -2.5,-5.6 -5.2,-7 10.5,-8.1 23.2,-12.8 36.3,-12.8 z m 65.9,66.7 c 0.7,4.5 1.1,9.1 1.1,13.7 0,42.6 -27.4,60.1 -67,60.1 -39.6,0 -66.9,-17.5 -66.9,-60.1 0,-4.6 0.4,-9.2 0.9,-13.7 h 10.3 c -0.7,4.4 -1.1,9 -1.1,13.7 0,38.7 25.4,50.1 56.7,50.1 31.4,0 56.8,-11.3 56.8,-50.1 0,-4.7 -0.4,-9.3 -1.1,-13.7 z"
         id="path8431"
         inkscape:connector-curvature="0"
         style="clip-rule:evenodd;fill:#3c2415;fill-rule:evenodd" />
      <path
         d="m 255.9,700.7 c 6.3,3.7 12.3,9 13.2,16.3 h -10.4 c -0.8,-2.4 -3.2,-4.8 -7.9,-7.6 -19.3,-11.1 -30.4,7.8 -36,17.6 -5.8,9.9 -1.7,23 9,29.2 9.8,5.7 14.3,-6.5 19.3,-16.2 h 12.2 c -0.7,0.8 -1.4,1.5 -1.9,2.4 -1.1,1.9 -2,3.9 -3.1,5.9 -3.7,7.4 -8.1,16.2 -16.8,18.8 -5.1,1.5 -10.2,0.5 -14.6,-2.1 -15,-8.6 -21.7,-27.6 -12.9,-43 3.1,-5.3 6.3,-10.4 10.5,-14.9 10.8,-11.9 25.1,-14.7 39.4,-6.4 z"
         id="path8433"
         inkscape:connector-curvature="0"
         style="clip-rule:evenodd;fill:#3c2415;fill-rule:evenodd" />
      <path
         d="m 334.7,700.7 c -6.4,3.7 -12.4,9 -13.2,16.3 h 10.4 c 0.7,-2.4 3.1,-4.8 7.9,-7.6 19.3,-11.1 30.4,7.8 36,17.6 5.7,9.9 1.7,23 -9.1,29.2 -9.8,5.7 -14.2,-6.5 -19.3,-16.2 h -12 c 0.7,0.8 1.4,1.5 1.8,2.4 1.2,1.9 2.1,3.9 3.1,5.9 3.8,7.4 8.1,16.2 16.9,18.8 5.1,1.5 10.2,0.5 14.6,-2.1 15,-8.6 21.6,-27.6 12.8,-43 -3.1,-5.3 -6.3,-10.4 -10.4,-14.9 -11.1,-11.9 -25.2,-14.7 -39.5,-6.4 z"
         id="path8435"
         inkscape:connector-curvature="0"
         style="clip-rule:evenodd;fill:#3c2415;fill-rule:evenodd" />
      <path
         d="m 305.9,799.3 c 0,4.6 -4.7,8.4 -10.6,8.4 -5.8,0 -10.5,-3.8 -10.5,-8.4 0,-4.6 1.9,-4.4 10.5,-4.4 8.5,0 10.6,-0.2 10.6,4.4 z"
         id="path8437"
         inkscape:connector-curvature="0"
         style="clip-rule:evenodd;fill:#3c2415;fill-rule:evenodd" />
      <path
         d="m 265.6,758.3 c 2.8,0 5.1,2.2 5.1,5.1 0,2.8 -2.2,5.1 -5.1,5.1 -2.7,0 -5.1,-2.2 -5.1,-5.1 0,-2.9 2.4,-5.1 5.1,-5.1 z"
         id="path8439"
         inkscape:connector-curvature="0"
         style="clip-rule:evenodd;fill:#3c2415;fill-rule:evenodd" />
      <path
         d="m 324.9,758.3 c 2.8,0 5.1,2.2 5.1,5.1 0,2.8 -2.2,5.1 -5.1,5.1 -2.7,0 -5.1,-2.2 -5.1,-5.1 0,-2.9 2.4,-5.1 5.1,-5.1 z"
         id="path8441"
         inkscape:connector-curvature="0"
         style="clip-rule:evenodd;fill:#3c2415;fill-rule:evenodd" />
      <rect
         x="290.10001"
         y="803.79999"
         width="10.2"
         height="28.9"
         id="rect8443"
         style="clip-rule:evenodd;fill:#3c2415;fill-rule:evenodd" />
    </g>
  </g>
</svg>
