<?xml version="1.0" encoding="UTF-8" standalone="no"?>
<!-- Created with Inkscape (http://www.inkscape.org/) -->

<svg
   xmlns:dc="http://purl.org/dc/elements/1.1/"
   xmlns:cc="http://creativecommons.org/ns#"
   xmlns:rdf="http://www.w3.org/1999/02/22-rdf-syntax-ns#"
   xmlns:svg="http://www.w3.org/2000/svg"
   xmlns="http://www.w3.org/2000/svg"
   xmlns:xlink="http://www.w3.org/1999/xlink"
   xmlns:sodipodi="http://sodipodi.sourceforge.net/DTD/sodipodi-0.dtd"
   xmlns:inkscape="http://www.inkscape.org/namespaces/inkscape"
   width="123.11944mm"
   height="345.7222mm"
   viewBox="0 0 123.11944 345.7222"
   version="1.1"
   id="svg2225"
   sodipodi:docname="dogbg1.svg"
   inkscape:version="0.92.3 (unknown)">
  <defs
     id="defs2219">
    <pattern
       patternTransform="matrix(0.35277776,0,0,-0.35277776,-123.39662,0.16270049)"
       id="pattern2217"
       xlink:href="#pattern1283"
       inkscape:collect="always" />
    <pattern
       patternTransform="translate(0,980)"
       patternUnits="userSpaceOnUse"
       x="0"
       y="0"
       width="174"
       height="153"
       id="pattern1283">
      <g
         transform="translate(13.0508,104.1895)"
         id="g1217">
        <path
           d="m 0,0 c 0.843,-0.513 1.918,-0.677 2.904,-0.454 l 1.045,0.235 0.163,-1.058 c 0.2,-1.291 0.973,-2.433 2.123,-3.133 0.677,-0.413 1.431,-0.631 2.179,-0.631 1.446,0 2.791,0.789 3.596,2.111 0.999,1.64 0.569,3.995 -1.001,5.479 l -0.588,0.556 17.412,28.587 0.872,-0.603 c 0.195,-0.135 0.39,-0.263 0.556,-0.364 0.834,-0.509 1.638,-0.767 2.388,-0.767 1.533,0 2.495,1.051 3.032,1.933 0.605,0.992 0.837,1.922 0.691,2.763 -0.165,0.952 -0.826,1.787 -1.965,2.48 -1.23,0.75 -2.609,1.076 -3.865,0.926 l -0.946,-0.115 -0.161,0.939 c -0.178,1.038 -0.81,1.956 -1.736,2.52 -0.6,0.366 -1.281,0.559 -1.968,0.559 -1.228,0 -2.327,-0.601 -2.94,-1.609 -0.911,-1.495 -0.648,-3.296 0.639,-4.38 L 23.086,35.421 5.646,6.787 4.757,7.5 C 4.667,7.572 4.565,7.642 4.453,7.711 3.899,8.047 3.266,8.226 2.62,8.226 1.158,8.226 -0.29,7.341 -1.157,5.917 -2.434,3.82 -1.915,1.167 0,0"
           style="fill:#f7ecce;fill-opacity:1;fill-rule:nonzero;stroke:none"
           id="path1215" />
      </g>
      <g
         transform="translate(144.728,144.1992)"
         id="g1221">
        <path
           d="m 0,0 c -1.423,6.597 -21.741,8.434 -21.741,8.434 l 0.073,-0.199 c -1.854,0.116 -3.962,0.016 -6.356,-0.334 -0.549,-0.081 -1.111,-0.172 -1.689,-0.279 -0.889,-0.164 -1.715,-0.347 -2.514,-0.539 -2.895,-0.699 -5.218,-1.585 -7.056,-2.629 -2.655,-1.346 -17.847,-9.34 -16.914,-15.43 1.02,-6.671 6.009,-13.444 8.808,-13.967 1.743,-0.327 3.905,1.44 5.746,7.416 0.067,-0.139 0.134,-0.277 0.202,-0.416 0.253,-0.518 0.505,-1.016 0.758,-1.502 4.752,-9.132 9.67,-12.667 18.006,-11.132 8.176,1.507 11.233,5.857 12.723,16.122 0.064,0.444 0.126,0.9 0.184,1.365 3.05,-3.349 5.208,-3.9 6.516,-3.1 C -0.826,-14.703 1.423,-6.598 0,0 m -8.252,-97.053 c -1.228,2.016 -3.331,3.269 -5.485,3.269 -0.846,0 -1.678,-0.195 -2.434,-0.566 l -15.47,25.398 c 1.485,1.738 1.696,4.275 0.441,6.337 -0.98,1.608 -2.718,2.569 -4.649,2.569 -1.054,0 -2.094,-0.295 -3.008,-0.851 -1.155,-0.704 -2.015,-1.774 -2.443,-3.016 -1.451,-0.004 -2.926,-0.438 -4.265,-1.254 -1.653,-1.007 -2.627,-2.301 -2.895,-3.847 -0.231,-1.333 0.089,-2.728 0.953,-4.146 1.754,-2.879 4.884,-3.702 7.93,-1.974 l 15.513,-25.47 c -1.797,-2.141 -2.142,-5.126 -0.772,-7.376 1.171,-1.923 3.154,-3.071 5.304,-3.071 1.116,0 2.229,0.32 3.22,0.923 1.365,0.831 2.363,2.103 2.833,3.575 1.206,-0.072 2.396,0.222 3.402,0.835 2.856,1.74 3.675,5.627 1.825,8.665 m -95.26,12.507 c -1.838,1.044 -4.161,1.93 -7.056,2.629 -0.799,0.192 -1.625,0.375 -2.514,0.539 -0.578,0.107 -1.14,0.198 -1.689,0.279 -2.394,0.35 -4.501,0.45 -6.355,0.334 l 0.072,0.199 c 0,0 -20.318,-1.837 -21.741,-8.434 -1.423,-6.598 0.826,-14.703 3.254,-16.19 1.308,-0.8 3.466,-0.249 6.516,3.1 0.058,-0.465 0.12,-0.921 0.184,-1.365 1.49,-10.265 4.547,-14.615 12.723,-16.122 8.336,-1.535 13.254,2 18.006,11.132 0.253,0.486 0.506,0.984 0.758,1.502 0.068,0.139 0.135,0.277 0.202,0.416 1.841,-5.976 4.003,-7.743 5.746,-7.416 2.799,0.523 7.788,7.296 8.808,13.967 0.933,6.09 -14.259,14.084 -16.914,15.43 m -29.206,42.828 c 1.007,-0.613 2.197,-0.907 3.403,-0.835 0.469,-1.472 1.467,-2.744 2.832,-3.575 0.991,-0.603 2.104,-0.923 3.22,-0.923 2.15,0 4.133,1.148 5.304,3.071 1.37,2.25 1.025,5.235 -0.772,7.376 l 15.513,25.47 c 3.046,-1.728 6.176,-0.905 7.93,1.974 0.864,1.418 1.184,2.813 0.954,4.146 -0.269,1.546 -1.243,2.84 -2.895,3.847 -1.34,0.816 -2.814,1.25 -4.266,1.254 -0.428,1.242 -1.288,2.312 -2.443,3.016 -0.914,0.556 -1.954,0.851 -3.008,0.851 -1.931,0 -3.669,-0.961 -4.649,-2.569 -1.255,-2.062 -1.044,-4.599 0.441,-6.337 l -15.47,-25.398 c -0.756,0.371 -1.588,0.566 -2.434,0.566 -2.154,0 -4.256,-1.253 -5.484,-3.269 -1.851,-3.038 -1.032,-6.925 1.824,-8.665 m 161.99,-102.481 -174,0 0,153 174,0 0,-153 z"
           style="fill:#f7ecce;fill-opacity:1;fill-rule:nonzero;stroke:none"
           id="path1219" />
      </g>
      <g
         transform="translate(130.9907,48.415)"
         id="g1225">
        <path
           d="m 0,0 c -0.646,0 -1.28,-0.178 -1.833,-0.515 -0.113,-0.068 -0.215,-0.138 -0.305,-0.211 l -0.888,-0.713 -17.44,28.635 0.655,0.552 c 1.288,1.085 1.55,2.886 0.64,4.381 -0.614,1.007 -1.713,1.609 -2.94,1.609 -0.687,0 -1.368,-0.194 -1.969,-0.559 -0.925,-0.564 -1.558,-1.483 -1.735,-2.521 l -0.162,-0.939 -0.945,0.115 c -1.257,0.151 -2.635,-0.175 -3.866,-0.925 -1.138,-0.694 -1.799,-1.528 -1.964,-2.48 -0.146,-0.842 0.086,-1.772 0.69,-2.764 0.538,-0.881 1.499,-1.932 3.032,-1.932 0.751,0 1.554,0.258 2.388,0.766 0.167,0.102 0.361,0.229 0.557,0.364 l 0.872,0.603 17.411,-28.587 -0.588,-0.555 c -1.569,-1.484 -2,-3.84 -1.001,-5.479 0.806,-1.323 2.15,-2.112 3.597,-2.112 0.748,0 1.502,0.219 2.179,0.631 1.149,0.7 1.923,1.842 2.122,3.134 l 0.164,1.058 1.045,-0.236 c 0.985,-0.222 2.061,-0.059 2.904,0.454 1.914,1.167 2.433,3.821 1.157,5.917 C 2.909,-0.885 1.462,0 0,0"
           style="fill:#f7ecce;fill-opacity:1;fill-rule:nonzero;stroke:none"
           id="path1223" />
      </g>
      <g
         transform="translate(129.5811,136.355)"
         id="g1229">
        <path
           d="m 0,0 c -1.528,2.844 -7.008,1.799 -7.452,-1.373 -0.1,-0.713 1.011,-0.805 1.111,-0.097 0.288,2.06 4.348,2.826 5.338,0.984 C -0.665,-1.117 0.341,-0.636 0,0 m -4.21,-16.173 c -1.728,-1.08 -3.334,-0.928 -4.55,0.881 -0.26,0.385 -0.456,0.821 -0.61,1.279 1.866,0.636 2.931,3.269 2.793,4.012 -0.145,0.792 -1.962,1.12 -4.056,0.734 -2.095,-0.385 -3.675,-1.339 -3.529,-2.131 0.133,-0.719 1.945,-2.683 3.846,-2.748 0.031,-0.66 -0.042,-1.308 -0.275,-1.889 -0.745,-1.861 -1.876,-2.389 -3.79,-2.012 -0.424,0.084 -0.477,-0.585 -0.058,-0.668 1.946,-0.383 3.54,0.106 4.323,2.063 0.237,0.592 0.359,1.204 0.405,1.821 0.317,-0.667 0.737,-1.288 1.298,-1.828 1.393,-1.341 2.978,-1.067 4.496,-0.118 0.361,0.227 0.074,0.834 -0.293,0.604 m -12.609,13.075 c -1.528,2.844 -7.007,1.799 -7.452,-1.373 -0.1,-0.714 1.012,-0.805 1.111,-0.097 0.288,2.06 4.348,2.826 5.338,0.983 0.339,-0.63 1.345,-0.149 1.003,0.487 M 15.147,7.844 C 16.57,1.247 14.321,-6.859 11.893,-8.346 10.585,-9.146 8.427,-8.595 5.377,-5.246 5.319,-5.71 5.257,-6.167 5.193,-6.61 3.703,-16.876 0.646,-21.226 -7.53,-22.732 c -8.336,-1.536 -13.254,2 -18.006,11.131 -0.253,0.486 -0.506,0.984 -0.758,1.502 -0.068,0.14 -0.135,0.278 -0.202,0.416 -1.841,-5.976 -4.003,-7.742 -5.746,-7.416 -2.799,0.523 -7.788,7.296 -8.808,13.968 -0.933,6.089 14.259,14.083 16.914,15.429 1.838,1.044 4.161,1.93 7.056,2.629 0.799,0.192 1.625,0.376 2.514,0.539 0.578,0.107 1.14,0.199 1.689,0.279 2.394,0.35 4.502,0.45 6.356,0.335 l -0.073,0.198 c 0,0 20.318,-1.837 21.741,-8.434"
           style="fill:#75586e;fill-opacity:1;fill-rule:nonzero;stroke:none"
           id="path1227" />
      </g>
      <g
         transform="translate(105.3105,131.8843)"
         id="g1233">
        <path
           d="M 0,0 C -0.1,-0.714 1.011,-0.805 1.11,-0.097 1.398,1.962 5.459,2.729 6.448,0.886 6.787,0.256 7.793,0.737 7.452,1.373 5.924,4.217 0.444,3.172 0,0"
           style="fill:#ffffff;fill-opacity:1;fill-rule:nonzero;stroke:none"
           id="path1231" />
      </g>
      <g
         transform="translate(122.1294,134.9824)"
         id="g1237">
        <path
           d="M 0,0 C -0.101,-0.714 1.011,-0.805 1.11,-0.097 1.399,1.963 5.458,2.729 6.448,0.886 6.787,0.256 7.793,0.737 7.452,1.373 5.924,4.217 0.444,3.172 0,0"
           style="fill:#ffffff;fill-opacity:1;fill-rule:nonzero;stroke:none"
           id="path1235" />
      </g>
      <g
         transform="translate(118.4053,125.4688)"
         id="g1241">
        <path
           d="M 0,0 C -0.182,0.393 0.422,0.685 0.604,0.292 0.653,0.186 0.694,0.076 0.74,-0.033 0.745,0.085 0.743,0.202 0.751,0.319 0.781,0.75 1.449,0.693 1.419,0.261 1.344,-0.816 1.441,-2.042 1.806,-3.127 3.671,-2.491 4.736,0.142 4.599,0.885 4.454,1.677 2.637,2.005 0.542,1.62 -1.552,1.234 -3.132,0.28 -2.986,-0.512 -2.854,-1.231 -1.042,-3.194 0.86,-3.26 0.806,-2.121 0.437,-0.943 0,0"
           style="fill:#ffffff;fill-opacity:1;fill-rule:nonzero;stroke:none"
           id="path1239" />
      </g>
      <g
         transform="translate(119.1455,125.436)"
         id="g1245">
        <path
           d="m 0,0 c -0.046,0.108 -0.087,0.219 -0.137,0.325 -0.181,0.392 -0.785,0.1 -0.603,-0.292 0.436,-0.943 0.806,-2.121 0.86,-3.26 0.031,-0.66 -0.043,-1.308 -0.275,-1.889 -0.745,-1.862 -1.876,-2.389 -3.79,-2.012 -0.425,0.084 -0.477,-0.585 -0.058,-0.668 1.945,-0.383 3.539,0.106 4.322,2.063 0.238,0.592 0.36,1.204 0.406,1.821 C 0.157,-2.718 -0.051,-1.367 0,0"
           style="fill:#ffffff;fill-opacity:1;fill-rule:nonzero;stroke:none"
           id="path1243" />
      </g>
      <g
         transform="translate(125.3711,120.1816)"
         id="g1249">
        <path
           d="M 0,0 C -1.728,-1.08 -3.334,-0.927 -4.55,0.881 -4.81,1.266 -5.006,1.702 -5.16,2.16 -5.525,3.246 -5.622,4.471 -5.547,5.548 -5.517,5.98 -6.185,6.038 -6.215,5.606 -6.223,5.489 -6.221,5.372 -6.226,5.254 -6.277,3.888 -6.069,2.536 -5.501,1.342 -5.184,0.675 -4.764,0.055 -4.203,-0.485 -2.81,-1.827 -1.225,-1.552 0.292,-0.604 0.654,-0.377 0.367,0.23 0,0"
           style="fill:#ffffff;fill-opacity:1;fill-rule:nonzero;stroke:none"
           id="path1247" />
      </g>
      <g
         transform="translate(134.7676,46.106)"
         id="g1253">
        <path
           d="M 0,0 C -0.868,1.424 -2.315,2.309 -3.777,2.309 -4.423,2.309 -5.057,2.131 -5.61,1.794 -5.723,1.726 -5.825,1.656 -5.915,1.583 l -0.888,-0.713 -17.44,28.635 0.656,0.552 c 1.287,1.085 1.549,2.886 0.639,4.381 -0.614,1.007 -1.713,1.609 -2.94,1.609 -0.687,0 -1.368,-0.193 -1.968,-0.559 -0.926,-0.564 -1.559,-1.483 -1.736,-2.521 l -0.161,-0.939 -0.946,0.116 c -1.257,0.15 -2.635,-0.176 -3.865,-0.926 -1.139,-0.694 -1.8,-1.528 -1.965,-2.48 -0.146,-0.842 0.086,-1.772 0.691,-2.764 0.537,-0.881 1.499,-1.932 3.031,-1.932 0.751,0 1.555,0.258 2.389,0.766 0.166,0.102 0.36,0.229 0.556,0.364 l 0.872,0.603 17.411,-28.587 -0.588,-0.555 c -1.569,-1.484 -2,-3.84 -1,-5.479 0.805,-1.322 2.149,-2.112 3.596,-2.112 0.748,0 1.502,0.219 2.179,0.631 1.149,0.701 1.923,1.842 2.122,3.134 l 0.164,1.058 1.045,-0.236 C -3.076,-6.593 -2,-6.43 -1.157,-5.917 0.757,-4.75 1.276,-2.096 0,0 m 1.708,1.04 c 1.85,-3.038 1.032,-6.924 -1.825,-8.665 -1.006,-0.613 -2.196,-0.907 -3.402,-0.834 -0.47,-1.473 -1.468,-2.745 -2.833,-3.576 -0.99,-0.603 -2.104,-0.923 -3.219,-0.923 -2.15,0 -4.133,1.148 -5.304,3.071 -1.371,2.25 -1.025,5.236 0.771,7.376 l -15.513,25.47 c -3.046,-1.728 -6.176,-0.904 -7.929,1.975 -0.864,1.418 -1.185,2.813 -0.954,4.146 0.268,1.545 1.242,2.839 2.895,3.846 1.339,0.816 2.814,1.25 4.266,1.255 0.428,1.241 1.287,2.311 2.442,3.015 0.914,0.556 1.955,0.851 3.009,0.851 1.93,0 3.668,-0.961 4.648,-2.569 1.256,-2.061 1.044,-4.599 -0.44,-6.336 L -6.211,3.743 c 0.756,0.372 1.588,0.566 2.434,0.566 2.155,0 4.257,-1.252 5.485,-3.269"
           style="fill:#553e54;fill-opacity:1;fill-rule:nonzero;stroke:none"
           id="path1251" />
      </g>
      <g
         transform="translate(13.0508,104.1895)"
         id="g1257">
        <path
           d="m 0,0 c 0.843,-0.513 1.918,-0.677 2.904,-0.454 l 1.045,0.235 0.163,-1.058 c 0.2,-1.291 0.973,-2.433 2.123,-3.133 0.677,-0.413 1.431,-0.631 2.179,-0.631 1.446,0 2.791,0.789 3.596,2.111 0.999,1.64 0.569,3.995 -1.001,5.479 l -0.588,0.556 17.412,28.587 0.872,-0.603 c 0.195,-0.135 0.39,-0.263 0.556,-0.364 0.834,-0.509 1.638,-0.767 2.388,-0.767 1.533,0 2.495,1.051 3.032,1.933 0.605,0.992 0.837,1.922 0.691,2.763 -0.165,0.952 -0.826,1.787 -1.965,2.48 -1.23,0.75 -2.609,1.076 -3.865,0.926 l -0.946,-0.115 -0.161,0.939 c -0.178,1.038 -0.81,1.956 -1.736,2.52 -0.6,0.366 -1.281,0.559 -1.968,0.559 -1.228,0 -2.327,-0.601 -2.94,-1.609 -0.911,-1.495 -0.648,-3.296 0.639,-4.38 L 23.086,35.421 5.646,6.787 4.757,7.5 C 4.667,7.572 4.565,7.642 4.453,7.711 3.899,8.047 3.266,8.226 2.62,8.226 1.158,8.226 -0.29,7.341 -1.157,5.917 -2.434,3.82 -1.915,1.167 0,0 m -2.865,6.957 c 1.228,2.016 3.33,3.269 5.485,3.269 0.845,0 1.677,-0.195 2.434,-0.566 l 15.469,25.398 c -1.484,1.738 -1.696,4.275 -0.44,6.337 0.98,1.608 2.717,2.568 4.648,2.568 1.054,0 2.095,-0.294 3.009,-0.851 1.155,-0.703 2.014,-1.774 2.442,-3.015 1.452,-0.005 2.926,-0.438 4.266,-1.255 1.653,-1.006 2.627,-2.3 2.895,-3.846 0.231,-1.333 -0.09,-2.728 -0.954,-4.146 -1.753,-2.879 -4.884,-3.702 -7.93,-1.974 L 12.946,3.406 c 1.797,-2.141 2.142,-5.127 0.772,-7.376 -1.171,-1.923 -3.154,-3.071 -5.304,-3.071 -1.116,0 -2.229,0.319 -3.22,0.923 -1.364,0.831 -2.362,2.102 -2.832,3.575 -1.206,-0.072 -2.396,0.222 -3.403,0.835 -2.856,1.74 -3.674,5.627 -1.824,8.665"
           style="fill:#553e54;fill-opacity:1;fill-rule:nonzero;stroke:none"
           id="path1255" />
      </g>
      <g
         transform="translate(41.3506,42.8843)"
         id="g1261">
        <path
           d="M 0,0 C -0.444,3.172 -5.924,4.217 -7.452,1.373 -7.793,0.737 -6.787,0.256 -6.448,0.886 -5.459,2.729 -1.398,1.962 -1.11,-0.097 -1.011,-0.805 0.1,-0.714 0,0 m -9.89,-13.576 c -1.914,-0.377 -3.045,0.15 -3.79,2.012 -0.232,0.581 -0.306,1.229 -0.275,1.889 1.902,0.065 3.714,2.029 3.846,2.748 0.146,0.791 -1.434,1.745 -3.528,2.131 -2.094,0.386 -3.911,0.058 -4.057,-0.734 -0.137,-0.743 0.928,-3.377 2.794,-4.012 -0.154,-0.459 -0.351,-0.895 -0.61,-1.28 -1.217,-1.808 -2.823,-1.96 -4.551,-0.881 -0.366,0.23 -0.654,-0.377 -0.292,-0.603 1.518,-0.949 3.103,-1.223 4.496,0.118 0.56,0.54 0.98,1.161 1.297,1.828 0.046,-0.618 0.168,-1.229 0.406,-1.822 0.783,-1.957 2.377,-2.445 4.322,-2.062 0.419,0.082 0.367,0.752 -0.058,0.668 m -8.039,16.577 c 0.099,-0.708 1.211,-0.617 1.11,0.097 -0.444,3.172 -5.924,4.217 -7.452,1.373 -0.341,-0.636 0.665,-1.117 1.004,-0.487 0.99,1.843 5.049,1.077 5.338,-0.983 M 16.78,1.339 C 15.759,-5.333 10.77,-12.105 7.971,-12.628 6.229,-12.955 4.066,-11.188 2.225,-5.212 2.158,-5.351 2.091,-5.489 2.024,-5.628 1.771,-6.146 1.518,-6.645 1.265,-7.13 c -4.751,-9.132 -9.67,-12.667 -18.006,-11.132 -8.176,1.507 -11.232,5.857 -12.722,16.122 -0.065,0.444 -0.126,0.9 -0.185,1.365 -3.049,-3.35 -5.208,-3.9 -6.516,-3.1 -2.428,1.487 -4.676,9.592 -3.253,16.19 1.423,6.597 21.741,8.434 21.741,8.434 l -0.073,-0.199 c 1.854,0.116 3.961,0.016 6.355,-0.334 0.549,-0.081 1.111,-0.173 1.69,-0.279 0.888,-0.164 1.714,-0.347 2.514,-0.54 2.894,-0.698 5.218,-1.584 7.056,-2.628 C 2.52,15.423 17.712,7.429 16.78,1.339"
           style="fill:#75586e;fill-opacity:1;fill-rule:nonzero;stroke:none"
           id="path1259" />
      </g>
      <g
         transform="translate(33.8989,44.2568)"
         id="g1265">
        <path
           d="M 0,0 C -0.342,-0.636 0.665,-1.117 1.003,-0.487 1.993,1.356 6.053,0.59 6.341,-1.47 6.44,-2.178 7.552,-2.087 7.452,-1.373 7.007,1.799 1.528,2.844 0,0"
           style="fill:#ffffff;fill-opacity:1;fill-rule:nonzero;stroke:none"
           id="path1263" />
      </g>
      <g
         transform="translate(23.4214,45.8853)"
         id="g1269">
        <path
           d="M 0,0 C 0.1,-0.708 1.211,-0.617 1.11,0.097 0.667,3.269 -4.813,4.314 -6.341,1.47 -6.683,0.834 -5.677,0.353 -5.338,0.983 -4.348,2.826 -0.289,2.06 0,0"
           style="fill:#ffffff;fill-opacity:1;fill-rule:nonzero;stroke:none"
           id="path1267" />
      </g>
      <g
         transform="translate(26.8369,36.73)"
         id="g1273">
        <path
           d="m 0,0 c -0.03,0.432 0.638,0.489 0.668,0.058 0.008,-0.118 0.006,-0.234 0.011,-0.352 0.046,0.108 0.087,0.219 0.136,0.325 0.182,0.392 0.786,0.1 0.604,-0.292 -0.437,-0.943 -0.806,-2.121 -0.86,-3.26 1.901,0.065 3.713,2.029 3.846,2.748 C 4.551,0.019 2.971,0.973 0.876,1.358 -1.218,1.744 -3.035,1.416 -3.18,0.624 -3.317,-0.119 -2.252,-2.752 -0.387,-3.388 -0.022,-2.303 0.075,-1.078 0,0"
           style="fill:#ffffff;fill-opacity:1;fill-rule:nonzero;stroke:none"
           id="path1271" />
      </g>
      <g
         transform="translate(31.4609,29.3081)"
         id="g1277">
        <path
           d="m 0,0 c -1.914,-0.377 -3.045,0.15 -3.79,2.012 -0.232,0.581 -0.306,1.229 -0.275,1.889 0.054,1.139 0.423,2.317 0.86,3.26 0.182,0.392 -0.422,0.684 -0.604,0.292 C -3.858,7.347 -3.899,7.236 -3.945,7.128 -3.894,5.761 -4.102,4.41 -4.67,3.216 -4.624,2.599 -4.502,1.987 -4.265,1.395 -3.481,-0.563 -1.888,-1.051 0.058,-0.668 0.477,-0.585 0.424,0.084 0,0"
           style="fill:#ffffff;fill-opacity:1;fill-rule:nonzero;stroke:none"
           id="path1275" />
      </g>
      <g
         transform="translate(27.5156,36.436)"
         id="g1281">
        <path
           d="m 0,0 c -0.004,0.118 -0.002,0.234 -0.011,0.352 -0.03,0.431 -0.698,0.374 -0.668,-0.058 0.075,-1.078 -0.022,-2.303 -0.386,-3.388 -0.154,-0.459 -0.351,-0.894 -0.61,-1.28 -1.217,-1.808 -2.823,-1.96 -4.551,-0.88 -0.366,0.23 -0.654,-0.377 -0.292,-0.604 1.518,-0.949 3.102,-1.223 4.496,0.118 0.56,0.54 0.98,1.161 1.297,1.828 C -0.157,-2.718 0.051,-1.367 0,0"
           style="fill:#ffffff;fill-opacity:1;fill-rule:nonzero;stroke:none"
           id="path1279" />
      </g>
    </pattern>
  </defs>
  <sodipodi:namedview
     id="base"
     pagecolor="#ffffff"
     bordercolor="#666666"
     borderopacity="1.0"
     inkscape:pageopacity="0.0"
     inkscape:pageshadow="2"
     inkscape:zoom="0.35"
     inkscape:cx="-40.190497"
     inkscape:cy="744.76186"
     inkscape:document-units="mm"
     inkscape:current-layer="layer1"
     showgrid="false"
     inkscape:window-width="1366"
     inkscape:window-height="705"
     inkscape:window-x="0"
     inkscape:window-y="30"
     inkscape:window-maximized="1" />
  <metadata
     id="metadata2222">
    <rdf:RDF>
      <cc:Work
         rdf:about="">
        <dc:format>image/svg+xml</dc:format>
        <dc:type
           rdf:resource="http://purl.org/dc/dcmitype/StillImage" />
        <dc:title></dc:title>
      </cc:Work>
    </rdf:RDF>
  </metadata>
  <g
     inkscape:label="Layer 1"
     inkscape:groupmode="layer"
     id="layer1"
     transform="translate(-0.42837857,-0.16270949)">
    <path
       d="M 0.42837857,345.88491 H 123.54782 V 0.16270949 H 0.42837857 Z"
       style="fill:url(#pattern2217);fill-opacity:1;fill-rule:nonzero;stroke:none;stroke-width:0.35277775"
       id="path1285"
       inkscape:connector-curvature="0" />
  </g>
</svg>
