<?xml version="1.0" encoding="UTF-8" standalone="no"?>
<!-- Created with Inkscape (http://www.inkscape.org/) -->

<svg
   xmlns:dc="http://purl.org/dc/elements/1.1/"
   xmlns:cc="http://creativecommons.org/ns#"
   xmlns:rdf="http://www.w3.org/1999/02/22-rdf-syntax-ns#"
   xmlns:svg="http://www.w3.org/2000/svg"
   xmlns="http://www.w3.org/2000/svg"
   xmlns:sodipodi="http://sodipodi.sourceforge.net/DTD/sodipodi-0.dtd"
   xmlns:inkscape="http://www.inkscape.org/namespaces/inkscape"
   width="89.561455mm"
   height="55.100601mm"
   viewBox="0 0 89.561455 55.100601"
   version="1.1"
   id="svg6130"
   inkscape:version="0.92.3 (unknown)"
   sodipodi:docname="doginbath.svg">
  <defs
     id="defs6124" />
  <sodipodi:namedview
     id="base"
     pagecolor="#ffffff"
     bordercolor="#666666"
     borderopacity="1.0"
     inkscape:pageopacity="0.0"
     inkscape:pageshadow="2"
     inkscape:zoom="0.35"
     inkscape:cx="522.10712"
     inkscape:cy="121.26998"
     inkscape:document-units="mm"
     inkscape:current-layer="layer1"
     showgrid="false"
     inkscape:window-width="1366"
     inkscape:window-height="705"
     inkscape:window-x="0"
     inkscape:window-y="30"
     inkscape:window-maximized="1" />
  <metadata
     id="metadata6127">
    <rdf:RDF>
      <cc:Work
         rdf:about="">
        <dc:format>image/svg+xml</dc:format>
        <dc:type
           rdf:resource="http://purl.org/dc/dcmitype/StillImage" />
        <dc:title></dc:title>
      </cc:Work>
    </rdf:RDF>
  </metadata>
  <g
     inkscape:label="Layer 1"
     inkscape:groupmode="layer"
     id="layer1"
     transform="translate(152.88191,-125.81875)">
    <g
       transform="matrix(0.26458333,0,0,0.26458333,-391.35087,28.813216)"
       id="g5376"
       style="display:inline">
      <path
         d="m 1174.2,557.9 c -2.5,9.4 -15.7,12.2 -22.4,5.9 l -3.3,-3.1 4.4,-0.8 c 3.9,-0.8 7.9,-1.7 11.8,-2.7 2.2,-0.6 4.5,-1.3 6.6,-2 l 3.9,-1.3 z M 925.7,446.7 h 289.7 c 9.1,0 16.5,7.4 16.5,16.5 0,9.1 -7.4,16.5 -16.5,16.5 H 925.7 c -9.1,0 -16.5,-7.4 -16.5,-16.5 0,-9 7.4,-16.5 16.5,-16.5 z m 64.2,116.4 c -7,7.1 -21.4,4.7 -23,-6.1 l -0.6,-3.7 3.4,1.2 c 2.2,0.7 4.4,1.4 6.6,2 4.1,1.1 8.3,2 12.4,2.8 l 4.1,0.8 z"
         id="path5348"
         inkscape:connector-curvature="0"
         style="clip-rule:evenodd;fill:#55c5cf;fill-rule:evenodd" />
      <path
         d="m 929.3,446.7 c -4.3,-0.6 -18.4,15.2 -2.4,33.1 h -1.2 c -9.1,0 -16.5,-7.4 -16.5,-16.5 0,-9.1 7.4,-16.5 16.5,-16.5 h 3.6 z m 43.4,108.7 v 0 c 0,0 0.2,4.5 1.4,10.6 -3.7,-1.4 -6.6,-4.5 -7.3,-9.1 l -0.6,-3.7 3.4,1.2 c 1.1,0.4 2.2,0.7 3.1,1 z"
         id="path5350"
         inkscape:connector-curvature="0"
         style="clip-rule:evenodd;fill:#ffffff;fill-rule:evenodd" />
      <path
         d="m 930.7,485.5 h 279.8 l -0.1,2.4 c -0.4,12.8 -1.5,26.7 -7.9,37.9 -8.3,14.8 -23.6,21.7 -39.3,26 -28.1,7.6 -63.5,8 -92.6,7.9 -18.1,-0.1 -36.5,-0.6 -54.6,-2.4 -12.8,-1.2 -25.9,-3 -38.2,-6.3 -15.6,-4.3 -30.9,-11.2 -39.2,-25.9 -6.3,-11.2 -7.4,-24.8 -7.8,-37.3 z"
         id="path5352"
         inkscape:connector-curvature="0"
         style="clip-rule:evenodd;fill:#fefad7;fill-rule:evenodd" />
      <path
         d="m 930.7,485.5 h 12.4 c -1.1,9.8 -2.7,46.2 27.3,63.3 -12.9,-4.5 -24.8,-11.3 -31.8,-23.6 -6.3,-11.2 -7.4,-24.8 -7.8,-37.3 z"
         id="path5354"
         inkscape:connector-curvature="0"
         style="clip-rule:evenodd;fill:#ffffff;fill-rule:evenodd" />
      <path
         d="m 1099.6,385.5 h 6.1 c 1.8,-3.2 5.3,-5.6 8.2,-7.2 18.9,-11 30.6,3.5 39.2,18.4 6.6,11.5 1.3,25.7 -9.9,32.1 -11.7,6.7 -17.5,-7.3 -21.7,-15.8 h -6.4 c 0.9,1.7 1.8,3.3 2.6,5 2.6,5.4 5.8,11.8 10.9,15.4 l 0.9,0.7 v 1.3 c -0.1,1.2 -0.2,2.5 -0.4,3.8 l -0.2,2 h -116.6 l -0.2,-2 c -0.1,-1.3 -0.2,-2.6 -0.2,-3.8 l -0.1,-1.3 0.9,-0.7 c 5.1,-3.5 8.3,-9.9 11,-15.4 0.8,-1.7 1.5,-3.3 2.5,-5 h -6.4 c -4.3,8.5 -10,22.6 -21.7,15.8 -11.1,-6.4 -16.5,-20.7 -9.9,-32.1 8.6,-14.9 20.3,-29.4 39.2,-18.4 3,1.7 6.4,4 8.1,7.2 h 6.1 c -0.1,-0.5 -0.2,-0.9 -0.5,-1.4 l -1.1,-2.2 2.4,-0.8 c 9,-3.1 18.8,-4 28.2,-4 9.3,0 19.1,0.9 28.1,4 l 2.4,0.8 -1.1,2.2 c -0.1,0.5 -0.3,1 -0.4,1.4 z"
         id="path5356"
         inkscape:connector-curvature="0"
         style="clip-rule:evenodd;fill:#cb6d38;fill-rule:evenodd" />
      <path
         d="m 990.7,422.6 c -5.8,-7.3 -7.6,-17.4 -2.6,-25.9 7.4,-12.9 17.1,-25.3 31.8,-21.6 -0.4,0.7 -0.7,1.4 -1.1,2 0,0 -29.9,21.4 -28.1,45.5 z"
         id="path5358"
         inkscape:connector-curvature="0"
         style="clip-rule:evenodd;fill:#ffffff;fill-rule:evenodd" />
      <path
         d="m 1218.5,484 c -0.4,15.9 -1.8,32.5 -9.2,45.6 -9.4,16.7 -26.2,24.8 -44.1,29.6 -28.9,7.7 -65,8.3 -94.7,8.1 -29.9,-0.1 -65.9,-1.1 -94.8,-8.9 -17.7,-4.8 -34.6,-13 -43.9,-29.6 -7.2,-12.9 -8.7,-29.2 -9,-44.9 H 933 c 0.9,49.3 11.8,72.6 137.7,73.2 125.9,0.7 136.8,-23.7 137.6,-73.2 h 10.2 z"
         id="path5360"
         inkscape:connector-curvature="0"
         style="clip-rule:evenodd;fill:#3c2415;fill-rule:evenodd" />
      <path
         d="m 925.7,438.8 h 289.7 c 13.5,0 24.4,11 24.4,24.4 v 0 c 0,13.5 -11,24.4 -24.4,24.4 H 925.7 c -13.5,0 -24.4,-11 -24.4,-24.4 v 0 c 0,-13.4 11,-24.4 24.4,-24.4 z m 0,10.2 h 289.7 c 7.9,0 14.3,6.4 14.3,14.3 v 0 c 0,7.8 -6.4,14.3 -14.3,14.3 H 925.7 c -7.9,0 -14.3,-6.5 -14.3,-14.3 v 0 c 0,-8 6.4,-14.3 14.3,-14.3 z"
         id="path5362"
         inkscape:connector-curvature="0"
         style="clip-rule:evenodd;fill:#3c2415;fill-rule:evenodd" />
      <path
         d="m 1136.4,442.9 c 0.7,-4.1 0.9,-8.3 1.1,-12.4 -4,0.7 -8,-1.2 -10.2,-4.6 0.2,5.7 -0.1,11.5 -1.1,17 z m -29.6,-67.2 c -10.2,-4.5 -22.4,-6.6 -36.1,-6.6 -17.2,0 -32.1,3.3 -43.5,10.5 4,0.5 7.3,3.1 8.6,6.7 9.6,-5.2 21.6,-7.2 34.8,-7.2 12.3,0 23.7,1.8 33.1,6.3 -0.8,-3.5 0.5,-7.2 3.1,-9.7 z M 1003.7,431 c 0.1,4 0.5,8 1.1,11.9 h 10.2 c -0.7,-4.1 -1.1,-8.5 -1.1,-13 -3,2.2 -6.9,2.5 -10.2,1.1 z"
         id="path5364"
         inkscape:connector-curvature="0"
         style="clip-rule:evenodd;fill:#3c2415;fill-rule:evenodd" />
      <path
         d="m 1031.2,371.4 c 6.4,3.7 12.4,9 13.2,16.3 H 1034 c -0.8,-2.2 -3.2,-4.7 -7.9,-7.6 -19.3,-11.1 -30.4,7.8 -36,17.6 -5.8,9.9 -1.7,23 9.1,29.2 9.8,5.7 14.2,-6.5 19.3,-16.2 h 12 c -0.7,0.8 -1.4,1.7 -1.8,2.4 -1.2,1.9 -2.1,3.9 -3.1,5.9 -3.8,7.6 -8.2,16.2 -16.9,18.8 -5.1,1.5 -10.2,0.6 -14.6,-2.1 -15,-8.6 -21.6,-27.6 -12.9,-42.9 3.2,-5.4 6.4,-10.5 10.5,-15 11,-11.9 25.2,-14.7 39.5,-6.4 z"
         id="path5366"
         inkscape:connector-curvature="0"
         style="clip-rule:evenodd;fill:#3c2415;fill-rule:evenodd" />
      <path
         d="m 1110,371.4 c -6.3,3.7 -12.3,9 -13.2,16.3 h 10.4 c 0.8,-2.2 3.2,-4.7 7.9,-7.6 19.3,-11.1 30.4,7.8 36,17.6 5.8,9.9 1.7,23 -9.1,29.2 -9.7,5.7 -14.2,-6.5 -19.1,-16.2 h -12.2 c 0.7,0.8 1.4,1.7 1.9,2.4 1.1,1.9 2,3.9 3.1,5.9 3.7,7.6 8,16.2 16.8,18.8 5.1,1.5 10.2,0.6 14.6,-2.1 15,-8.6 21.7,-27.6 12.9,-42.9 -3.1,-5.4 -6.3,-10.5 -10.5,-15 -11.1,-11.9 -25.2,-14.7 -39.5,-6.4 z"
         id="path5368"
         inkscape:connector-curvature="0"
         style="clip-rule:evenodd;fill:#3c2415;fill-rule:evenodd" />
      <path
         d="m 1041,417.1 c 2.7,0 5.1,2.2 5.1,5.1 0,2.8 -2.4,5.1 -5.1,5.1 -2.8,0 -5.1,-2.2 -5.1,-5.1 0,-2.9 2.3,-5.1 5.1,-5.1 z"
         id="path5370"
         inkscape:connector-curvature="0"
         style="clip-rule:evenodd;fill:#3c2415;fill-rule:evenodd" />
      <path
         d="m 1100.3,417.1 c 2.7,0 5,2.2 5,5.1 0,2.8 -2.2,5.1 -5,5.1 -2.8,0 -5.1,-2.2 -5.1,-5.1 0,-2.9 2.3,-5.1 5.1,-5.1 z"
         id="path5372"
         inkscape:connector-curvature="0"
         style="clip-rule:evenodd;fill:#3c2415;fill-rule:evenodd" />
      <path
         d="m 1001,557 c -0.5,4.6 -2.6,8.9 -6,12 -13,12.2 -36.3,4.5 -36.3,-14.4 0,-1.9 0.2,-4 0.6,-6 h 10.3 c -0.5,1.9 -0.7,3.9 -0.7,6 0,13.5 20.6,13.1 22.1,1.4 1.1,0.2 2.1,0.2 3.3,0.2 1.8,0.9 4.5,1.2 6.7,0.8 z m 170.8,-8.4 c 0.4,1.9 0.6,3.9 0.6,6 0,12.2 -19.4,13.8 -21.9,2.5 -2.7,0.7 -4.5,0.2 -7,-0.6 l -0.7,0.2 c -0.8,0.5 -1.5,0.8 -2.5,1.1 2.5,16.5 23.7,22.7 36,11.2 5.9,-5.6 6.9,-12.8 5.6,-20.4 z"
         id="path5374"
         inkscape:connector-curvature="0"
         style="clip-rule:evenodd;fill:#3c2415;fill-rule:evenodd" />
    </g>
  </g>
</svg>
