<?xml version="1.0" encoding="UTF-8" standalone="no"?>
<!-- Created with Inkscape (http://www.inkscape.org/) -->

<svg
   xmlns:dc="http://purl.org/dc/elements/1.1/"
   xmlns:cc="http://creativecommons.org/ns#"
   xmlns:rdf="http://www.w3.org/1999/02/22-rdf-syntax-ns#"
   xmlns:svg="http://www.w3.org/2000/svg"
   xmlns="http://www.w3.org/2000/svg"
   xmlns:sodipodi="http://sodipodi.sourceforge.net/DTD/sodipodi-0.dtd"
   xmlns:inkscape="http://www.inkscape.org/namespaces/inkscape"
   width="81.438751mm"
   height="74.218613mm"
   viewBox="0 0 81.438751 74.218613"
   version="1.1"
   id="svg7405"
   inkscape:version="0.92.3 (unknown)"
   sodipodi:docname="doginbath2.svg">
  <defs
     id="defs7399" />
  <sodipodi:namedview
     id="base"
     pagecolor="#ffffff"
     bordercolor="#666666"
     borderopacity="1.0"
     inkscape:pageopacity="0.0"
     inkscape:pageshadow="2"
     inkscape:zoom="0.35"
     inkscape:cx="-136.10002"
     inkscape:cy="94.541363"
     inkscape:document-units="mm"
     inkscape:current-layer="layer1"
     showgrid="false"
     inkscape:window-width="1366"
     inkscape:window-height="705"
     inkscape:window-x="0"
     inkscape:window-y="30"
     inkscape:window-maximized="1" />
  <metadata
     id="metadata7402">
    <rdf:RDF>
      <cc:Work
         rdf:about="">
        <dc:format>image/svg+xml</dc:format>
        <dc:type
           rdf:resource="http://purl.org/dc/dcmitype/StillImage" />
        <dc:title></dc:title>
      </cc:Work>
    </rdf:RDF>
  </metadata>
  <g
     inkscape:label="Layer 1"
     inkscape:groupmode="layer"
     id="layer1"
     transform="translate(-21.268727,-99.628787)">
    <g
       transform="matrix(0.26458333,0,0,0.26458333,-115.91773,-65.682878)"
       id="g5150"
       style="display:inline">
      <path
         d="m 728.5,781 c 11.2,0 20.4,9.1 20.4,20.4 0,16.1 -40.9,16.9 -40.9,0 0,-11.3 9.2,-20.4 20.5,-20.4 z m -112.2,0 c 11.3,0 20.4,9.1 20.4,20.4 0,16.1 -40.7,16.9 -40.7,0 -0.1,-11.3 9,-20.4 20.3,-20.4 z M 690,699.7 h 6.1 c 1.8,-3.2 5.2,-5.6 8.1,-7.2 18.9,-10.9 30.6,3.5 39.2,18.4 6.6,11.5 1.2,25.7 -9.9,32.1 -11.7,6.7 -17.5,-7.3 -21.7,-15.8 h -6.4 c 0.9,1.7 1.8,3.3 2.6,5 2.4,4.8 5.1,10.3 9.1,14.1 l 0.7,0.6 0.1,0.9 c 0.1,3.5 0.1,7.1 0.1,10.6 0,24.7 -21.9,42.3 -45.7,42.3 -23.7,0 -45.6,-17.6 -45.6,-42.3 0,-3.5 0,-7.1 0.1,-10.6 v -0.9 l 0.7,-0.6 c 4,-3.8 6.9,-9.2 9.2,-14.1 0.8,-1.7 1.7,-3.3 2.5,-5 H 633 c -4.3,8.5 -10.2,22.6 -21.7,15.8 -11.2,-6.4 -16.7,-20.7 -9.9,-32.1 8.5,-14.9 20.3,-29.3 39.1,-18.4 3,1.7 6.5,4 8.3,7.2 h 6.1 c -0.2,-0.7 -0.6,-1.4 -0.9,-2.1 l -1.1,-2.2 2.4,-0.8 c 5.6,-2 11.3,-2.7 17.1,-2.7 5.8,0 11.7,0.7 17.2,2.7 l 2.4,0.8 -1.2,2.2 c -0.4,0.7 -0.6,1.4 -0.8,2.1 z"
         id="path5110"
         inkscape:connector-curvature="0"
         style="clip-rule:evenodd;fill:#cb6d38;fill-rule:evenodd" />
      <path
         d="m 602.8,735.3 c -0.6,-20.6 16.3,-41.8 30.1,-45.9 -14.5,-3.7 -24.2,8.9 -31.5,21.6 -4.6,8 -3.5,17.2 1.4,24.3 z m 34.7,-4.6 c 0,0 -6,45.8 4.8,56.6 2.8,2.8 4.5,5 5.3,6.7 -12.3,-7.3 -20.9,-20.1 -20.9,-35.6 0,-3.5 0,-7.1 0.1,-10.6 v -0.9 l 0.7,-0.6 c 4,-3.8 6.9,-9.2 9.2,-14.1 z m -35.7,79.8 c 1.3,0.6 -3,-24.6 24.1,-27.2 -3,-1.5 -6.1,-2.4 -9.7,-2.4 -11.2,0 -20.3,9.1 -20.3,20.4 0,4.1 2.4,7.2 5.9,9.2 z"
         id="path5112"
         inkscape:connector-curvature="0"
         style="clip-rule:evenodd;fill:#ffffff;fill-rule:evenodd" />
      <path
         d="m 627.8,885.4 c -0.2,15.7 -26.3,16.5 -26.6,0 V 883 h 26.6 z m -37.3,-86.9 c -0.1,0.9 -0.2,1.9 -0.2,3 0,2.8 0.7,5.6 2.2,7.9 l 2.1,3.4 h -59.9 c -4.6,0 -8.4,-3.8 -8.4,-8.4 0,-4.6 3.8,-8.4 8.4,-8.4 h 56 z m 55.2,0.8 c 8.1,4.6 17.4,7.1 26.7,7.1 9.3,0 18.7,-2.5 26.7,-7.1 l 3.4,-1.9 v 4 c 0,2.8 0.7,5.6 2.1,7.9 l 2.2,3.4 h -69.1 l 2.2,-3.4 c 1.5,-2.5 2.4,-5.1 2.4,-7.9 v -4 z m 106.5,10 c 1.5,-2.5 2.2,-5.1 2.2,-7.9 0,-1.1 0,-2 -0.1,-3 l -0.2,-2.5 H 810 c 4.6,0 8.4,3.8 8.4,8.4 0,4.6 -3.8,8.4 -8.4,8.4 h -60.1 z m -8.7,76.1 c -0.2,15.7 -26.3,16.5 -26.6,0 V 883 h 26.7 z"
         id="path5114"
         inkscape:connector-curvature="0"
         style="clip-rule:evenodd;fill:#ffffff;fill-rule:evenodd" />
      <path
         d="m 786.3,822.1 c -4.7,5.8 -8.2,13.1 -11.2,19.8 -4.5,10.2 -11.6,30.8 -23,34.7 -1.4,0.5 -3,0.8 -4.6,0.8 H 597.2 c -1.5,0 -3.1,-0.4 -4.6,-0.8 -11.3,-3.9 -18.4,-24.6 -23,-34.7 -3,-6.7 -6.5,-14.1 -11.1,-19.8 l -3.1,-3.7 h 51.6 0.2 c 5.7,1.3 11.8,1.3 17.5,0 h 0.2 94.3 0.2 c 5.6,1.3 11.8,1.3 17.4,0 h 0.2 52.2 z"
         id="path5116"
         inkscape:connector-curvature="0"
         style="clip-rule:evenodd;fill:#55c5cf;fill-rule:evenodd" />
      <path
         d="m 600.8,877.5 h -3.5 c -1.5,0 -3.1,-0.4 -4.6,-0.8 -11.3,-3.9 -18.4,-24.6 -23,-34.7 -3,-6.7 -6.5,-14.1 -11.1,-19.8 l -3.1,-3.7 h 12.4 c 9,11.5 22,54 32.9,59 z"
         id="path5118"
         inkscape:connector-curvature="0"
         style="clip-rule:evenodd;fill:#ffffff;fill-rule:evenodd" />
      <path
         d="m 761.5,632.7 c 12,0 21.9,9.8 21.9,21.9 0,12.2 -9.8,22 -21.9,22 -12.2,0 -22,-9.8 -22,-22 0.1,-12.1 9.9,-21.9 22,-21.9 z M 560,767.4 c -8.9,0 -15.9,-7.2 -15.9,-15.9 0,-8.9 7.1,-15.9 15.9,-15.9 8.7,0 15.9,7.1 15.9,15.9 0.1,8.7 -7.1,15.9 -15.9,15.9 z"
         id="path5120"
         inkscape:connector-curvature="0"
         style="clip-rule:evenodd;fill:#ffffff;fill-rule:evenodd" />
      <path
         d="m 672.4,683.9 c 10.4,0 20,2.1 28.2,7.1 -3.1,1.8 -5,5.3 -5.1,8.9 -5.8,-3.7 -13.3,-5.8 -23.2,-5.8 -8.7,0 -15.8,1.8 -21.4,4.7 -0.7,-3.7 -3.4,-6.6 -7,-7.7 7.8,-4.7 17.2,-7.2 28.5,-7.2 z m 53.3,62.9 c 0.1,3.9 0.2,7.8 0.2,11.6 0,28.9 -25.4,50.2 -53.6,50.2 -28.1,0 -53.5,-21.3 -53.5,-50.2 0,-3.5 0,-7.1 0.1,-10.6 4.3,-0.1 7.2,-2.7 9.2,-6 0.4,-0.5 0.6,-1.1 0.9,-1.5 0.2,-0.2 0.4,-0.5 0.6,-0.7 -0.7,6.9 -0.7,13.5 -0.7,18.9 0,22.1 19.4,40 43.3,40 23.9,0 43.5,-18 43.5,-40 0,-4.8 0,-10.5 -0.5,-16.7 2.2,3.6 6.3,5.7 10.5,5 z"
         id="path5122"
         inkscape:connector-curvature="0"
         style="clip-rule:evenodd;fill:#3c2415;fill-rule:evenodd" />
      <path
         d="m 644.5,685.7 c 6.3,3.5 12.3,8.9 13.1,16.3 h -10.3 c -0.8,-2.4 -3.2,-4.8 -7.9,-7.6 -19.3,-11.1 -30.4,7.7 -36.1,17.6 -5.7,9.9 -1.7,22.9 9.1,29.2 9.8,5.6 14.2,-6.5 19.3,-16.2 h 12.2 c -0.8,0.7 -1.4,1.5 -1.9,2.2 -1.1,1.9 -2.1,3.9 -3.1,5.9 -3.8,7.6 -8.2,16.2 -16.9,18.8 -5,1.7 -10.2,0.6 -14.6,-2 -14.9,-8.6 -21.6,-27.6 -12.8,-43 3.1,-5.3 6.3,-10.5 10.5,-15 10.8,-11.7 25,-14.5 39.4,-6.2 z"
         id="path5124"
         inkscape:connector-curvature="0"
         style="clip-rule:evenodd;fill:#3c2415;fill-rule:evenodd" />
      <path
         d="m 700.4,685.7 c -6.3,3.5 -12.4,8.9 -13.2,16.3 h 10.4 c 0.8,-2.4 3.2,-4.8 7.9,-7.6 19.3,-11.1 30.4,7.7 36,17.6 5.8,9.9 1.7,22.9 -9.1,29.2 -9.7,5.6 -14.2,-6.5 -19.1,-16.2 h -12.2 c 0.7,0.7 1.4,1.5 1.9,2.2 1.1,1.9 2,3.9 3,5.9 3.8,7.6 8.2,16.2 16.9,18.8 5.1,1.7 10.2,0.6 14.6,-2 15,-8.6 21.7,-27.6 12.9,-43 -3.1,-5.3 -6.3,-10.5 -10.5,-15 -11.1,-11.7 -25.3,-14.5 -39.5,-6.2 z"
         id="path5126"
         inkscape:connector-curvature="0"
         style="clip-rule:evenodd;fill:#3c2415;fill-rule:evenodd" />
      <path
         d="m 683,768.3 c 0,4.6 -4.7,8.3 -10.6,8.3 -5.8,0 -10.6,-3.7 -10.6,-8.3 0,-4.6 2,-4.5 10.6,-4.5 8.6,0 10.6,-0.1 10.6,4.5 z"
         id="path5128"
         inkscape:connector-curvature="0"
         style="clip-rule:evenodd;fill:#3c2415;fill-rule:evenodd" />
      <path
         d="m 651.2,732.3 c 2.8,0 5.1,2.2 5.1,5.1 0,2.8 -2.2,5.1 -5.1,5.1 -2.8,0 -5.1,-2.2 -5.1,-5.1 0,-2.8 2.3,-5.1 5.1,-5.1 z"
         id="path5130"
         inkscape:connector-curvature="0"
         style="clip-rule:evenodd;fill:#3c2415;fill-rule:evenodd" />
      <path
         d="m 693.6,732.3 c 2.7,0 5.1,2.2 5.1,5.1 0,2.8 -2.4,5.1 -5.1,5.1 -2.8,0 -5.1,-2.2 -5.1,-5.1 0,-2.8 2.3,-5.1 5.1,-5.1 z"
         id="path5132"
         inkscape:connector-curvature="0"
         style="clip-rule:evenodd;fill:#3c2415;fill-rule:evenodd" />
      <path
         d="m 534.8,788.1 h 62 c -2,3 -2.1,7 -0.5,10.2 h -61.5 c -3.3,0 -6.1,2.7 -6.1,6.1 0,3.3 2.8,6.1 6.1,6.1 h 68 c 2,2 5.2,3.4 7.9,3.5 0.6,0.1 1.2,0.1 1.8,0.1 h 9.2 c 2.8,0 8.4,-1.8 10.6,-3.7 h 80.3 c 1.5,1.9 3.7,3.2 5.9,4.3 2.7,1.4 4.8,1.2 7.7,1.2 0.7,0 1.4,-0.1 2.2,-0.2 l -0.5,0.1 c 1.4,0 2.8,0 4.3,-0.2 1.3,-0.1 3.1,-0.7 4.3,-1.2 3,-0.5 5.4,-2 7.7,-3.9 H 810 c 3.4,0 6.1,-2.8 6.1,-6.1 0,-3.4 -2.7,-6.1 -6.1,-6.1 h -58.8 c 0,-4.3 0.1,-6.7 -2.6,-10.2 H 810 c 9,0 16.3,7.3 16.3,16.3 0,9 -7.3,16.3 -16.3,16.3 H 534.8 c -8.9,0 -16.3,-7.3 -16.3,-16.3 0,-9 7.4,-16.3 16.3,-16.3 z m 173,10.1 h -9.7 c 4.6,-1.3 8.3,-5.3 8.4,-10.2 h 4 c -2.7,2.7 -3.8,6.6 -2.7,10.2 z m -54.2,0 h -16.9 c -0.1,-0.8 -0.2,-1.5 -0.5,-2.2 -0.5,-3 -2.7,-6 -5.1,-7.9 h 8.9 c 0.8,5 4.5,7.6 8.9,8.7 1.4,0.2 2.8,0.8 4.3,1.2 z"
         id="path5134"
         inkscape:connector-curvature="0"
         style="clip-rule:evenodd;fill:#3c2415;fill-rule:evenodd" />
      <path
         d="m 597.2,885.3 c -32.6,0 -32.7,-65.7 -56.9,-64.6 h -1.9 l -1.9,-0.6 c -2.6,-0.9 -5,-2.2 -6.9,-4.1 h 25.9 c 18.8,15.6 22.6,59.2 41.7,59.2 h 150.2 c 19.1,0 23,-43.6 41.7,-59.2 H 815 c -1.9,1.9 -4.3,3.2 -6.9,4.1 l -1.8,0.6 h -2 c -24.2,-1.1 -24.2,64.6 -56.9,64.6 z"
         id="path5136"
         inkscape:connector-curvature="0"
         style="clip-rule:evenodd;fill:#3c2415;fill-rule:evenodd" />
      <path
         d="m 635.3,879 c 0.4,2 0.5,4.1 0.5,6 0,5.6 -2.1,10.6 -6.1,14.4 -13,12.2 -36.3,4.6 -36.3,-14.4 0,-1.9 0.2,-4 0.6,-6 h 10.2 c -0.4,1.9 -0.6,3.9 -0.6,6 0,13.9 22.1,13.1 22.1,0 0,-2.1 -0.2,-4.1 -0.6,-6 z m 105.3,0 c 0.5,1.9 0.6,3.9 0.6,6 0,13.1 -22.1,13.9 -22.1,0 0,-2.1 0.2,-4.1 0.7,-6 h -10.3 c -0.4,2 -0.5,4.1 -0.5,6 0,19 23.2,26.6 36.1,14.4 4,-3.8 6.1,-8.9 6.1,-14.4 0,-1.9 -0.1,-4 -0.5,-6 z"
         id="path5138"
         inkscape:connector-curvature="0"
         style="clip-rule:evenodd;fill:#3c2415;fill-rule:evenodd" />
      <path
         d="m 616.3,773.1 c 15.7,0 28.3,12.6 28.3,28.2 0,26.7 -56.6,27.5 -56.6,0 0,-15.6 12.7,-28.2 28.3,-28.2 z m 0,10.1 c 10,0 18.2,8.1 18.2,18.1 0,13.1 -36.3,13.9 -36.3,0 0,-9.9 8.1,-18.1 18.1,-18.1 z"
         id="path5140"
         inkscape:connector-curvature="0"
         style="clip-rule:evenodd;fill:#3c2415;fill-rule:evenodd" />
      <path
         d="m 728.5,773.1 c 15.6,0 28.2,12.6 28.2,28.2 0,26.7 -56.5,27.5 -56.5,0 0,-15.6 12.7,-28.2 28.3,-28.2 z m 0,10.1 c 10,0 18.2,8.1 18.2,18.1 0,13.1 -36.3,13.9 -36.3,0 0,-9.9 8,-18.1 18.1,-18.1 z"
         id="path5142"
         inkscape:connector-curvature="0"
         style="clip-rule:evenodd;fill:#3c2415;fill-rule:evenodd" />
      <path
         d="m 560,733.4 c 9.9,0 18.1,8 18.1,18 0,10 -8.2,18.1 -18.1,18.1 -10,0 -18.1,-8 -18.1,-18.1 0.1,-10 8.1,-18 18.1,-18 z m 0,10 c 4.4,0 7.9,3.5 7.9,7.9 0,4.4 -3.5,8 -7.9,8 -4.4,0 -7.9,-3.7 -7.9,-8 0,-4.3 3.6,-7.9 7.9,-7.9 z"
         id="path5144"
         inkscape:connector-curvature="0"
         style="clip-rule:evenodd;fill:#3c2415;fill-rule:evenodd" />
      <path
         d="m 767.1,745 c 2.7,0 5,2.2 5,5.1 0,2.8 -2.2,5.1 -5,5.1 -2.8,0 -5.1,-2.2 -5.1,-5.1 0,-2.9 2.3,-5.1 5.1,-5.1 z"
         id="path5146"
         inkscape:connector-curvature="0"
         style="clip-rule:evenodd;fill:#3c2415;fill-rule:evenodd" />
      <path
         d="m 761.5,624.8 c 16.4,0 29.8,13.3 29.8,29.8 0,16.4 -13.3,29.8 -29.8,29.8 -16.5,0 -29.9,-13.3 -29.9,-29.8 0.1,-16.4 13.4,-29.8 29.9,-29.8 z m 0,10.2 c 10.9,0 19.6,8.7 19.6,19.6 0,10.9 -8.7,19.7 -19.6,19.7 -10.9,0 -19.7,-8.9 -19.7,-19.7 0,-10.9 8.9,-19.6 19.7,-19.6 z"
         id="path5148"
         inkscape:connector-curvature="0"
         style="clip-rule:evenodd;fill:#3c2415;fill-rule:evenodd" />
    </g>
  </g>
</svg>
