<?xml version="1.0" encoding="UTF-8" standalone="no"?>
<!-- Created with Inkscape (http://www.inkscape.org/) -->

<svg
   xmlns:dc="http://purl.org/dc/elements/1.1/"
   xmlns:cc="http://creativecommons.org/ns#"
   xmlns:rdf="http://www.w3.org/1999/02/22-rdf-syntax-ns#"
   xmlns:svg="http://www.w3.org/2000/svg"
   xmlns="http://www.w3.org/2000/svg"
   xmlns:sodipodi="http://sodipodi.sourceforge.net/DTD/sodipodi-0.dtd"
   xmlns:inkscape="http://www.inkscape.org/namespaces/inkscape"
   width="370.41666mm"
   height="259.29166mm"
   viewBox="0 0 370.41666 259.29166"
   version="1.1"
   id="svg9113"
   sodipodi:docname="pawbgog.svg"
   inkscape:version="0.92.3 (unknown)">
  <defs
     id="defs9107" />
  <sodipodi:namedview
     id="base"
     pagecolor="#ffffff"
     bordercolor="#666666"
     borderopacity="1.0"
     inkscape:pageopacity="0.0"
     inkscape:pageshadow="2"
     inkscape:zoom="0.35"
     inkscape:cx="858.57142"
     inkscape:cy="601.42859"
     inkscape:document-units="mm"
     inkscape:current-layer="g8029"
     showgrid="false"
     inkscape:window-width="1366"
     inkscape:window-height="705"
     inkscape:window-x="0"
     inkscape:window-y="30"
     inkscape:window-maximized="1" />
  <metadata
     id="metadata9110">
    <rdf:RDF>
      <cc:Work
         rdf:about="">
        <dc:format>image/svg+xml</dc:format>
        <dc:type
           rdf:resource="http://purl.org/dc/dcmitype/StillImage" />
        <dc:title></dc:title>
      </cc:Work>
    </rdf:RDF>
  </metadata>
  <g
     inkscape:label="Layer 1"
     inkscape:groupmode="layer"
     id="layer1"
     transform="translate(241.90476,-48.669644)">
    <g
       id="g8029"
       style="display:inline"
       transform="matrix(0.26458333,0,0,0.26458333,-241.90476,48.669644)">
      <rect
         width="1400"
         height="980"
         id="rect8025"
         x="0"
         y="0"
         style="clip-rule:evenodd;display:inline;fill:#fcd09e;fill-rule:evenodd" />
      <path
         d="m 0,0 h 15.2 c 2.8,5 4.5,10.7 4.5,16.9 0,13.7 -8,25.5 -19.7,30.9 z m 78.9,0 h 33.3 C 112,9 104.6,16.2 95.5,16.2 86.5,16.2 79.1,9 78.9,0 Z m 97,0 H 235 c 2.8,5 4.5,10.7 4.5,16.9 0,18.8 -15.2,34.1 -34,34.1 C 186.6,51 171.4,35.6 171.4,16.9 171.4,10.7 173,5 175.9,0 Z M 298.7,0 H 332 c -0.2,9 -7.6,16.2 -16.7,16.2 -9,0 -16.4,-7.2 -16.6,-16.2 z m 97,0 h 59.2 c 2.8,5 4.5,10.7 4.5,16.9 0,18.8 -15.2,34.1 -34,34.1 C 406.5,51 391.3,35.6 391.3,16.9 391.2,10.7 392.8,5 395.7,0 Z m 122.8,0 h 33.3 c -0.2,9 -7.6,16.2 -16.7,16.2 -9,0 -16.3,-7.2 -16.6,-16.2 z m 97,0 h 59.2 c 2.8,5 4.5,10.7 4.5,16.9 C 679.2,35.7 664,51 645.2,51 626.2,51 611,35.7 611,16.9 611,10.7 612.7,5 615.5,0 Z m 122.8,0 h 33.3 C 771.4,9 764,16.2 754.9,16.2 745.9,16.2 738.6,9 738.3,0 Z m 97,0 h 59.2 C 897.3,5 899,10.7 899,16.9 899,35.7 883.8,51 865,51 846.1,51 830.9,35.6 830.9,16.9 830.8,10.7 832.5,5 835.3,0 Z m 122.8,0 h 33.3 C 991.2,9 983.8,16.2 974.7,16.2 965.6,16.2 958.4,9 958.1,0 Z m 97,0 h 59.2 c 2.8,5 4.5,10.7 4.5,16.9 0,18.8 -15.2,34.1 -34,34.1 -18.9,0 -34.1,-15.4 -34.1,-34.1 -0.1,-6.2 1.6,-11.9 4.4,-16.9 z m 122.8,0 h 33.3 c -0.2,9 -7.6,16.2 -16.7,16.2 -9.1,0 -16.3,-7.2 -16.6,-16.2 z m 97,0 h 59.2 c 2.8,5 4.5,10.7 4.5,16.9 0,18.8 -15.2,34.1 -34,34.1 -18.9,0 -34.1,-15.4 -34.1,-34.1 -0.1,-6.2 1.6,-11.9 4.4,-16.9 z m 122.9,0 h 2.2 v 8 c -1.3,-2.3 -2.1,-5 -2.2,-8 z m 2.2,27.5 v 61.8 c -11.6,-5.4 -19.6,-17.2 -19.6,-30.8 0,-13.7 8,-25.5 19.6,-31 z m 0,92.9 v 16.9 c -1.4,-2.5 -2.2,-5.4 -2.2,-8.5 0,-3.1 0.8,-6 2.2,-8.4 z m 0,36.3 v 61.8 c -11.6,-5.4 -19.6,-17.1 -19.6,-30.8 0,-13.7 8,-25.5 19.6,-31 z m 0,92.9 v 16.9 c -1.4,-2.5 -2.2,-5.3 -2.2,-8.4 0,-3.2 0.8,-6 2.2,-8.5 z m 0,36.5 v 61.8 c -11.6,-5.4 -19.6,-17.2 -19.6,-30.9 0,-13.8 8,-25.6 19.6,-30.9 z m 0,92.7 v 17 c -1.4,-2.6 -2.2,-5.4 -2.2,-8.5 0,-3.1 0.8,-6 2.2,-8.5 z m 0,36.5 v 61.8 c -11.6,-5.4 -19.6,-17.2 -19.6,-30.9 0,-13.7 8,-25.5 19.6,-30.9 z m 0,92.7 v 17 c -1.4,-2.5 -2.2,-5.4 -2.2,-8.5 0,-3.1 0.8,-6 2.2,-8.5 z m 0,36.5 v 61.8 c -11.6,-5.4 -19.6,-17.2 -19.6,-30.8 0,-13.7 8,-25.6 19.6,-31 z m 0,92.8 v 16.9 c -1.4,-2.5 -2.2,-5.4 -2.2,-8.5 0,-3 0.8,-5.9 2.2,-8.4 z m 0,36.4 v 61.8 c -11.6,-5.4 -19.6,-17.1 -19.6,-30.8 0,-13.7 8,-25.5 19.6,-31 z m 0,92.9 v 16.9 c -1.4,-2.5 -2.2,-5.3 -2.2,-8.4 0,-3.2 0.8,-6.1 2.2,-8.5 z m 0,36.5 v 61.8 c -11.6,-5.4 -19.6,-17.2 -19.6,-30.9 0,-13.8 8,-25.6 19.6,-30.9 z m 0,92.7 v 17 c -1.4,-2.6 -2.2,-5.4 -2.2,-8.5 0,-3.1 0.8,-6 2.2,-8.5 z m 0,36.5 V 980 h -15.1 c -3,-5 -4.5,-10.7 -4.5,-16.9 0,-13.6 8,-25.4 19.6,-30.8 z m -78.8,47.7 h -33.4 c 0.4,-9 7.7,-16.2 16.8,-16.2 8.9,0 16.3,7.2 16.6,16.2 z m -97.1,0 H 1165 c -3,-5 -4.5,-10.7 -4.5,-16.9 0,-18.8 15.2,-34 34,-34 18.8,0 34,15.2 34,34 0.1,6.2 -1.4,11.9 -4.4,16.9 z m -122.7,0 H 1068 c 0.4,-9 7.7,-16.2 16.8,-16.2 8.9,0 16.3,7.2 16.6,16.2 z m -97.1,0 h -59.1 c -3,-5 -4.5,-10.7 -4.5,-16.9 0,-18.8 15.2,-34 34,-34 18.8,0 34,15.2 34,34 0.1,6.2 -1.4,11.9 -4.4,16.9 z m -122.7,0 h -33.4 c 0.4,-9 7.7,-16.2 16.8,-16.2 8.9,0 16.2,7.2 16.6,16.2 z m -97.1,0 h -59.1 c -2.8,-5 -4.5,-10.7 -4.5,-16.9 0,-18.8 15.2,-34 34,-34 18.8,0 34,15.2 34,34 0.1,6.2 -1.4,11.9 -4.4,16.9 z m -122.7,0 h -33.4 c 0.4,-9 7.7,-16.2 16.8,-16.2 8.9,0 16.2,7.2 16.6,16.2 z m -97.1,0 h -59.1 c -2.8,-5 -4.5,-10.7 -4.5,-16.9 0,-18.8 15.2,-34 34,-34 18.8,0 34,15.2 34,34 0.1,6.2 -1.4,11.9 -4.4,16.9 z M 442,980 h -33.4 c 0.4,-9 7.7,-16.2 16.8,-16.2 8.9,0 16.2,7.2 16.6,16.2 z m -97.1,0 h -59.1 c -2.8,-5 -4.5,-10.7 -4.5,-16.9 0,-18.8 15.2,-34 34,-34 18.8,0 34,15.2 34,34 0.1,6.2 -1.5,11.9 -4.4,16.9 z m -122.7,0 h -33.4 c 0.4,-9 7.7,-16.2 16.8,-16.2 8.9,0 16.2,7.2 16.6,16.2 z m -97.1,0 H 66 c -2.8,-5 -4.5,-10.7 -4.5,-16.9 0,-18.8 15.2,-34 34,-34 18.8,0 34,15.2 34,34 0.1,6.2 -1.5,11.9 -4.4,16.9 z M 2.4,980 H 0 v -7.9 c 1.4,2.3 2.2,5.1 2.4,7.9 z M 0,952.5 v -61.8 c 11.7,5.4 19.7,17.2 19.7,30.9 0,13.8 -8,25.6 -19.7,30.9 z m 0,-92.7 v -17 c 1.5,2.6 2.4,5.4 2.4,8.5 0,3 -0.9,6 -2.4,8.5 z m 0,-36.5 v -61.8 c 11.7,5.4 19.7,17.2 19.7,30.9 0,13.6 -8,25.4 -19.7,30.9 z m 0,-92.8 v -17 c 1.5,2.5 2.4,5.4 2.4,8.5 0,3.1 -0.9,6.1 -2.4,8.5 z M 0,694 v -61.8 c 11.7,5.4 19.7,17.2 19.7,30.8 0,13.8 -8,25.6 -19.7,31 z m 0,-92.7 v -17 c 1.5,2.5 2.4,5.4 2.4,8.5 0,3.1 -0.9,6 -2.4,8.5 z M 0,564.8 V 503 c 11.7,5.4 19.7,17.1 19.7,30.8 0,13.8 -8,25.6 -19.7,31 z M 0,472 v -16.9 c 1.5,2.5 2.4,5.3 2.4,8.5 0,3.1 -0.9,5.9 -2.4,8.4 z m 0,-36.5 v -61.8 c 11.7,5.4 19.7,17.2 19.7,30.9 0,13.7 -8,25.6 -19.7,30.9 z m 0,-92.7 v -16.9 c 1.5,2.5 2.4,5.3 2.4,8.4 0,3.1 -0.9,6 -2.4,8.5 z m 0,-36.5 v -61.8 c 11.7,5.4 19.7,17.2 19.7,30.9 0,13.6 -8,25.4 -19.7,30.9 z m 0,-92.7 v -17 c 1.5,2.5 2.4,5.4 2.4,8.5 0,3 -0.9,6 -2.4,8.5 z m 0,-36.5 v -61.8 c 11.7,5.4 19.7,17.2 19.7,30.8 0,13.7 -8,25.5 -19.7,31 z M 0,84.3 v -17 c 1.5,2.5 2.4,5.4 2.4,8.5 0,3.1 -0.9,6.1 -2.4,8.5 z m 1374.7,823.3 c 9.2,0 16.7,7.4 16.7,16.7 0,9.2 -7.4,16.8 -16.7,16.8 -9.2,0 -16.8,-7.6 -16.8,-16.8 0.1,-9.3 7.6,-16.7 16.8,-16.7 z m -70.1,48.1 c 18.8,0 34,-15.2 34,-34 0,-18.8 -15.2,-34 -34,-34 -18.9,0 -34.1,15.2 -34.1,34 -0.1,18.7 15.2,34 34.1,34 z m -39.8,21.5 c 9.2,0 16.7,-7.4 16.7,-16.7 0,-9.2 -7.4,-16.7 -16.7,-16.7 -9.3,0 -16.7,7.4 -16.7,16.7 0,9.2 7.4,16.7 16.7,16.7 z m 79.5,0 c 9.2,0 16.7,-7.4 16.7,-16.7 0,-9.2 -7.4,-16.7 -16.7,-16.7 -9.2,0 -16.7,7.4 -16.7,16.7 0,9.2 7.4,16.7 16.7,16.7 z m -189.4,-69.6 c 9.2,0 16.7,7.4 16.7,16.7 0,9.2 -7.4,16.8 -16.7,16.8 -9.3,0 -16.8,-7.6 -16.8,-16.8 0,-9.3 7.6,-16.7 16.8,-16.7 z m 79.4,0 c 9.2,0 16.8,7.4 16.8,16.7 0,9.2 -7.6,16.8 -16.8,16.8 -9.2,0 -16.7,-7.6 -16.7,-16.8 0,-9.3 7.5,-16.7 16.7,-16.7 z m -39.7,-20 c 9.2,0 16.7,7.4 16.7,16.7 0,9.2 -7.4,16.7 -16.7,16.7 -9.3,0 -16.7,-7.4 -16.7,-16.7 0,-9.2 7.5,-16.7 16.7,-16.7 z m -109.8,68.1 c 18.8,0 34,-15.2 34,-34 0,-18.8 -15.2,-34 -34,-34 -18.9,0 -34.1,15.2 -34.1,34 -0.1,18.7 15.2,34 34.1,34 z m -39.8,21.5 c 9.2,0 16.7,-7.4 16.7,-16.7 0,-9.2 -7.4,-16.7 -16.7,-16.7 -9.2,0 -16.7,7.4 -16.7,16.7 0,9.2 7.4,16.7 16.7,16.7 z m 79.4,0 c 9.2,0 16.7,-7.4 16.7,-16.7 0,-9.2 -7.4,-16.7 -16.7,-16.7 -9.3,0 -16.7,7.4 -16.7,16.7 0.1,9.2 7.5,16.7 16.7,16.7 z M 935.1,907.6 c 9.2,0 16.7,7.4 16.7,16.7 0,9.2 -7.4,16.8 -16.7,16.8 -9.3,0 -16.8,-7.6 -16.8,-16.8 0,-9.3 7.6,-16.7 16.8,-16.7 z m 79.4,0 c 9.2,0 16.8,7.4 16.8,16.7 0,9.2 -7.6,16.8 -16.8,16.8 -9.2,0 -16.7,-7.6 -16.7,-16.8 0,-9.3 7.5,-16.7 16.7,-16.7 z m -39.7,-20 c 9.2,0 16.7,7.4 16.7,16.7 0,9.2 -7.4,16.7 -16.7,16.7 -9.2,0 -16.7,-7.4 -16.7,-16.7 0,-9.2 7.5,-16.7 16.7,-16.7 z m -109.9,68.1 c 18.8,0 34,-15.2 34,-34 0,-18.8 -15.2,-34 -34,-34 -18.9,0 -34.1,15.2 -34.1,34 0,18.7 15.2,34 34.1,34 z m -39.8,21.5 c 9.2,0 16.7,-7.4 16.7,-16.7 0,-9.2 -7.4,-16.7 -16.7,-16.7 -9.3,0 -16.7,7.4 -16.7,16.7 0.1,9.2 7.5,16.7 16.7,16.7 z m 79.5,0 c 9.2,0 16.7,-7.4 16.7,-16.7 0,-9.2 -7.4,-16.7 -16.7,-16.7 -9.2,0 -16.7,7.4 -16.7,16.7 0.1,9.2 7.5,16.7 16.7,16.7 z M 715.3,907.6 c 9.2,0 16.7,7.4 16.7,16.7 0,9.2 -7.4,16.8 -16.7,16.8 -9.2,0 -16.8,-7.6 -16.8,-16.8 0,-9.3 7.6,-16.7 16.8,-16.7 z m 79.4,0 c 9.2,0 16.8,7.4 16.8,16.7 0,9.2 -7.6,16.8 -16.8,16.8 -9.2,0 -16.7,-7.6 -16.7,-16.8 0,-9.3 7.5,-16.7 16.7,-16.7 z m -39.7,-20 c 9.2,0 16.7,7.4 16.7,16.7 0,9.2 -7.4,16.7 -16.7,16.7 -9.2,0 -16.7,-7.4 -16.7,-16.7 0,-9.2 7.5,-16.7 16.7,-16.7 z m -109.9,68.1 c 18.8,0 34,-15.2 34,-34 0,-18.8 -15.2,-34 -34,-34 -18.9,0 -34.1,15.2 -34.1,34 0,18.7 15.2,34 34.1,34 z m -39.8,21.5 c 9.2,0 16.7,-7.4 16.7,-16.7 0,-9.2 -7.4,-16.7 -16.7,-16.7 -9.2,0 -16.7,7.4 -16.7,16.7 0.1,9.2 7.5,16.7 16.7,16.7 z m 79.5,0 c 9.2,0 16.7,-7.4 16.7,-16.7 0,-9.2 -7.4,-16.7 -16.7,-16.7 -9.2,0 -16.7,7.4 -16.7,16.7 0.1,9.2 7.5,16.7 16.7,16.7 z M 495.5,907.6 c 9.2,0 16.7,7.4 16.7,16.7 0,9.2 -7.4,16.8 -16.7,16.8 -9.2,0 -16.8,-7.6 -16.8,-16.8 0,-9.3 7.6,-16.7 16.8,-16.7 z m 79.4,0 c 9.2,0 16.8,7.4 16.8,16.7 0,9.2 -7.6,16.8 -16.8,16.8 -9.2,0 -16.7,-7.6 -16.7,-16.8 0,-9.3 7.4,-16.7 16.7,-16.7 z m -39.7,-20 c 9.2,0 16.7,7.4 16.7,16.7 0,9.2 -7.4,16.7 -16.7,16.7 -9.2,0 -16.7,-7.4 -16.7,-16.7 0,-9.2 7.5,-16.7 16.7,-16.7 z m -109.9,68.1 c 18.8,0 34,-15.2 34,-34 0,-18.8 -15.2,-34 -34,-34 -18.9,0 -34.1,15.2 -34.1,34 0,18.7 15.2,34 34.1,34 z m -39.8,21.5 c 9.2,0 16.7,-7.4 16.7,-16.7 0,-9.2 -7.4,-16.7 -16.7,-16.7 -9.3,0 -16.7,7.4 -16.7,16.7 0.1,9.2 7.5,16.7 16.7,16.7 z m 79.5,0 c 9.2,0 16.7,-7.4 16.7,-16.7 0,-9.2 -7.4,-16.7 -16.7,-16.7 -9.2,0 -16.7,7.4 -16.7,16.7 0.1,9.2 7.5,16.7 16.7,16.7 z M 275.7,907.6 c 9.2,0 16.7,7.4 16.7,16.7 0,9.2 -7.4,16.8 -16.7,16.8 -9.2,0 -16.8,-7.6 -16.8,-16.8 0,-9.3 7.6,-16.7 16.8,-16.7 z m 79.3,0 c 9.2,0 16.8,7.4 16.8,16.7 0,9.2 -7.6,16.8 -16.8,16.8 -9.2,0 -16.7,-7.6 -16.7,-16.8 0.1,-9.3 7.5,-16.7 16.7,-16.7 z m -39.6,-20 c 9.2,0 16.7,7.4 16.7,16.7 0,9.2 -7.4,16.7 -16.7,16.7 -9.2,0 -16.7,-7.4 -16.7,-16.7 0,-9.2 7.5,-16.7 16.7,-16.7 z m -109.9,68.1 c 18.8,0 34,-15.2 34,-34 0,-18.8 -15.2,-34 -34,-34 -18.9,0 -34.1,15.2 -34.1,34 0,18.7 15.2,34 34.1,34 z m -39.8,21.5 c 9.2,0 16.7,-7.4 16.7,-16.7 0,-9.2 -7.4,-16.7 -16.7,-16.7 -9.2,0 -16.7,7.4 -16.7,16.7 0.1,9.2 7.5,16.7 16.7,16.7 z m 79.5,0 c 9.2,0 16.7,-7.4 16.7,-16.7 0,-9.2 -7.4,-16.7 -16.7,-16.7 -9.2,0 -16.7,7.4 -16.7,16.7 0,9.2 7.5,16.7 16.7,16.7 z M 55.9,907.6 c 9.2,0 16.7,7.4 16.7,16.7 0,9.2 -7.4,16.8 -16.7,16.8 -9.3,0 -16.8,-7.6 -16.8,-16.8 0,-9.3 7.6,-16.7 16.8,-16.7 z m 79.3,0 c 9.2,0 16.8,7.4 16.8,16.7 0,9.2 -7.6,16.8 -16.8,16.8 -9.2,0 -16.7,-7.6 -16.7,-16.8 0.1,-9.3 7.5,-16.7 16.7,-16.7 z m -39.6,-20 c 9.2,0 16.7,7.4 16.7,16.7 0,9.2 -7.4,16.7 -16.7,16.7 -9.3,0 -16.7,-7.4 -16.7,-16.7 0,-9.2 7.4,-16.7 16.7,-16.7 z m -70.2,89.6 c 9.2,0 16.7,-7.4 16.7,-16.7 0,-9.2 -7.4,-16.7 -16.7,-16.7 -9.3,0 -16.7,7.4 -16.7,16.7 0,9.2 7.5,16.7 16.7,16.7 z M 1374.7,778.4 c 9.2,0 16.7,7.4 16.7,16.7 0,9.2 -7.4,16.7 -16.7,16.7 -9.2,0 -16.8,-7.4 -16.8,-16.7 0.1,-9.3 7.6,-16.7 16.8,-16.7 z m -70.1,48.1 c 18.8,0 34,-15.2 34,-34 0,-18.9 -15.2,-34.1 -34,-34.1 -18.9,0 -34.1,15.2 -34.1,34.1 -0.1,18.7 15.2,34 34.1,34 z m -39.8,21.4 c 9.2,0 16.7,-7.4 16.7,-16.7 0,-9.2 -7.4,-16.8 -16.7,-16.8 -9.3,0 -16.7,7.6 -16.7,16.8 0,9.3 7.4,16.7 16.7,16.7 z m 79.5,0 c 9.2,0 16.7,-7.4 16.7,-16.7 0,-9.2 -7.4,-16.8 -16.7,-16.8 -9.2,0 -16.7,7.6 -16.7,16.8 0,9.3 7.4,16.7 16.7,16.7 z m -39.7,20 c 9.1,0 16.7,-7.4 16.7,-16.7 0,-9.2 -7.6,-16.7 -16.7,-16.7 -9.2,0 -16.8,7.4 -16.8,16.7 0,9.3 7.6,16.7 16.8,16.7 z m -110,-68 c 18.8,0 34,15.2 34,34 0,18.8 -15.2,34 -34,34 -18.8,0 -34,-15.2 -34,-34 0,-18.8 15.2,-34 34,-34 z m -39.7,-21.5 c 9.2,0 16.7,7.4 16.7,16.7 0,9.2 -7.4,16.7 -16.7,16.7 -9.3,0 -16.8,-7.4 -16.8,-16.7 0,-9.3 7.6,-16.7 16.8,-16.7 z m 79.4,0 c 9.2,0 16.8,7.4 16.8,16.7 0,9.2 -7.6,16.7 -16.8,16.7 -9.2,0 -16.7,-7.4 -16.7,-16.7 0,-9.3 7.5,-16.7 16.7,-16.7 z m -39.7,-20.1 c 9.2,0 16.7,7.6 16.7,16.8 0,9.1 -7.4,16.7 -16.7,16.7 -9.3,0 -16.7,-7.6 -16.7,-16.7 0,-9.2 7.5,-16.8 16.7,-16.8 z m -109.8,68.2 c 18.8,0 34,-15.2 34,-34 0,-18.9 -15.2,-34.1 -34,-34.1 -18.9,0 -34.1,15.2 -34.1,34.1 -0.1,18.7 15.2,34 34.1,34 z m -39.8,21.4 c 9.2,0 16.7,-7.4 16.7,-16.7 0,-9.2 -7.4,-16.8 -16.7,-16.8 -9.2,0 -16.7,7.6 -16.7,16.8 0,9.3 7.4,16.7 16.7,16.7 z m 79.4,0 c 9.2,0 16.7,-7.4 16.7,-16.7 0,-9.2 -7.4,-16.8 -16.7,-16.8 -9.3,0 -16.7,7.6 -16.7,16.8 0.1,9.3 7.5,16.7 16.7,16.7 z m -39.6,20 c 9.1,0 16.7,-7.4 16.7,-16.7 0,-9.2 -7.6,-16.7 -16.7,-16.7 -9.2,0 -16.8,7.4 -16.8,16.7 0,9.3 7.5,16.7 16.8,16.7 z m -110,-68 c 18.8,0 34,15.2 34,34 0,18.8 -15.2,34 -34,34 -18.8,0 -34,-15.2 -34,-34 0,-18.8 15.2,-34 34,-34 z m -39.7,-21.5 c 9.2,0 16.7,7.4 16.7,16.7 0,9.2 -7.4,16.7 -16.7,16.7 -9.3,0 -16.8,-7.4 -16.8,-16.7 0,-9.3 7.6,-16.7 16.8,-16.7 z m 79.4,0 c 9.2,0 16.8,7.4 16.8,16.7 0,9.2 -7.6,16.7 -16.8,16.7 -9.2,0 -16.7,-7.4 -16.7,-16.7 0,-9.3 7.5,-16.7 16.7,-16.7 z m -39.7,-20.1 c 9.2,0 16.7,7.6 16.7,16.8 0,9.1 -7.4,16.7 -16.7,16.7 -9.2,0 -16.7,-7.6 -16.7,-16.7 0,-9.2 7.5,-16.8 16.7,-16.8 z m -109.9,68.2 c 18.8,0 34,-15.2 34,-34 0,-18.9 -15.2,-34.1 -34,-34.1 -18.9,0 -34.1,15.2 -34.1,34.1 0,18.7 15.2,34 34.1,34 z m -39.8,21.4 c 9.2,0 16.7,-7.4 16.7,-16.7 0,-9.2 -7.4,-16.8 -16.7,-16.8 -9.3,0 -16.7,7.6 -16.7,16.8 0.1,9.3 7.5,16.7 16.7,16.7 z m 79.5,0 c 9.2,0 16.7,-7.4 16.7,-16.7 0,-9.2 -7.4,-16.8 -16.7,-16.8 -9.2,0 -16.7,7.6 -16.7,16.8 0.1,9.3 7.5,16.7 16.7,16.7 z m -39.7,20 c 9.1,0 16.7,-7.4 16.7,-16.7 0,-9.2 -7.6,-16.7 -16.7,-16.7 -9.2,0 -16.8,7.4 -16.8,16.7 0.1,9.3 7.6,16.7 16.8,16.7 z M 755,799.9 c 18.8,0 34,15.2 34,34 0,18.8 -15.2,34 -34,34 -18.8,0 -34,-15.2 -34,-34 0,-18.8 15.2,-34 34,-34 z m -39.7,-21.5 c 9.2,0 16.7,7.4 16.7,16.7 0,9.2 -7.4,16.7 -16.7,16.7 -9.2,0 -16.8,-7.4 -16.8,-16.7 0,-9.3 7.6,-16.7 16.8,-16.7 z m 79.4,0 c 9.2,0 16.8,7.4 16.8,16.7 0,9.2 -7.6,16.7 -16.8,16.7 -9.2,0 -16.7,-7.4 -16.7,-16.7 0,-9.3 7.5,-16.7 16.7,-16.7 z M 755,758.3 c 9.2,0 16.7,7.6 16.7,16.8 0,9.1 -7.4,16.7 -16.7,16.7 -9.2,0 -16.7,-7.6 -16.7,-16.7 0,-9.2 7.5,-16.8 16.7,-16.8 z m -109.9,68.2 c 18.8,0 34,-15.2 34,-34 0,-18.9 -15.2,-34.1 -34,-34.1 -18.9,0 -34.1,15.2 -34.1,34.1 0,18.7 15.2,34 34.1,34 z m -39.8,21.4 c 9.2,0 16.7,-7.4 16.7,-16.7 0,-9.2 -7.4,-16.8 -16.7,-16.8 -9.2,0 -16.7,7.6 -16.7,16.8 0.1,9.3 7.5,16.7 16.7,16.7 z m 79.5,0 c 9.2,0 16.7,-7.4 16.7,-16.7 0,-9.2 -7.4,-16.8 -16.7,-16.8 -9.2,0 -16.7,7.6 -16.7,16.8 0.1,9.3 7.5,16.7 16.7,16.7 z m -39.7,20 c 9.1,0 16.7,-7.4 16.7,-16.7 0,-9.2 -7.6,-16.7 -16.7,-16.7 -9.2,0 -16.8,7.4 -16.8,16.7 0.1,9.3 7.6,16.7 16.8,16.7 z m -109.9,-68 c 18.8,0 34,15.2 34,34 0,18.8 -15.2,34 -34,34 -18.8,0 -34,-15.2 -34,-34 0,-18.8 15.2,-34 34,-34 z m -39.7,-21.5 c 9.2,0 16.7,7.4 16.7,16.7 0,9.2 -7.4,16.7 -16.7,16.7 -9.2,0 -16.8,-7.4 -16.8,-16.7 0,-9.3 7.6,-16.7 16.8,-16.7 z m 79.4,0 c 9.2,0 16.8,7.4 16.8,16.7 0,9.2 -7.6,16.7 -16.8,16.7 -9.2,0 -16.7,-7.4 -16.7,-16.7 0,-9.3 7.4,-16.7 16.7,-16.7 z m -39.7,-20.1 c 9.2,0 16.7,7.6 16.7,16.8 0,9.1 -7.4,16.7 -16.7,16.7 -9.2,0 -16.7,-7.6 -16.7,-16.7 0,-9.2 7.5,-16.8 16.7,-16.8 z m -109.9,68.2 c 18.8,0 34,-15.2 34,-34 0,-18.9 -15.2,-34.1 -34,-34.1 -18.9,0 -34.1,15.2 -34.1,34.1 0,18.7 15.2,34 34.1,34 z m -39.8,21.4 c 9.2,0 16.7,-7.4 16.7,-16.7 0,-9.2 -7.4,-16.8 -16.7,-16.8 -9.3,0 -16.7,7.6 -16.7,16.8 0.1,9.3 7.5,16.7 16.7,16.7 z m 79.5,0 c 9.2,0 16.7,-7.4 16.7,-16.7 0,-9.2 -7.4,-16.8 -16.7,-16.8 -9.2,0 -16.7,7.6 -16.7,16.8 0.1,9.3 7.5,16.7 16.7,16.7 z m -39.7,20 c 9.1,0 16.7,-7.4 16.7,-16.7 0,-9.2 -7.6,-16.7 -16.7,-16.7 -9.2,0 -16.8,7.4 -16.8,16.7 0.1,9.3 7.6,16.7 16.8,16.7 z m -109.9,-68 c 18.8,0 34,15.2 34,34 0,18.8 -15.2,34 -34,34 -18.8,0 -34,-15.2 -34,-34 -0.1,-18.8 15.2,-34 34,-34 z m -39.7,-21.5 c 9.2,0 16.7,7.4 16.7,16.7 0,9.2 -7.4,16.7 -16.7,16.7 -9.2,0 -16.8,-7.4 -16.8,-16.7 0,-9.3 7.6,-16.7 16.8,-16.7 z m 79.3,0 c 9.2,0 16.8,7.4 16.8,16.7 0,9.2 -7.6,16.7 -16.8,16.7 -9.2,0 -16.7,-7.4 -16.7,-16.7 0.1,-9.3 7.5,-16.7 16.7,-16.7 z m -39.6,-20.1 c 9.2,0 16.7,7.6 16.7,16.8 0,9.1 -7.4,16.7 -16.7,16.7 -9.2,0 -16.7,-7.6 -16.7,-16.7 0,-9.2 7.5,-16.8 16.7,-16.8 z m -109.9,68.2 c 18.8,0 34,-15.2 34,-34 0,-18.9 -15.2,-34.1 -34,-34.1 -18.9,0 -34.1,15.2 -34.1,34.1 0,18.7 15.2,34 34.1,34 z m -39.8,21.4 c 9.2,0 16.7,-7.4 16.7,-16.7 0,-9.2 -7.4,-16.8 -16.7,-16.8 -9.2,0 -16.7,7.6 -16.7,16.8 0.1,9.3 7.5,16.7 16.7,16.7 z m 79.5,0 c 9.2,0 16.7,-7.4 16.7,-16.7 0,-9.2 -7.4,-16.8 -16.7,-16.8 -9.2,0 -16.7,7.6 -16.7,16.8 0,9.3 7.5,16.7 16.7,16.7 z m -39.7,20 c 9.1,0 16.7,-7.4 16.7,-16.7 0,-9.2 -7.6,-16.7 -16.7,-16.7 -9.2,0 -16.8,7.4 -16.8,16.7 0,9.3 7.6,16.7 16.8,16.7 z m -109.9,-68 c 18.8,0 34,15.2 34,34 0,18.8 -15.2,34 -34,34 -18.8,0 -34,-15.2 -34,-34 -0.1,-18.8 15.2,-34 34,-34 z M 55.9,778.4 c 9.2,0 16.7,7.4 16.7,16.7 0,9.2 -7.4,16.7 -16.7,16.7 -9.3,0 -16.8,-7.4 -16.8,-16.7 0,-9.3 7.6,-16.7 16.8,-16.7 z m 79.3,0 c 9.2,0 16.8,7.4 16.8,16.7 0,9.2 -7.6,16.7 -16.8,16.7 -9.2,0 -16.7,-7.4 -16.7,-16.7 0.1,-9.3 7.5,-16.7 16.7,-16.7 z M 95.6,758.3 c 9.2,0 16.7,7.6 16.7,16.8 0,9.1 -7.4,16.7 -16.7,16.7 -9.3,0 -16.7,-7.6 -16.7,-16.7 0,-9.2 7.4,-16.8 16.7,-16.8 z m -70.2,89.6 c 9.2,0 16.7,-7.4 16.7,-16.7 0,-9.2 -7.4,-16.8 -16.7,-16.8 -9.3,0 -16.7,7.6 -16.7,16.8 0,9.3 7.5,16.7 16.7,16.7 z M 1374.7,649.2 c 9.2,0 16.7,7.4 16.7,16.7 0,9.2 -7.4,16.7 -16.7,16.7 -9.2,0 -16.8,-7.4 -16.8,-16.7 0.1,-9.3 7.6,-16.7 16.8,-16.7 z m -70.1,48 c 18.8,0 34,-15.2 34,-34.1 0,-18.8 -15.2,-34 -34,-34 -18.9,0 -34.1,15.2 -34.1,34 -0.1,18.9 15.2,34.1 34.1,34.1 z m -39.8,21.4 c 9.2,0 16.7,-7.4 16.7,-16.7 0,-9.2 -7.4,-16.7 -16.7,-16.7 -9.3,0 -16.7,7.4 -16.7,16.7 0,9.3 7.4,16.7 16.7,16.7 z m 79.5,0 c 9.2,0 16.7,-7.4 16.7,-16.7 0,-9.2 -7.4,-16.7 -16.7,-16.7 -9.2,0 -16.7,7.4 -16.7,16.7 0,9.3 7.4,16.7 16.7,16.7 z m -39.7,20.1 c 9.1,0 16.7,-7.4 16.7,-16.7 0,-9.3 -7.6,-16.7 -16.7,-16.7 -9.2,0 -16.8,7.4 -16.8,16.7 0,9.3 7.6,16.7 16.8,16.7 z m -110,-68 c 18.8,0 34,15.2 34,34 0,18.8 -15.2,34 -34,34 -18.8,0 -34,-15.2 -34,-34 0,-18.8 15.2,-34 34,-34 z m -39.7,-21.5 c 9.2,0 16.7,7.4 16.7,16.7 0,9.2 -7.4,16.7 -16.7,16.7 -9.3,0 -16.8,-7.4 -16.8,-16.7 0,-9.3 7.6,-16.7 16.8,-16.7 z m 79.4,0 c 9.2,0 16.8,7.4 16.8,16.7 0,9.2 -7.6,16.7 -16.8,16.7 -9.2,0 -16.7,-7.4 -16.7,-16.7 0,-9.3 7.5,-16.7 16.7,-16.7 z m -39.7,-20.1 c 9.2,0 16.7,7.4 16.7,16.7 0,9.2 -7.4,16.7 -16.7,16.7 -9.3,0 -16.7,-7.4 -16.7,-16.7 0,-9.3 7.5,-16.7 16.7,-16.7 z m -109.8,68.1 c 18.8,0 34,-15.2 34,-34.1 0,-18.8 -15.2,-34 -34,-34 -18.9,0 -34.1,15.2 -34.1,34 -0.1,18.9 15.2,34.1 34.1,34.1 z m -39.8,21.4 c 9.2,0 16.7,-7.4 16.7,-16.7 0,-9.2 -7.4,-16.7 -16.7,-16.7 -9.2,0 -16.7,7.4 -16.7,16.7 0,9.3 7.4,16.7 16.7,16.7 z m 79.4,0 c 9.2,0 16.7,-7.4 16.7,-16.7 0,-9.2 -7.4,-16.7 -16.7,-16.7 -9.3,0 -16.7,7.4 -16.7,16.7 0.1,9.3 7.5,16.7 16.7,16.7 z m -39.6,20.1 c 9.1,0 16.7,-7.4 16.7,-16.7 0,-9.3 -7.6,-16.7 -16.7,-16.7 -9.2,0 -16.8,7.4 -16.8,16.7 0,9.3 7.5,16.7 16.8,16.7 z m -110,-68 c 18.8,0 34,15.2 34,34 0,18.8 -15.2,34 -34,34 -18.8,0 -34,-15.2 -34,-34 0,-18.8 15.2,-34 34,-34 z m -39.7,-21.5 c 9.2,0 16.7,7.4 16.7,16.7 0,9.2 -7.4,16.7 -16.7,16.7 -9.3,0 -16.8,-7.4 -16.8,-16.7 0,-9.3 7.6,-16.7 16.8,-16.7 z m 79.4,0 c 9.2,0 16.8,7.4 16.8,16.7 0,9.2 -7.6,16.7 -16.8,16.7 -9.2,0 -16.7,-7.4 -16.7,-16.7 0,-9.3 7.5,-16.7 16.7,-16.7 z m -39.7,-20.1 c 9.2,0 16.7,7.4 16.7,16.7 0,9.2 -7.4,16.7 -16.7,16.7 -9.2,0 -16.7,-7.4 -16.7,-16.7 0,-9.3 7.5,-16.7 16.7,-16.7 z m -109.9,68.1 c 18.8,0 34,-15.2 34,-34.1 0,-18.8 -15.2,-34 -34,-34 -18.9,0 -34.1,15.2 -34.1,34 0,18.9 15.2,34.1 34.1,34.1 z m -39.8,21.4 c 9.2,0 16.7,-7.4 16.7,-16.7 0,-9.2 -7.4,-16.7 -16.7,-16.7 -9.3,0 -16.7,7.4 -16.7,16.7 0.1,9.3 7.5,16.7 16.7,16.7 z m 79.5,0 c 9.2,0 16.7,-7.4 16.7,-16.7 0,-9.2 -7.4,-16.7 -16.7,-16.7 -9.2,0 -16.7,7.4 -16.7,16.7 0.1,9.3 7.5,16.7 16.7,16.7 z m -39.7,20.1 c 9.1,0 16.7,-7.4 16.7,-16.7 0,-9.3 -7.6,-16.7 -16.7,-16.7 -9.2,0 -16.8,7.4 -16.8,16.7 0,9.3 7.6,16.7 16.8,16.7 z M 755,670.7 c 18.8,0 34,15.2 34,34 0,18.8 -15.2,34 -34,34 -18.8,0 -34,-15.2 -34,-34 0,-18.8 15.2,-34 34,-34 z m -39.7,-21.5 c 9.2,0 16.7,7.4 16.7,16.7 0,9.2 -7.4,16.7 -16.7,16.7 -9.2,0 -16.8,-7.4 -16.8,-16.7 0,-9.3 7.6,-16.7 16.8,-16.7 z m 79.4,0 c 9.2,0 16.8,7.4 16.8,16.7 0,9.2 -7.6,16.7 -16.8,16.7 -9.2,0 -16.7,-7.4 -16.7,-16.7 0,-9.3 7.5,-16.7 16.7,-16.7 z M 755,629.1 c 9.2,0 16.7,7.4 16.7,16.7 0,9.2 -7.4,16.7 -16.7,16.7 -9.2,0 -16.7,-7.4 -16.7,-16.7 0,-9.3 7.5,-16.7 16.7,-16.7 z m -109.9,68.1 c 18.8,0 34,-15.2 34,-34.1 0,-18.8 -15.2,-34 -34,-34 -18.9,0 -34.1,15.2 -34.1,34 0,18.9 15.2,34.1 34.1,34.1 z m -39.8,21.4 c 9.2,0 16.7,-7.4 16.7,-16.7 0,-9.2 -7.4,-16.7 -16.7,-16.7 -9.2,0 -16.7,7.4 -16.7,16.7 0.1,9.3 7.5,16.7 16.7,16.7 z m 79.5,0 c 9.2,0 16.7,-7.4 16.7,-16.7 0,-9.2 -7.4,-16.7 -16.7,-16.7 -9.2,0 -16.7,7.4 -16.7,16.7 0.1,9.3 7.5,16.7 16.7,16.7 z m -39.7,20.1 c 9.1,0 16.7,-7.4 16.7,-16.7 0,-9.3 -7.6,-16.7 -16.7,-16.7 -9.2,0 -16.8,7.4 -16.8,16.7 0,9.3 7.6,16.7 16.8,16.7 z m -109.9,-68 c 18.8,0 34,15.2 34,34 0,18.8 -15.2,34 -34,34 -18.8,0 -34,-15.2 -34,-34 0,-18.8 15.2,-34 34,-34 z m -39.7,-21.5 c 9.2,0 16.7,7.4 16.7,16.7 0,9.2 -7.4,16.7 -16.7,16.7 -9.2,0 -16.8,-7.4 -16.8,-16.7 0,-9.3 7.6,-16.7 16.8,-16.7 z m 79.4,0 c 9.2,0 16.8,7.4 16.8,16.7 0,9.2 -7.6,16.7 -16.8,16.7 -9.2,0 -16.7,-7.4 -16.7,-16.7 0,-9.3 7.4,-16.7 16.7,-16.7 z m -39.7,-20.1 c 9.2,0 16.7,7.4 16.7,16.7 0,9.2 -7.4,16.7 -16.7,16.7 -9.2,0 -16.7,-7.4 -16.7,-16.7 0,-9.3 7.5,-16.7 16.7,-16.7 z m -109.9,68.1 c 18.8,0 34,-15.2 34,-34.1 0,-18.8 -15.2,-34 -34,-34 -18.9,0 -34.1,15.2 -34.1,34 0,18.9 15.2,34.1 34.1,34.1 z m -39.8,21.4 c 9.2,0 16.7,-7.4 16.7,-16.7 0,-9.2 -7.4,-16.7 -16.7,-16.7 -9.3,0 -16.7,7.4 -16.7,16.7 0.1,9.3 7.5,16.7 16.7,16.7 z m 79.5,0 c 9.2,0 16.7,-7.4 16.7,-16.7 0,-9.2 -7.4,-16.7 -16.7,-16.7 -9.2,0 -16.7,7.4 -16.7,16.7 0.1,9.3 7.5,16.7 16.7,16.7 z m -39.7,20.1 c 9.1,0 16.7,-7.4 16.7,-16.7 0,-9.3 -7.6,-16.7 -16.7,-16.7 -9.2,0 -16.8,7.4 -16.8,16.7 0,9.3 7.6,16.7 16.8,16.7 z m -109.9,-68 c 18.8,0 34,15.2 34,34 0,18.8 -15.2,34 -34,34 -18.8,0 -34,-15.2 -34,-34 -0.1,-18.8 15.2,-34 34,-34 z m -39.7,-21.5 c 9.2,0 16.7,7.4 16.7,16.7 0,9.2 -7.4,16.7 -16.7,16.7 -9.2,0 -16.8,-7.4 -16.8,-16.7 0,-9.3 7.6,-16.7 16.8,-16.7 z m 79.3,0 c 9.2,0 16.8,7.4 16.8,16.7 0,9.2 -7.6,16.7 -16.8,16.7 -9.2,0 -16.7,-7.4 -16.7,-16.7 0.1,-9.3 7.5,-16.7 16.7,-16.7 z m -39.6,-20.1 c 9.2,0 16.7,7.4 16.7,16.7 0,9.2 -7.4,16.7 -16.7,16.7 -9.2,0 -16.7,-7.4 -16.7,-16.7 0,-9.3 7.5,-16.7 16.7,-16.7 z m -109.9,68.1 c 18.8,0 34,-15.2 34,-34.1 0,-18.8 -15.2,-34 -34,-34 -18.9,0 -34.1,15.2 -34.1,34 0,18.9 15.2,34.1 34.1,34.1 z m -39.8,21.4 c 9.2,0 16.7,-7.4 16.7,-16.7 0,-9.2 -7.4,-16.7 -16.7,-16.7 -9.2,0 -16.7,7.4 -16.7,16.7 0.1,9.3 7.5,16.7 16.7,16.7 z m 79.5,0 c 9.2,0 16.7,-7.4 16.7,-16.7 0,-9.2 -7.4,-16.7 -16.7,-16.7 -9.2,0 -16.7,7.4 -16.7,16.7 0,9.3 7.5,16.7 16.7,16.7 z m -39.7,20.1 c 9.1,0 16.7,-7.4 16.7,-16.7 0,-9.3 -7.6,-16.7 -16.7,-16.7 -9.2,0 -16.8,7.4 -16.8,16.7 0,9.3 7.6,16.7 16.8,16.7 z m -109.9,-68 c 18.8,0 34,15.2 34,34 0,18.8 -15.2,34 -34,34 -18.8,0 -34,-15.2 -34,-34 -0.1,-18.8 15.2,-34 34,-34 z M 55.9,649.2 c 9.2,0 16.7,7.4 16.7,16.7 0,9.2 -7.4,16.7 -16.7,16.7 -9.3,0 -16.8,-7.4 -16.8,-16.7 0,-9.3 7.6,-16.7 16.8,-16.7 z m 79.3,0 c 9.2,0 16.8,7.4 16.8,16.7 0,9.2 -7.6,16.7 -16.8,16.7 -9.2,0 -16.7,-7.4 -16.7,-16.7 0.1,-9.3 7.5,-16.7 16.7,-16.7 z M 95.6,629.1 c 9.2,0 16.7,7.4 16.7,16.7 0,9.2 -7.4,16.7 -16.7,16.7 -9.3,0 -16.7,-7.4 -16.7,-16.7 0,-9.3 7.4,-16.7 16.7,-16.7 z m -70.2,89.5 c 9.2,0 16.7,-7.4 16.7,-16.7 0,-9.2 -7.4,-16.7 -16.7,-16.7 -9.3,0 -16.7,7.5 -16.7,16.8 0,9.2 7.5,16.6 16.7,16.6 z M 1374.7,519.9 c 9.2,0 16.7,7.4 16.7,16.7 0,9.2 -7.4,16.7 -16.7,16.7 -9.2,0 -16.8,-7.4 -16.8,-16.7 0.1,-9.2 7.6,-16.7 16.8,-16.7 z m -70.1,48.1 c 18.8,0 34,-15.4 34,-34.1 0,-18.7 -15.2,-34 -34,-34 -18.9,0 -34.1,15.2 -34.1,34 0,18.8 15.2,34.1 34.1,34.1 z m -39.8,21.4 c 9.2,0 16.7,-7.4 16.7,-16.7 0,-9.2 -7.4,-16.7 -16.7,-16.7 -9.3,0 -16.7,7.4 -16.7,16.7 0,9.3 7.4,16.7 16.7,16.7 z m 79.5,0 c 9.2,0 16.7,-7.4 16.7,-16.7 0,-9.2 -7.4,-16.7 -16.7,-16.7 -9.2,0 -16.7,7.4 -16.7,16.7 0,9.3 7.4,16.7 16.7,16.7 z m -39.7,20.1 c 9.1,0 16.7,-7.4 16.7,-16.7 0,-9.2 -7.6,-16.7 -16.7,-16.7 -9.2,0 -16.8,7.4 -16.8,16.7 0,9.2 7.6,16.7 16.8,16.7 z m -110,-68.2 c 18.8,0 34,15.2 34,34.1 0,18.8 -15.2,34 -34,34 -18.8,0 -34,-15.2 -34,-34 0,-18.8 15.2,-34.1 34,-34.1 z m -39.7,-21.4 c 9.2,0 16.7,7.4 16.7,16.7 0,9.2 -7.4,16.7 -16.7,16.7 -9.3,0 -16.8,-7.4 -16.8,-16.7 0,-9.2 7.6,-16.7 16.8,-16.7 z m 79.4,0 c 9.2,0 16.8,7.4 16.8,16.7 0,9.2 -7.6,16.7 -16.8,16.7 -9.2,0 -16.7,-7.4 -16.7,-16.7 0,-9.2 7.5,-16.7 16.7,-16.7 z m -39.7,-20 c 9.2,0 16.7,7.4 16.7,16.7 0,9.2 -7.4,16.7 -16.7,16.7 -9.3,0 -16.7,-7.4 -16.7,-16.7 0,-9.3 7.5,-16.7 16.7,-16.7 z M 1084.8,568 c 18.8,0 34,-15.4 34,-34.1 0,-18.7 -15.2,-34 -34,-34 -18.9,0 -34.1,15.2 -34.1,34 0,18.8 15.2,34.1 34.1,34.1 z m -39.8,21.4 c 9.2,0 16.7,-7.4 16.7,-16.7 0,-9.2 -7.4,-16.7 -16.7,-16.7 -9.2,0 -16.7,7.4 -16.7,16.7 0,9.3 7.4,16.7 16.7,16.7 z m 79.4,0 c 9.2,0 16.7,-7.4 16.7,-16.7 0,-9.2 -7.4,-16.7 -16.7,-16.7 -9.3,0 -16.7,7.4 -16.7,16.7 0.1,9.3 7.5,16.7 16.7,16.7 z m -39.6,20.1 c 9.1,0 16.7,-7.4 16.7,-16.7 0,-9.2 -7.6,-16.7 -16.7,-16.7 -9.2,0 -16.8,7.4 -16.8,16.7 0,9.2 7.5,16.7 16.8,16.7 z m -110,-68.2 c 18.8,0 34,15.2 34,34.1 0,18.8 -15.2,34 -34,34 -18.8,0 -34,-15.2 -34,-34 0,-18.8 15.2,-34.1 34,-34.1 z m -39.7,-21.4 c 9.2,0 16.7,7.4 16.7,16.7 0,9.2 -7.4,16.7 -16.7,16.7 -9.3,0 -16.8,-7.4 -16.8,-16.7 0,-9.2 7.6,-16.7 16.8,-16.7 z m 79.4,0 c 9.2,0 16.8,7.4 16.8,16.7 0,9.2 -7.6,16.7 -16.8,16.7 -9.2,0 -16.7,-7.4 -16.7,-16.7 0,-9.2 7.5,-16.7 16.7,-16.7 z m -39.7,-20 c 9.2,0 16.7,7.4 16.7,16.7 0,9.2 -7.4,16.7 -16.7,16.7 -9.2,0 -16.7,-7.4 -16.7,-16.7 0,-9.3 7.5,-16.7 16.7,-16.7 z M 864.9,568 c 18.8,0 34,-15.4 34,-34.1 0,-18.7 -15.2,-34 -34,-34 -18.9,0 -34.1,15.2 -34.1,34 0,18.8 15.2,34.1 34.1,34.1 z m -39.8,21.4 c 9.2,0 16.7,-7.4 16.7,-16.7 0,-9.2 -7.4,-16.7 -16.7,-16.7 -9.3,0 -16.7,7.4 -16.7,16.7 0.1,9.3 7.5,16.7 16.7,16.7 z m 79.5,0 c 9.2,0 16.7,-7.4 16.7,-16.7 0,-9.2 -7.4,-16.7 -16.7,-16.7 -9.2,0 -16.7,7.4 -16.7,16.7 0.1,9.3 7.5,16.7 16.7,16.7 z m -39.7,20.1 c 9.1,0 16.7,-7.4 16.7,-16.7 0,-9.2 -7.6,-16.7 -16.7,-16.7 -9.2,0 -16.8,7.4 -16.8,16.7 0.1,9.2 7.6,16.7 16.8,16.7 z M 755,541.3 c 18.8,0 34,15.2 34,34.1 0,18.8 -15.2,34 -34,34 -18.8,0 -34,-15.2 -34,-34 0,-18.8 15.2,-34.1 34,-34.1 z m -39.7,-21.4 c 9.2,0 16.7,7.4 16.7,16.7 0,9.2 -7.4,16.7 -16.7,16.7 -9.2,0 -16.8,-7.4 -16.8,-16.7 0,-9.2 7.6,-16.7 16.8,-16.7 z m 79.4,0 c 9.2,0 16.8,7.4 16.8,16.7 0,9.2 -7.6,16.7 -16.8,16.7 -9.2,0 -16.7,-7.4 -16.7,-16.7 0,-9.2 7.5,-16.7 16.7,-16.7 z m -39.7,-20 c 9.2,0 16.7,7.4 16.7,16.7 0,9.2 -7.4,16.7 -16.7,16.7 -9.2,0 -16.7,-7.4 -16.7,-16.7 0,-9.3 7.5,-16.7 16.7,-16.7 z M 645.1,568 c 18.8,0 34,-15.4 34,-34.1 0,-18.7 -15.2,-34 -34,-34 -18.9,0 -34.1,15.2 -34.1,34 0,18.8 15.2,34.1 34.1,34.1 z m -39.8,21.4 c 9.2,0 16.7,-7.4 16.7,-16.7 0,-9.2 -7.4,-16.7 -16.7,-16.7 -9.2,0 -16.7,7.4 -16.7,16.7 0.1,9.3 7.5,16.7 16.7,16.7 z m 79.5,0 c 9.2,0 16.7,-7.4 16.7,-16.7 0,-9.2 -7.4,-16.7 -16.7,-16.7 -9.2,0 -16.7,7.4 -16.7,16.7 0.1,9.3 7.5,16.7 16.7,16.7 z m -39.7,20.1 c 9.1,0 16.7,-7.4 16.7,-16.7 0,-9.2 -7.6,-16.7 -16.7,-16.7 -9.2,0 -16.8,7.4 -16.8,16.7 0.1,9.2 7.6,16.7 16.8,16.7 z M 535.2,541.3 c 18.8,0 34,15.2 34,34.1 0,18.8 -15.2,34 -34,34 -18.8,0 -34,-15.2 -34,-34 0,-18.8 15.2,-34.1 34,-34.1 z m -39.7,-21.4 c 9.2,0 16.7,7.4 16.7,16.7 0,9.2 -7.4,16.7 -16.7,16.7 -9.2,0 -16.8,-7.4 -16.8,-16.7 0,-9.2 7.6,-16.7 16.8,-16.7 z m 79.4,0 c 9.2,0 16.8,7.4 16.8,16.7 0,9.2 -7.6,16.7 -16.8,16.7 -9.2,0 -16.7,-7.4 -16.7,-16.7 0,-9.2 7.4,-16.7 16.7,-16.7 z m -39.7,-20 c 9.2,0 16.7,7.4 16.7,16.7 0,9.2 -7.4,16.7 -16.7,16.7 -9.2,0 -16.7,-7.4 -16.7,-16.7 0,-9.3 7.5,-16.7 16.7,-16.7 z M 425.3,568 c 18.8,0 34,-15.4 34,-34.1 0,-18.7 -15.2,-34 -34,-34 -18.9,0 -34.1,15.2 -34.1,34 0,18.8 15.2,34.1 34.1,34.1 z m -39.8,21.4 c 9.2,0 16.7,-7.4 16.7,-16.7 0,-9.2 -7.4,-16.7 -16.7,-16.7 -9.3,0 -16.7,7.4 -16.7,16.7 0.1,9.3 7.5,16.7 16.7,16.7 z m 79.5,0 c 9.2,0 16.7,-7.4 16.7,-16.7 0,-9.2 -7.4,-16.7 -16.7,-16.7 -9.2,0 -16.7,7.4 -16.7,16.7 0.1,9.3 7.5,16.7 16.7,16.7 z m -39.7,20.1 c 9.1,0 16.7,-7.4 16.7,-16.7 0,-9.2 -7.6,-16.7 -16.7,-16.7 -9.2,0 -16.8,7.4 -16.8,16.7 0.1,9.2 7.6,16.7 16.8,16.7 z M 315.4,541.3 c 18.8,0 34,15.2 34,34.1 0,18.8 -15.2,34 -34,34 -18.8,0 -34,-15.2 -34,-34 -0.1,-18.8 15.2,-34.1 34,-34.1 z m -39.7,-21.4 c 9.2,0 16.7,7.4 16.7,16.7 0,9.2 -7.4,16.7 -16.7,16.7 -9.2,0 -16.8,-7.4 -16.8,-16.7 0,-9.2 7.6,-16.7 16.8,-16.7 z m 79.3,0 c 9.2,0 16.8,7.4 16.8,16.7 0,9.2 -7.6,16.7 -16.8,16.7 -9.2,0 -16.7,-7.4 -16.7,-16.7 0.1,-9.2 7.5,-16.7 16.7,-16.7 z m -39.6,-20 c 9.2,0 16.7,7.4 16.7,16.7 0,9.2 -7.4,16.7 -16.7,16.7 -9.2,0 -16.7,-7.4 -16.7,-16.7 0,-9.3 7.5,-16.7 16.7,-16.7 z M 205.5,568 c 18.8,0 34,-15.4 34,-34.1 0,-18.7 -15.2,-34 -34,-34 -18.9,0 -34.1,15.2 -34.1,34 0,18.8 15.2,34.1 34.1,34.1 z m -39.8,21.4 c 9.2,0 16.7,-7.4 16.7,-16.7 0,-9.2 -7.4,-16.7 -16.7,-16.7 -9.2,0 -16.7,7.4 -16.7,16.7 0.1,9.3 7.5,16.7 16.7,16.7 z m 79.5,0 c 9.2,0 16.7,-7.4 16.7,-16.7 0,-9.2 -7.4,-16.7 -16.7,-16.7 -9.2,0 -16.7,7.4 -16.7,16.7 0,9.3 7.5,16.7 16.7,16.7 z m -39.7,20.1 c 9.1,0 16.7,-7.4 16.7,-16.7 0,-9.2 -7.6,-16.7 -16.7,-16.7 -9.2,0 -16.8,7.4 -16.8,16.7 0,9.2 7.6,16.7 16.8,16.7 z M 95.6,541.3 c 18.8,0 34,15.2 34,34.1 0,18.8 -15.2,34 -34,34 -18.8,0 -34,-15.2 -34,-34 -0.1,-18.8 15.2,-34.1 34,-34.1 z M 55.9,519.9 c 9.2,0 16.7,7.4 16.7,16.7 0,9.2 -7.4,16.7 -16.7,16.7 -9.3,0 -16.8,-7.4 -16.8,-16.7 0,-9.2 7.6,-16.7 16.8,-16.7 z m 79.3,0 c 9.2,0 16.8,7.4 16.8,16.7 0,9.2 -7.6,16.7 -16.8,16.7 -9.2,0 -16.7,-7.4 -16.7,-16.7 0.1,-9.2 7.5,-16.7 16.7,-16.7 z m -39.6,-20 c 9.2,0 16.7,7.4 16.7,16.7 0,9.2 -7.4,16.7 -16.7,16.7 -9.3,0 -16.7,-7.4 -16.7,-16.7 0,-9.3 7.4,-16.7 16.7,-16.7 z m -70.2,89.5 c 9.2,0 16.7,-7.4 16.7,-16.7 0,-9.2 -7.4,-16.7 -16.7,-16.7 -9.3,0 -16.7,7.4 -16.7,16.7 0,9.3 7.5,16.7 16.7,16.7 z M 1374.7,390.6 c 9.2,0 16.7,7.6 16.7,16.7 0,9.2 -7.4,16.8 -16.7,16.8 -9.2,0 -16.8,-7.6 -16.8,-16.8 0.1,-9.1 7.6,-16.7 16.8,-16.7 z m -70.1,48.1 c 18.8,0 34,-15.2 34,-34 0,-18.8 -15.2,-34 -34,-34 -18.9,0 -34.1,15.2 -34.1,34 -0.1,18.7 15.2,34 34.1,34 z m -39.8,21.5 c 9.2,0 16.7,-7.4 16.7,-16.7 0,-9.2 -7.4,-16.7 -16.7,-16.7 -9.3,0 -16.7,7.4 -16.7,16.7 0,9.2 7.4,16.7 16.7,16.7 z m 79.5,0 c 9.2,0 16.7,-7.4 16.7,-16.7 0,-9.2 -7.4,-16.7 -16.7,-16.7 -9.2,0 -16.7,7.4 -16.7,16.7 0,9.2 7.4,16.7 16.7,16.7 z m -39.7,20.1 c 9.1,0 16.7,-7.6 16.7,-16.7 0,-9.2 -7.6,-16.8 -16.7,-16.8 -9.2,0 -16.8,7.6 -16.8,16.8 0,9.1 7.6,16.7 16.8,16.7 z m -110,-68.2 c 18.8,0 34,15.2 34,34 0,18.9 -15.2,34.1 -34,34.1 -18.8,0 -34,-15.2 -34,-34.1 0,-18.8 15.2,-34 34,-34 z m -39.7,-21.5 c 9.2,0 16.7,7.6 16.7,16.7 0,9.2 -7.4,16.8 -16.7,16.8 -9.3,0 -16.8,-7.6 -16.8,-16.8 0,-9.1 7.6,-16.7 16.8,-16.7 z m 79.4,0 c 9.2,0 16.8,7.6 16.8,16.7 0,9.2 -7.6,16.8 -16.8,16.8 -9.2,0 -16.7,-7.6 -16.7,-16.8 0,-9.1 7.5,-16.7 16.7,-16.7 z m -39.7,-20 c 9.2,0 16.7,7.4 16.7,16.7 0,9.2 -7.4,16.7 -16.7,16.7 -9.3,0 -16.7,-7.4 -16.7,-16.7 0,-9.2 7.5,-16.7 16.7,-16.7 z m -109.8,68.1 c 18.8,0 34,-15.2 34,-34 0,-18.8 -15.2,-34 -34,-34 -18.9,0 -34.1,15.2 -34.1,34 -0.1,18.7 15.2,34 34.1,34 z m -39.8,21.5 c 9.2,0 16.7,-7.4 16.7,-16.7 0,-9.2 -7.4,-16.7 -16.7,-16.7 -9.2,0 -16.7,7.4 -16.7,16.7 0,9.2 7.4,16.7 16.7,16.7 z m 79.4,0 c 9.2,0 16.7,-7.4 16.7,-16.7 0,-9.2 -7.4,-16.7 -16.7,-16.7 -9.3,0 -16.7,7.4 -16.7,16.7 0.1,9.2 7.5,16.7 16.7,16.7 z m -39.6,20.1 c 9.1,0 16.7,-7.6 16.7,-16.7 0,-9.2 -7.6,-16.8 -16.7,-16.8 -9.2,0 -16.8,7.6 -16.8,16.8 0,9.1 7.5,16.7 16.8,16.7 z m -110,-68.2 c 18.8,0 34,15.2 34,34 0,18.9 -15.2,34.1 -34,34.1 -18.8,0 -34,-15.2 -34,-34.1 0,-18.8 15.2,-34 34,-34 z m -39.7,-21.5 c 9.2,0 16.7,7.6 16.7,16.7 0,9.2 -7.4,16.8 -16.7,16.8 -9.3,0 -16.8,-7.6 -16.8,-16.8 0,-9.1 7.6,-16.7 16.8,-16.7 z m 79.4,0 c 9.2,0 16.8,7.6 16.8,16.7 0,9.2 -7.6,16.8 -16.8,16.8 -9.2,0 -16.7,-7.6 -16.7,-16.8 0,-9.1 7.5,-16.7 16.7,-16.7 z m -39.7,-20 c 9.2,0 16.7,7.4 16.7,16.7 0,9.2 -7.4,16.7 -16.7,16.7 -9.2,0 -16.7,-7.4 -16.7,-16.7 0,-9.2 7.5,-16.7 16.7,-16.7 z m -109.9,68.1 c 18.8,0 34,-15.2 34,-34 0,-18.8 -15.2,-34 -34,-34 -18.9,0 -34.1,15.2 -34.1,34 0,18.7 15.2,34 34.1,34 z m -39.8,21.5 c 9.2,0 16.7,-7.4 16.7,-16.7 0,-9.2 -7.4,-16.7 -16.7,-16.7 -9.3,0 -16.7,7.4 -16.7,16.7 0.1,9.2 7.5,16.7 16.7,16.7 z m 79.5,0 c 9.2,0 16.7,-7.4 16.7,-16.7 0,-9.2 -7.4,-16.7 -16.7,-16.7 -9.2,0 -16.7,7.4 -16.7,16.7 0.1,9.2 7.5,16.7 16.7,16.7 z m -39.7,20.1 c 9.1,0 16.7,-7.6 16.7,-16.7 0,-9.2 -7.6,-16.8 -16.7,-16.8 -9.2,0 -16.8,7.6 -16.8,16.8 0.1,9.1 7.6,16.7 16.8,16.7 z M 755,412.1 c 18.8,0 34,15.2 34,34 0,18.9 -15.2,34.1 -34,34.1 -18.8,0 -34,-15.2 -34,-34.1 0,-18.8 15.2,-34 34,-34 z m -39.7,-21.5 c 9.2,0 16.7,7.6 16.7,16.7 0,9.2 -7.4,16.8 -16.7,16.8 -9.2,0 -16.8,-7.6 -16.8,-16.8 0,-9.1 7.6,-16.7 16.8,-16.7 z m 79.4,0 c 9.2,0 16.8,7.6 16.8,16.7 0,9.2 -7.6,16.8 -16.8,16.8 -9.2,0 -16.7,-7.6 -16.7,-16.8 0,-9.1 7.5,-16.7 16.7,-16.7 z m -39.7,-20 c 9.2,0 16.7,7.4 16.7,16.7 0,9.2 -7.4,16.7 -16.7,16.7 -9.2,0 -16.7,-7.4 -16.7,-16.7 0,-9.2 7.5,-16.7 16.7,-16.7 z m -109.9,68.1 c 18.8,0 34,-15.2 34,-34 0,-18.8 -15.2,-34 -34,-34 -18.9,0 -34.1,15.2 -34.1,34 0,18.7 15.2,34 34.1,34 z m -39.8,21.5 c 9.2,0 16.7,-7.4 16.7,-16.7 0,-9.2 -7.4,-16.7 -16.7,-16.7 -9.2,0 -16.7,7.4 -16.7,16.7 0.1,9.2 7.5,16.7 16.7,16.7 z m 79.5,0 c 9.2,0 16.7,-7.4 16.7,-16.7 0,-9.2 -7.4,-16.7 -16.7,-16.7 -9.2,0 -16.7,7.4 -16.7,16.7 0.1,9.2 7.5,16.7 16.7,16.7 z m -39.7,20.1 c 9.1,0 16.7,-7.6 16.7,-16.7 0,-9.2 -7.6,-16.8 -16.7,-16.8 -9.2,0 -16.8,7.6 -16.8,16.8 0.1,9.1 7.6,16.7 16.8,16.7 z M 535.2,412.1 c 18.8,0 34,15.2 34,34 0,18.9 -15.2,34.1 -34,34.1 -18.8,0 -34,-15.2 -34,-34.1 0,-18.8 15.2,-34 34,-34 z m -39.7,-21.5 c 9.2,0 16.7,7.6 16.7,16.7 0,9.2 -7.4,16.8 -16.7,16.8 -9.2,0 -16.8,-7.6 -16.8,-16.8 0,-9.1 7.6,-16.7 16.8,-16.7 z m 79.4,0 c 9.2,0 16.8,7.6 16.8,16.7 0,9.2 -7.6,16.8 -16.8,16.8 -9.2,0 -16.7,-7.6 -16.7,-16.8 0,-9.1 7.4,-16.7 16.7,-16.7 z m -39.7,-20 c 9.2,0 16.7,7.4 16.7,16.7 0,9.2 -7.4,16.7 -16.7,16.7 -9.2,0 -16.7,-7.4 -16.7,-16.7 0,-9.2 7.5,-16.7 16.7,-16.7 z m -109.9,68.1 c 18.8,0 34,-15.2 34,-34 0,-18.8 -15.2,-34 -34,-34 -18.9,0 -34.1,15.2 -34.1,34 0,18.7 15.2,34 34.1,34 z m -39.8,21.5 c 9.2,0 16.7,-7.4 16.7,-16.7 0,-9.2 -7.4,-16.7 -16.7,-16.7 -9.3,0 -16.7,7.4 -16.7,16.7 0.1,9.2 7.5,16.7 16.7,16.7 z m 79.5,0 c 9.2,0 16.7,-7.4 16.7,-16.7 0,-9.2 -7.4,-16.7 -16.7,-16.7 -9.2,0 -16.7,7.4 -16.7,16.7 0.1,9.2 7.5,16.7 16.7,16.7 z m -39.7,20.1 c 9.1,0 16.7,-7.6 16.7,-16.7 0,-9.2 -7.6,-16.8 -16.7,-16.8 -9.2,0 -16.8,7.6 -16.8,16.8 0.1,9.1 7.6,16.7 16.8,16.7 z M 315.4,412.1 c 18.8,0 34,15.2 34,34 0,18.9 -15.2,34.1 -34,34.1 -18.8,0 -34,-15.2 -34,-34.1 -0.1,-18.8 15.2,-34 34,-34 z m -39.7,-21.5 c 9.2,0 16.7,7.6 16.7,16.7 0,9.2 -7.4,16.8 -16.7,16.8 -9.2,0 -16.8,-7.6 -16.8,-16.8 0,-9.1 7.6,-16.7 16.8,-16.7 z m 79.3,0 c 9.2,0 16.8,7.6 16.8,16.7 0,9.2 -7.6,16.8 -16.8,16.8 -9.2,0 -16.7,-7.6 -16.7,-16.8 0.1,-9.1 7.5,-16.7 16.7,-16.7 z m -39.6,-20 c 9.2,0 16.7,7.4 16.7,16.7 0,9.2 -7.4,16.7 -16.7,16.7 -9.2,0 -16.7,-7.4 -16.7,-16.7 0,-9.2 7.5,-16.7 16.7,-16.7 z m -109.9,68.1 c 18.8,0 34,-15.2 34,-34 0,-18.8 -15.2,-34 -34,-34 -18.9,0 -34.1,15.2 -34.1,34 0,18.7 15.2,34 34.1,34 z m -39.8,21.5 c 9.2,0 16.7,-7.4 16.7,-16.7 0,-9.2 -7.4,-16.7 -16.7,-16.7 -9.2,0 -16.7,7.4 -16.7,16.7 0.1,9.2 7.5,16.7 16.7,16.7 z m 79.5,0 c 9.2,0 16.7,-7.4 16.7,-16.7 0,-9.2 -7.4,-16.7 -16.7,-16.7 -9.2,0 -16.7,7.4 -16.7,16.7 0,9.2 7.5,16.7 16.7,16.7 z m -39.7,20.1 c 9.1,0 16.7,-7.6 16.7,-16.7 0,-9.2 -7.6,-16.8 -16.7,-16.8 -9.2,0 -16.8,7.6 -16.8,16.8 0,9.1 7.6,16.7 16.8,16.7 z M 95.6,412.1 c 18.8,0 34,15.2 34,34 0,18.9 -15.2,34.1 -34,34.1 -18.8,0 -34,-15.2 -34,-34.1 -0.1,-18.8 15.2,-34 34,-34 z M 55.9,390.6 c 9.2,0 16.7,7.6 16.7,16.7 0,9.2 -7.4,16.8 -16.7,16.8 -9.3,0 -16.8,-7.6 -16.8,-16.8 0,-9.1 7.6,-16.7 16.8,-16.7 z m 79.3,0 c 9.2,0 16.8,7.6 16.8,16.7 0,9.2 -7.6,16.8 -16.8,16.8 -9.2,0 -16.7,-7.6 -16.7,-16.8 0.1,-9.1 7.5,-16.7 16.7,-16.7 z m -39.6,-20 c 9.2,0 16.7,7.4 16.7,16.7 0,9.2 -7.4,16.7 -16.7,16.7 -9.3,0 -16.7,-7.4 -16.7,-16.7 0,-9.2 7.4,-16.7 16.7,-16.7 z m -70.2,89.6 c 9.2,0 16.7,-7.4 16.7,-16.7 0,-9.2 -7.4,-16.7 -16.7,-16.7 -9.3,0 -16.7,7.4 -16.7,16.7 0,9.2 7.5,16.7 16.7,16.7 z M 1374.7,261.4 c 9.2,0 16.7,7.4 16.7,16.7 0,9.2 -7.4,16.7 -16.7,16.7 -9.2,0 -16.8,-7.4 -16.8,-16.7 0.1,-9.3 7.6,-16.7 16.8,-16.7 z m -70.1,48.1 c 18.8,0 34,-15.2 34,-34 0,-18.9 -15.2,-34.1 -34,-34.1 -18.9,0 -34.1,15.2 -34.1,34.1 -0.1,18.7 15.2,34 34.1,34 z m -39.8,21.5 c 9.2,0 16.7,-7.4 16.7,-16.7 0,-9.2 -7.4,-16.8 -16.7,-16.8 -9.3,0 -16.7,7.6 -16.7,16.8 0,9.2 7.4,16.7 16.7,16.7 z m 79.5,0 c 9.2,0 16.7,-7.4 16.7,-16.7 0,-9.2 -7.4,-16.8 -16.7,-16.8 -9.2,0 -16.7,7.6 -16.7,16.8 0,9.2 7.4,16.7 16.7,16.7 z m -39.7,19.9 c 9.1,0 16.7,-7.4 16.7,-16.7 0,-9.2 -7.6,-16.7 -16.7,-16.7 -9.2,0 -16.8,7.4 -16.8,16.7 0,9.3 7.6,16.7 16.8,16.7 z m -110,-68 c 18.8,0 34,15.2 34,34 0,18.8 -15.2,34 -34,34 -18.8,0 -34,-15.2 -34,-34 0,-18.8 15.2,-34 34,-34 z m -39.7,-21.5 c 9.2,0 16.7,7.4 16.7,16.7 0,9.2 -7.4,16.7 -16.7,16.7 -9.3,0 -16.8,-7.4 -16.8,-16.7 0,-9.3 7.6,-16.7 16.8,-16.7 z m 79.4,0 c 9.2,0 16.8,7.4 16.8,16.7 0,9.2 -7.6,16.7 -16.8,16.7 -9.2,0 -16.7,-7.4 -16.7,-16.7 0,-9.3 7.5,-16.7 16.7,-16.7 z m -39.7,-20.1 c 9.2,0 16.7,7.6 16.7,16.8 0,9.1 -7.4,16.7 -16.7,16.7 -9.3,0 -16.7,-7.6 -16.7,-16.7 0,-9.2 7.5,-16.8 16.7,-16.8 z m -109.8,68.2 c 18.8,0 34,-15.2 34,-34 0,-18.9 -15.2,-34.1 -34,-34.1 -18.9,0 -34.1,15.2 -34.1,34.1 -0.1,18.7 15.2,34 34.1,34 z M 1045,331 c 9.2,0 16.7,-7.4 16.7,-16.7 0,-9.2 -7.4,-16.8 -16.7,-16.8 -9.2,0 -16.7,7.6 -16.7,16.8 0,9.2 7.4,16.7 16.7,16.7 z m 79.4,0 c 9.2,0 16.7,-7.4 16.7,-16.7 0,-9.2 -7.4,-16.8 -16.7,-16.8 -9.3,0 -16.7,7.6 -16.7,16.8 0.1,9.2 7.5,16.7 16.7,16.7 z m -39.6,19.9 c 9.1,0 16.7,-7.4 16.7,-16.7 0,-9.2 -7.6,-16.7 -16.7,-16.7 -9.2,0 -16.8,7.4 -16.8,16.7 0,9.3 7.5,16.7 16.8,16.7 z m -110,-68 c 18.8,0 34,15.2 34,34 0,18.8 -15.2,34 -34,34 -18.8,0 -34,-15.2 -34,-34 0,-18.8 15.2,-34 34,-34 z m -39.7,-21.5 c 9.2,0 16.7,7.4 16.7,16.7 0,9.2 -7.4,16.7 -16.7,16.7 -9.3,0 -16.8,-7.4 -16.8,-16.7 0,-9.3 7.6,-16.7 16.8,-16.7 z m 79.4,0 c 9.2,0 16.8,7.4 16.8,16.7 0,9.2 -7.6,16.7 -16.8,16.7 -9.2,0 -16.7,-7.4 -16.7,-16.7 0,-9.3 7.5,-16.7 16.7,-16.7 z m -39.7,-20.1 c 9.2,0 16.7,7.6 16.7,16.8 0,9.1 -7.4,16.7 -16.7,16.7 -9.2,0 -16.7,-7.6 -16.7,-16.7 0,-9.2 7.5,-16.8 16.7,-16.8 z m -109.9,68.2 c 18.8,0 34,-15.2 34,-34 0,-18.9 -15.2,-34.1 -34,-34.1 -18.9,0 -34.1,15.2 -34.1,34.1 0,18.7 15.2,34 34.1,34 z M 825.1,331 c 9.2,0 16.7,-7.4 16.7,-16.7 0,-9.2 -7.4,-16.8 -16.7,-16.8 -9.3,0 -16.7,7.6 -16.7,16.8 0.1,9.2 7.5,16.7 16.7,16.7 z m 79.5,0 c 9.2,0 16.7,-7.4 16.7,-16.7 0,-9.2 -7.4,-16.8 -16.7,-16.8 -9.2,0 -16.7,7.6 -16.7,16.8 0.1,9.2 7.5,16.7 16.7,16.7 z m -39.7,19.9 c 9.1,0 16.7,-7.4 16.7,-16.7 0,-9.2 -7.6,-16.7 -16.7,-16.7 -9.2,0 -16.8,7.4 -16.8,16.7 0.1,9.3 7.6,16.7 16.8,16.7 z M 755,282.9 c 18.8,0 34,15.2 34,34 0,18.8 -15.2,34 -34,34 -18.8,0 -34,-15.2 -34,-34 0,-18.8 15.2,-34 34,-34 z m -39.7,-21.5 c 9.2,0 16.7,7.4 16.7,16.7 0,9.2 -7.4,16.7 -16.7,16.7 -9.2,0 -16.8,-7.4 -16.8,-16.7 0,-9.3 7.6,-16.7 16.8,-16.7 z m 79.4,0 c 9.2,0 16.8,7.4 16.8,16.7 0,9.2 -7.6,16.7 -16.8,16.7 -9.2,0 -16.7,-7.4 -16.7,-16.7 0,-9.3 7.5,-16.7 16.7,-16.7 z M 755,241.3 c 9.2,0 16.7,7.6 16.7,16.8 0,9.1 -7.4,16.7 -16.7,16.7 -9.2,0 -16.7,-7.6 -16.7,-16.7 0,-9.2 7.5,-16.8 16.7,-16.8 z m -109.9,68.2 c 18.8,0 34,-15.2 34,-34 0,-18.9 -15.2,-34.1 -34,-34.1 -18.9,0 -34.1,15.2 -34.1,34.1 0,18.7 15.2,34 34.1,34 z M 605.3,331 c 9.2,0 16.7,-7.4 16.7,-16.7 0,-9.2 -7.4,-16.8 -16.7,-16.8 -9.2,0 -16.7,7.6 -16.7,16.8 0.1,9.2 7.5,16.7 16.7,16.7 z m 79.5,0 c 9.2,0 16.7,-7.4 16.7,-16.7 0,-9.2 -7.4,-16.8 -16.7,-16.8 -9.2,0 -16.7,7.6 -16.7,16.8 0.1,9.2 7.5,16.7 16.7,16.7 z m -39.7,19.9 c 9.1,0 16.7,-7.4 16.7,-16.7 0,-9.2 -7.6,-16.7 -16.7,-16.7 -9.2,0 -16.8,7.4 -16.8,16.7 0.1,9.3 7.6,16.7 16.8,16.7 z m -109.9,-68 c 18.8,0 34,15.2 34,34 0,18.8 -15.2,34 -34,34 -18.8,0 -34,-15.2 -34,-34 0,-18.8 15.2,-34 34,-34 z m -39.7,-21.5 c 9.2,0 16.7,7.4 16.7,16.7 0,9.2 -7.4,16.7 -16.7,16.7 -9.2,0 -16.8,-7.4 -16.8,-16.7 0,-9.3 7.6,-16.7 16.8,-16.7 z m 79.4,0 c 9.2,0 16.8,7.4 16.8,16.7 0,9.2 -7.6,16.7 -16.8,16.7 -9.2,0 -16.7,-7.4 -16.7,-16.7 0,-9.3 7.4,-16.7 16.7,-16.7 z m -39.7,-20.1 c 9.2,0 16.7,7.6 16.7,16.8 0,9.1 -7.4,16.7 -16.7,16.7 -9.2,0 -16.7,-7.6 -16.7,-16.7 0,-9.2 7.5,-16.8 16.7,-16.8 z m -109.9,68.2 c 18.8,0 34,-15.2 34,-34 0,-18.9 -15.2,-34.1 -34,-34.1 -18.9,0 -34.1,15.2 -34.1,34.1 0,18.7 15.2,34 34.1,34 z M 385.5,331 c 9.2,0 16.7,-7.4 16.7,-16.7 0,-9.2 -7.4,-16.8 -16.7,-16.8 -9.3,0 -16.7,7.6 -16.7,16.8 0.1,9.2 7.5,16.7 16.7,16.7 z m 79.5,0 c 9.2,0 16.7,-7.4 16.7,-16.7 0,-9.2 -7.4,-16.8 -16.7,-16.8 -9.2,0 -16.7,7.6 -16.7,16.8 0.1,9.2 7.5,16.7 16.7,16.7 z m -39.7,19.9 c 9.1,0 16.7,-7.4 16.7,-16.7 0,-9.2 -7.6,-16.7 -16.7,-16.7 -9.2,0 -16.8,7.4 -16.8,16.7 0.1,9.3 7.6,16.7 16.8,16.7 z m -109.9,-68 c 18.8,0 34,15.2 34,34 0,18.8 -15.2,34 -34,34 -18.8,0 -34,-15.2 -34,-34 -0.1,-18.8 15.2,-34 34,-34 z m -39.7,-21.5 c 9.2,0 16.7,7.4 16.7,16.7 0,9.2 -7.4,16.7 -16.7,16.7 -9.2,0 -16.8,-7.4 -16.8,-16.7 0,-9.3 7.6,-16.7 16.8,-16.7 z m 79.3,0 c 9.2,0 16.8,7.4 16.8,16.7 0,9.2 -7.6,16.7 -16.8,16.7 -9.2,0 -16.7,-7.4 -16.7,-16.7 0.1,-9.3 7.5,-16.7 16.7,-16.7 z m -39.6,-20.1 c 9.2,0 16.7,7.6 16.7,16.8 0,9.1 -7.4,16.7 -16.7,16.7 -9.2,0 -16.7,-7.6 -16.7,-16.7 0,-9.2 7.5,-16.8 16.7,-16.8 z m -109.9,68.2 c 18.8,0 34,-15.2 34,-34 0,-18.9 -15.2,-34.1 -34,-34.1 -18.9,0 -34.1,15.2 -34.1,34.1 0,18.7 15.2,34 34.1,34 z M 165.7,331 c 9.2,0 16.7,-7.4 16.7,-16.7 0,-9.2 -7.4,-16.8 -16.7,-16.8 -9.2,0 -16.7,7.6 -16.7,16.8 0.1,9.2 7.5,16.7 16.7,16.7 z m 79.5,0 c 9.2,0 16.7,-7.4 16.7,-16.7 0,-9.2 -7.4,-16.8 -16.7,-16.8 -9.2,0 -16.7,7.6 -16.7,16.8 0,9.2 7.5,16.7 16.7,16.7 z m -39.7,19.9 c 9.1,0 16.7,-7.4 16.7,-16.7 0,-9.2 -7.6,-16.7 -16.7,-16.7 -9.2,0 -16.8,7.4 -16.8,16.7 0,9.3 7.6,16.7 16.8,16.7 z m -109.9,-68 c 18.8,0 34,15.2 34,34 0,18.8 -15.2,34 -34,34 -18.8,0 -34,-15.2 -34,-34 -0.1,-18.8 15.2,-34 34,-34 z M 55.9,261.4 c 9.2,0 16.7,7.4 16.7,16.7 0,9.2 -7.4,16.7 -16.7,16.7 -9.3,0 -16.8,-7.4 -16.8,-16.7 0,-9.3 7.6,-16.7 16.8,-16.7 z m 79.3,0 c 9.2,0 16.8,7.4 16.8,16.7 0,9.2 -7.6,16.7 -16.8,16.7 -9.2,0 -16.7,-7.4 -16.7,-16.7 0.1,-9.3 7.5,-16.7 16.7,-16.7 z M 95.6,241.3 c 9.2,0 16.7,7.6 16.7,16.8 0,9.1 -7.4,16.7 -16.7,16.7 -9.3,0 -16.7,-7.6 -16.7,-16.7 0,-9.2 7.4,-16.8 16.7,-16.8 z M 25.4,331 c 9.2,0 16.7,-7.4 16.7,-16.7 0,-9.2 -7.4,-16.8 -16.7,-16.8 -9.3,0 -16.7,7.6 -16.7,16.8 0,9.2 7.5,16.7 16.7,16.7 z M 1374.7,132.2 c 9.2,0 16.7,7.4 16.7,16.7 0,9.3 -7.4,16.7 -16.7,16.7 -9.2,0 -16.8,-7.4 -16.8,-16.7 0,-9.3 7.6,-16.7 16.8,-16.7 z m -70.1,48 c 18.8,0 34,-15.2 34,-34.1 0,-18.8 -15.2,-34 -34,-34 -18.9,0 -34.1,15.2 -34.1,34 -0.1,18.9 15.2,34.1 34.1,34.1 z m -39.8,21.4 c 9.2,0 16.7,-7.4 16.7,-16.7 0,-9.2 -7.4,-16.7 -16.7,-16.7 -9.3,0 -16.7,7.4 -16.7,16.7 0,9.3 7.4,16.7 16.7,16.7 z m 79.5,0 c 9.2,0 16.7,-7.4 16.7,-16.7 0,-9.2 -7.4,-16.7 -16.7,-16.7 -9.2,0 -16.7,7.4 -16.7,16.7 0,9.3 7.4,16.7 16.7,16.7 z m -39.7,20.1 c 9.1,0 16.7,-7.4 16.7,-16.7 0,-9.3 -7.6,-16.7 -16.7,-16.7 -9.2,0 -16.8,7.4 -16.8,16.7 0,9.3 7.6,16.7 16.8,16.7 z m -110,-68 c 18.8,0 34,15.2 34,34 0,18.8 -15.2,34 -34,34 -18.8,0 -34,-15.2 -34,-34 0,-18.8 15.2,-34 34,-34 z m -39.7,-21.5 c 9.2,0 16.7,7.4 16.7,16.7 0,9.3 -7.4,16.7 -16.7,16.7 -9.3,0 -16.8,-7.4 -16.8,-16.7 0,-9.3 7.6,-16.7 16.8,-16.7 z m 79.4,0 c 9.2,0 16.8,7.4 16.8,16.7 0,9.3 -7.6,16.7 -16.8,16.7 -9.2,0 -16.7,-7.4 -16.7,-16.7 0,-9.3 7.5,-16.7 16.7,-16.7 z m -39.7,-20.1 c 9.2,0 16.7,7.4 16.7,16.7 0,9.2 -7.4,16.7 -16.7,16.7 -9.3,0 -16.7,-7.4 -16.7,-16.7 0,-9.3 7.5,-16.7 16.7,-16.7 z m -109.8,68.1 c 18.8,0 34,-15.2 34,-34.1 0,-18.8 -15.2,-34 -34,-34 -18.9,0 -34.1,15.2 -34.1,34 -0.1,18.9 15.2,34.1 34.1,34.1 z m -39.8,21.4 c 9.2,0 16.7,-7.4 16.7,-16.7 0,-9.2 -7.4,-16.7 -16.7,-16.7 -9.2,0 -16.7,7.4 -16.7,16.7 0,9.3 7.4,16.7 16.7,16.7 z m 79.4,0 c 9.2,0 16.7,-7.4 16.7,-16.7 0,-9.2 -7.4,-16.7 -16.7,-16.7 -9.3,0 -16.7,7.4 -16.7,16.7 0.1,9.3 7.5,16.7 16.7,16.7 z m -39.6,20.1 c 9.1,0 16.7,-7.4 16.7,-16.7 0,-9.3 -7.6,-16.7 -16.7,-16.7 -9.2,0 -16.8,7.4 -16.8,16.7 0,9.3 7.5,16.7 16.8,16.7 z m -110,-68 c 18.8,0 34,15.2 34,34 0,18.8 -15.2,34 -34,34 -18.8,0 -34,-15.2 -34,-34 0,-18.8 15.2,-34 34,-34 z m -39.7,-21.5 c 9.2,0 16.7,7.4 16.7,16.7 0,9.3 -7.4,16.7 -16.7,16.7 -9.3,0 -16.8,-7.4 -16.8,-16.7 0,-9.3 7.6,-16.7 16.8,-16.7 z m 79.4,0 c 9.2,0 16.8,7.4 16.8,16.7 0,9.3 -7.6,16.7 -16.8,16.7 -9.2,0 -16.7,-7.4 -16.7,-16.7 0,-9.3 7.5,-16.7 16.7,-16.7 z m -39.7,-20.1 c 9.2,0 16.7,7.4 16.7,16.7 0,9.2 -7.4,16.7 -16.7,16.7 -9.2,0 -16.7,-7.4 -16.7,-16.7 0,-9.3 7.5,-16.7 16.7,-16.7 z m -109.9,68.1 c 18.8,0 34,-15.2 34,-34.1 0,-18.8 -15.2,-34 -34,-34 -18.9,0 -34.1,15.2 -34.1,34 0,18.9 15.2,34.1 34.1,34.1 z m -39.8,21.4 c 9.2,0 16.7,-7.4 16.7,-16.7 0,-9.2 -7.4,-16.7 -16.7,-16.7 -9.3,0 -16.7,7.4 -16.7,16.7 0.1,9.3 7.5,16.7 16.7,16.7 z m 79.5,0 c 9.2,0 16.7,-7.4 16.7,-16.7 0,-9.2 -7.4,-16.7 -16.7,-16.7 -9.2,0 -16.7,7.4 -16.7,16.7 0.1,9.3 7.5,16.7 16.7,16.7 z m -39.7,20.1 c 9.1,0 16.7,-7.4 16.7,-16.7 0,-9.3 -7.6,-16.7 -16.7,-16.7 -9.2,0 -16.8,7.4 -16.8,16.7 0,9.3 7.6,16.7 16.8,16.7 z M 755,153.7 c 18.8,0 34,15.2 34,34 0,18.8 -15.2,34 -34,34 -18.8,0 -34,-15.2 -34,-34 0,-18.8 15.2,-34 34,-34 z m -39.7,-21.5 c 9.2,0 16.7,7.4 16.7,16.7 0,9.3 -7.4,16.7 -16.7,16.7 -9.2,0 -16.8,-7.4 -16.8,-16.7 0,-9.3 7.6,-16.7 16.8,-16.7 z m 79.4,0 c 9.2,0 16.8,7.4 16.8,16.7 0,9.3 -7.6,16.7 -16.8,16.7 -9.2,0 -16.7,-7.4 -16.7,-16.7 0,-9.3 7.5,-16.7 16.7,-16.7 z M 755,112.1 c 9.2,0 16.7,7.4 16.7,16.7 0,9.2 -7.4,16.7 -16.7,16.7 -9.2,0 -16.7,-7.4 -16.7,-16.7 0,-9.3 7.5,-16.7 16.7,-16.7 z m -109.9,68.1 c 18.8,0 34,-15.2 34,-34.1 0,-18.8 -15.2,-34 -34,-34 -18.9,0 -34.1,15.2 -34.1,34 0,18.9 15.2,34.1 34.1,34.1 z m -39.8,21.4 c 9.2,0 16.7,-7.4 16.7,-16.7 0,-9.2 -7.4,-16.7 -16.7,-16.7 -9.2,0 -16.7,7.4 -16.7,16.7 0.1,9.3 7.5,16.7 16.7,16.7 z m 79.5,0 c 9.2,0 16.7,-7.4 16.7,-16.7 0,-9.2 -7.4,-16.7 -16.7,-16.7 -9.2,0 -16.7,7.4 -16.7,16.7 0.1,9.3 7.5,16.7 16.7,16.7 z m -39.7,20.1 c 9.1,0 16.7,-7.4 16.7,-16.7 0,-9.3 -7.6,-16.7 -16.7,-16.7 -9.2,0 -16.8,7.4 -16.8,16.7 0,9.3 7.6,16.7 16.8,16.7 z m -109.9,-68 c 18.8,0 34,15.2 34,34 0,18.8 -15.2,34 -34,34 -18.8,0 -34,-15.2 -34,-34 0,-18.8 15.2,-34 34,-34 z m -39.7,-21.5 c 9.2,0 16.7,7.4 16.7,16.7 0,9.3 -7.4,16.7 -16.7,16.7 -9.2,0 -16.8,-7.4 -16.8,-16.7 0,-9.3 7.6,-16.7 16.8,-16.7 z m 79.4,0 c 9.2,0 16.8,7.4 16.8,16.7 0,9.3 -7.6,16.7 -16.8,16.7 -9.2,0 -16.7,-7.4 -16.7,-16.7 0,-9.3 7.4,-16.7 16.7,-16.7 z m -39.7,-20.1 c 9.2,0 16.7,7.4 16.7,16.7 0,9.2 -7.4,16.7 -16.7,16.7 -9.2,0 -16.7,-7.4 -16.7,-16.7 0,-9.3 7.5,-16.7 16.7,-16.7 z m -109.9,68.1 c 18.8,0 34,-15.2 34,-34.1 0,-18.8 -15.2,-34 -34,-34 -18.9,0 -34.1,15.2 -34.1,34 0,18.9 15.2,34.1 34.1,34.1 z m -39.8,21.4 c 9.2,0 16.7,-7.4 16.7,-16.7 0,-9.2 -7.4,-16.7 -16.7,-16.7 -9.3,0 -16.7,7.4 -16.7,16.7 0.1,9.3 7.5,16.7 16.7,16.7 z m 79.5,0 c 9.2,0 16.7,-7.4 16.7,-16.7 0,-9.2 -7.4,-16.7 -16.7,-16.7 -9.2,0 -16.7,7.4 -16.7,16.7 0.1,9.3 7.5,16.7 16.7,16.7 z m -39.7,20.1 c 9.1,0 16.7,-7.4 16.7,-16.7 0,-9.3 -7.6,-16.7 -16.7,-16.7 -9.2,0 -16.8,7.4 -16.8,16.7 0,9.3 7.6,16.7 16.8,16.7 z m -109.9,-68 c 18.8,0 34,15.2 34,34 0,18.8 -15.2,34 -34,34 -18.8,0 -34,-15.2 -34,-34 0,-18.8 15.2,-34 34,-34 z m -39.7,-21.5 c 9.2,0 16.7,7.4 16.7,16.7 0,9.3 -7.4,16.7 -16.7,16.7 -9.2,0 -16.8,-7.4 -16.8,-16.7 0,-9.3 7.6,-16.7 16.8,-16.7 z m 79.3,0 c 9.2,0 16.8,7.4 16.8,16.7 0,9.3 -7.6,16.7 -16.8,16.7 -9.2,0 -16.7,-7.4 -16.7,-16.7 0,-9.3 7.5,-16.7 16.7,-16.7 z m -39.6,-20.1 c 9.2,0 16.7,7.4 16.7,16.7 0,9.2 -7.4,16.7 -16.7,16.7 -9.2,0 -16.7,-7.4 -16.7,-16.7 0,-9.3 7.5,-16.7 16.7,-16.7 z m -109.9,68.1 c 18.8,0 34,-15.2 34,-34.1 0,-18.8 -15.2,-34 -34,-34 -18.9,0 -34.1,15.2 -34.1,34 0,18.9 15.2,34.1 34.1,34.1 z m -39.8,21.4 c 9.2,0 16.7,-7.4 16.7,-16.7 0,-9.2 -7.4,-16.7 -16.7,-16.7 -9.2,0 -16.7,7.4 -16.7,16.7 0.1,9.3 7.5,16.7 16.7,16.7 z m 79.5,0 c 9.2,0 16.7,-7.4 16.7,-16.7 0,-9.2 -7.4,-16.7 -16.7,-16.7 -9.2,0 -16.7,7.4 -16.7,16.7 0,9.3 7.5,16.7 16.7,16.7 z m -39.7,20.1 c 9.1,0 16.7,-7.4 16.7,-16.7 0,-9.3 -7.6,-16.7 -16.7,-16.7 -9.2,0 -16.8,7.4 -16.8,16.7 0,9.3 7.6,16.7 16.8,16.7 z m -109.9,-68 c 18.8,0 34,15.2 34,34 0,18.8 -15.2,34 -34,34 -18.8,0 -34,-15.2 -34,-34 0,-18.8 15.2,-34 34,-34 z M 55.9,132.2 c 9.2,0 16.7,7.4 16.7,16.7 0,9.3 -7.4,16.7 -16.7,16.7 -9.3,0 -16.8,-7.4 -16.8,-16.7 0,-9.3 7.6,-16.7 16.8,-16.7 z m 79.3,0 c 9.2,0 16.8,7.4 16.8,16.7 0,9.3 -7.6,16.7 -16.8,16.7 -9.2,0 -16.7,-7.4 -16.7,-16.7 0,-9.3 7.5,-16.7 16.7,-16.7 z M 95.6,112.1 c 9.2,0 16.7,7.4 16.7,16.7 0,9.2 -7.4,16.7 -16.7,16.7 -9.3,0 -16.7,-7.4 -16.7,-16.7 0,-9.3 7.4,-16.7 16.7,-16.7 z m -70.2,89.5 c 9.2,0 16.7,-7.4 16.7,-16.7 0,-9.2 -7.4,-16.7 -16.7,-16.7 -9.3,0 -16.7,7.6 -16.7,16.8 0,9.2 7.5,16.6 16.7,16.6 z M 1374.7,3 c 9.2,0 16.7,7.4 16.7,16.7 0,9.3 -7.4,16.7 -16.7,16.7 -9.2,0 -16.8,-7.4 -16.8,-16.7 0,-9.3 7.6,-16.7 16.8,-16.7 z m -109.9,69.4 c 9.2,0 16.7,-7.4 16.7,-16.7 0,-9.3 -7.4,-16.7 -16.7,-16.7 -9.3,0 -16.7,7.4 -16.7,16.7 0,9.3 7.4,16.7 16.7,16.7 z m 79.5,0 c 9.2,0 16.7,-7.4 16.7,-16.7 0,-9.3 -7.4,-16.7 -16.7,-16.7 -9.2,0 -16.7,7.4 -16.7,16.7 0,9.3 7.4,16.7 16.7,16.7 z m -39.7,20.1 c 9.1,0 16.7,-7.4 16.7,-16.7 0,-9.2 -7.6,-16.7 -16.7,-16.7 -9.2,0 -16.8,7.4 -16.8,16.7 0,9.2 7.6,16.7 16.8,16.7 z m -110,-68.2 c 18.8,0 34,15.2 34,34.1 0,18.8 -15.2,34 -34,34 -18.8,0 -34,-15.2 -34,-34 0,-18.8 15.2,-34.1 34,-34.1 z M 1154.9,3 c 9.2,0 16.7,7.4 16.7,16.7 0,9.3 -7.4,16.7 -16.7,16.7 -9.3,0 -16.8,-7.4 -16.8,-16.7 0,-9.3 7.6,-16.7 16.8,-16.7 z m 79.4,0 c 9.2,0 16.8,7.4 16.8,16.7 0,9.3 -7.6,16.7 -16.8,16.7 -9.2,0 -16.7,-7.4 -16.7,-16.7 0,-9.3 7.5,-16.7 16.7,-16.7 z M 1045,72.4 c 9.2,0 16.7,-7.4 16.7,-16.7 0,-9.3 -7.4,-16.7 -16.7,-16.7 -9.2,0 -16.7,7.4 -16.7,16.7 0,9.3 7.4,16.7 16.7,16.7 z m 79.4,0 c 9.2,0 16.7,-7.4 16.7,-16.7 0,-9.3 -7.4,-16.7 -16.7,-16.7 -9.3,0 -16.7,7.4 -16.7,16.7 0,9.3 7.5,16.7 16.7,16.7 z m -39.6,20.1 c 9.1,0 16.7,-7.4 16.7,-16.7 0,-9.2 -7.6,-16.7 -16.7,-16.7 -9.2,0 -16.8,7.4 -16.8,16.7 0,9.2 7.5,16.7 16.8,16.7 z m -110,-68.2 c 18.8,0 34,15.2 34,34.1 0,18.8 -15.2,34 -34,34 -18.8,0 -34,-15.2 -34,-34 0,-18.8 15.2,-34.1 34,-34.1 z M 935.1,3 c 9.2,0 16.7,7.4 16.7,16.7 0,9.3 -7.4,16.7 -16.7,16.7 -9.3,0 -16.8,-7.4 -16.8,-16.7 0,-9.3 7.6,-16.7 16.8,-16.7 z m 79.4,0 c 9.2,0 16.8,7.4 16.8,16.7 0,9.3 -7.6,16.7 -16.8,16.7 -9.2,0 -16.7,-7.4 -16.7,-16.7 0,-9.3 7.5,-16.7 16.7,-16.7 z M 825.1,72.4 c 9.2,0 16.7,-7.4 16.7,-16.7 0,-9.3 -7.4,-16.7 -16.7,-16.7 -9.3,0 -16.7,7.4 -16.7,16.7 0,9.3 7.5,16.7 16.7,16.7 z m 79.5,0 c 9.2,0 16.7,-7.4 16.7,-16.7 0,-9.3 -7.4,-16.7 -16.7,-16.7 -9.2,0 -16.7,7.4 -16.7,16.7 0,9.3 7.5,16.7 16.7,16.7 z m -39.7,20.1 c 9.1,0 16.7,-7.4 16.7,-16.7 0,-9.2 -7.6,-16.7 -16.7,-16.7 -9.2,0 -16.8,7.4 -16.8,16.7 0.1,9.2 7.6,16.7 16.8,16.7 z M 755,24.3 c 18.8,0 34,15.2 34,34.1 0,18.8 -15.2,34 -34,34 -18.8,0 -34,-15.2 -34,-34 0,-18.8 15.2,-34.1 34,-34.1 z M 715.3,3 c 9.2,0 16.7,7.4 16.7,16.7 0,9.3 -7.4,16.7 -16.7,16.7 -9.2,0 -16.8,-7.4 -16.8,-16.7 0,-9.3 7.6,-16.7 16.8,-16.7 z m 79.4,0 c 9.2,0 16.8,7.4 16.8,16.7 0,9.3 -7.6,16.7 -16.8,16.7 C 785.5,36.4 778,29 778,19.7 778,10.4 785.5,3 794.7,3 Z M 605.3,72.4 C 614.5,72.4 622,65 622,55.7 622,46.4 614.6,39 605.3,39 c -9.2,0 -16.7,7.4 -16.7,16.7 0,9.3 7.5,16.7 16.7,16.7 z m 79.5,0 c 9.2,0 16.7,-7.4 16.7,-16.7 0,-9.3 -7.4,-16.7 -16.7,-16.7 -9.2,0 -16.7,7.4 -16.7,16.7 0,9.3 7.5,16.7 16.7,16.7 z m -39.7,20.1 c 9.1,0 16.7,-7.4 16.7,-16.7 0,-9.2 -7.6,-16.7 -16.7,-16.7 -9.2,0 -16.8,7.4 -16.8,16.7 0.1,9.2 7.6,16.7 16.8,16.7 z M 535.2,24.3 c 18.8,0 34,15.2 34,34.1 0,18.8 -15.2,34 -34,34 -18.8,0 -34,-15.2 -34,-34 0,-18.8 15.2,-34.1 34,-34.1 z M 495.5,3 c 9.2,0 16.7,7.4 16.7,16.7 0,9.3 -7.4,16.7 -16.7,16.7 -9.2,0 -16.8,-7.4 -16.8,-16.7 0,-9.3 7.6,-16.7 16.8,-16.7 z m 79.4,0 c 9.2,0 16.8,7.4 16.8,16.7 0,9.3 -7.6,16.7 -16.8,16.7 -9.2,0 -16.7,-7.4 -16.7,-16.7 0,-9.3 7.4,-16.7 16.7,-16.7 z M 385.5,72.4 c 9.2,0 16.7,-7.4 16.7,-16.7 0,-9.3 -7.4,-16.7 -16.7,-16.7 -9.3,0 -16.7,7.4 -16.7,16.7 0,9.3 7.5,16.7 16.7,16.7 z m 79.5,0 c 9.2,0 16.7,-7.4 16.7,-16.7 0,-9.3 -7.4,-16.7 -16.7,-16.7 -9.2,0 -16.7,7.4 -16.7,16.7 0,9.3 7.5,16.7 16.7,16.7 z m -39.7,20.1 c 9.1,0 16.7,-7.4 16.7,-16.7 0,-9.2 -7.6,-16.7 -16.7,-16.7 -9.2,0 -16.8,7.4 -16.8,16.7 0.1,9.2 7.6,16.7 16.8,16.7 z M 315.4,24.3 c 18.8,0 34,15.2 34,34.1 0,18.8 -15.2,34 -34,34 -18.8,0 -34,-15.2 -34,-34 -0.1,-18.8 15.2,-34.1 34,-34.1 z M 275.7,3 c 9.2,0 16.7,7.4 16.7,16.7 0,9.3 -7.4,16.7 -16.7,16.7 -9.2,0 -16.8,-7.4 -16.8,-16.7 0,-9.3 7.6,-16.7 16.8,-16.7 z M 355,3 c 9.2,0 16.8,7.4 16.8,16.7 0,9.3 -7.6,16.7 -16.8,16.7 -9.2,0 -16.7,-7.4 -16.7,-16.7 C 338.3,10.4 345.8,3 355,3 Z M 165.7,72.4 c 9.2,0 16.7,-7.4 16.7,-16.7 0,-9.3 -7.4,-16.7 -16.7,-16.7 -9.2,0 -16.7,7.4 -16.7,16.7 0,9.3 7.5,16.7 16.7,16.7 z m 79.5,0 c 9.2,0 16.7,-7.4 16.7,-16.7 0,-9.3 -7.4,-16.7 -16.7,-16.7 -9.2,0 -16.7,7.4 -16.7,16.7 0,9.3 7.5,16.7 16.7,16.7 z m -39.7,20.1 c 9.1,0 16.7,-7.4 16.7,-16.7 0,-9.2 -7.6,-16.7 -16.7,-16.7 -9.2,0 -16.8,7.4 -16.8,16.7 0,9.2 7.6,16.7 16.8,16.7 z M 95.6,24.3 c 18.8,0 34,15.2 34,34.1 0,18.8 -15.2,34 -34,34 -18.8,0 -34,-15.2 -34,-34 -0.1,-18.8 15.2,-34.1 34,-34.1 z M 55.9,3 c 9.2,0 16.7,7.4 16.7,16.7 0,9.3 -7.4,16.7 -16.7,16.7 C 46.6,36.4 39.1,29 39.1,19.7 39.1,10.4 46.7,3 55.9,3 Z m 79.3,0 c 9.2,0 16.8,7.4 16.8,16.7 0,9.3 -7.6,16.7 -16.8,16.7 C 126,36.4 118.5,29 118.5,19.7 118.5,10.4 126,3 135.2,3 Z M 25.4,72.4 C 34.6,72.4 42,65 42,55.8 42,46.6 34.6,39.1 25.3,39.1 16,39.1 8.7,46.5 8.7,55.8 c 0,9.3 7.5,16.6 16.7,16.6 z"
         id="path8027"
         inkscape:connector-curvature="0"
         style="clip-rule:evenodd;display:inline;opacity:0.2;fill:#f3c087;fill-rule:evenodd" />
    </g>
  </g>
</svg>
